<mxfile host="app.diagrams.net" agent="Mozilla/5.0 (Windows NT 10.0; Win64; x64) AppleWebKit/537.36 (KHTML, like Gecko) Chrome/141.0.0.0 Safari/537.36" version="28.2.5" pages="3">
  <diagram id="QrxC34gLZUSq_FKkKBZq" name="Use Case Diagram">
    <mxGraphModel dx="1489" dy="753" grid="0" gridSize="10" guides="1" tooltips="1" connect="1" arrows="1" fold="1" page="1" pageScale="1" pageWidth="3300" pageHeight="4681" math="0" shadow="0">
      <root>
        <mxCell id="0" />
        <mxCell id="1" parent="0" />
        <mxCell id="VwzzKHE0yYVzYCcpCROz-1" value="Series watcher&lt;div&gt;&lt;br&gt;&lt;/div&gt;" style="shape=umlActor;verticalLabelPosition=bottom;verticalAlign=top;html=1;outlineConnect=0;fillColor=#93E9BE;" parent="1" vertex="1">
          <mxGeometry x="402" y="427" width="30" height="60" as="geometry" />
        </mxCell>
        <mxCell id="VwzzKHE0yYVzYCcpCROz-2" value="Movies watcher&lt;div&gt;&lt;br&gt;&lt;/div&gt;" style="shape=umlActor;verticalLabelPosition=bottom;verticalAlign=top;html=1;outlineConnect=0;fillColor=#93E9BE;" parent="1" vertex="1">
          <mxGeometry x="402" y="331" width="30" height="60" as="geometry" />
        </mxCell>
        <mxCell id="VwzzKHE0yYVzYCcpCROz-4" value="Manga reader" style="shape=umlActor;verticalLabelPosition=bottom;verticalAlign=top;html=1;outlineConnect=0;fillColor=#93E9BE;" parent="1" vertex="1">
          <mxGeometry x="92" y="524" width="30" height="60" as="geometry" />
        </mxCell>
        <mxCell id="VwzzKHE0yYVzYCcpCROz-6" value="Anime watcher" style="shape=umlActor;verticalLabelPosition=bottom;verticalAlign=top;html=1;outlineConnect=0;fillColor=#93E9BE;" parent="1" vertex="1">
          <mxGeometry x="92" y="427" width="30" height="60" as="geometry" />
        </mxCell>
        <mxCell id="VwzzKHE0yYVzYCcpCROz-7" value="Books reader" style="shape=umlActor;verticalLabelPosition=bottom;verticalAlign=top;html=1;outlineConnect=0;fillColor=#93E9BE;" parent="1" vertex="1">
          <mxGeometry x="402" y="524" width="30" height="60" as="geometry" />
        </mxCell>
        <mxCell id="VwzzKHE0yYVzYCcpCROz-8" value="User" style="shape=umlActor;verticalLabelPosition=bottom;verticalAlign=top;html=1;outlineConnect=0;fillColor=#93E9BE;" parent="1" vertex="1">
          <mxGeometry x="92" y="140" width="30" height="60" as="geometry" />
        </mxCell>
        <mxCell id="VwzzKHE0yYVzYCcpCROz-9" value="Gamer" style="shape=umlActor;verticalLabelPosition=bottom;verticalAlign=top;html=1;outlineConnect=0;fillColor=#93E9BE;" parent="1" vertex="1">
          <mxGeometry x="92" y="331" width="30" height="60" as="geometry" />
        </mxCell>
        <mxCell id="VwzzKHE0yYVzYCcpCROz-10" value="Import Goodreads" style="ellipse;whiteSpace=wrap;html=1;fillColor=#93E9BE;" parent="1" vertex="1">
          <mxGeometry x="498" y="536" width="85" height="48" as="geometry" />
        </mxCell>
        <mxCell id="VwzzKHE0yYVzYCcpCROz-12" value="Mark episodes as finished" style="ellipse;whiteSpace=wrap;html=1;fillColor=#93E9BE;" parent="1" vertex="1">
          <mxGeometry x="492" y="439" width="117" height="41" as="geometry" />
        </mxCell>
        <mxCell id="VwzzKHE0yYVzYCcpCROz-13" value="I&lt;span style=&quot;background-color: transparent; color: light-dark(rgb(0, 0, 0), rgb(255, 255, 255));&quot;&gt;mport Trakt&lt;/span&gt;" style="ellipse;whiteSpace=wrap;html=1;fillColor=#93E9BE;" parent="1" vertex="1">
          <mxGeometry x="521" y="347" width="59" height="33" as="geometry" />
        </mxCell>
        <mxCell id="VwzzKHE0yYVzYCcpCROz-14" value="See YT Trailers" style="ellipse;whiteSpace=wrap;html=1;fillColor=#93E9BE;" parent="1" vertex="1">
          <mxGeometry x="140" y="40" width="69" height="35" as="geometry" />
        </mxCell>
        <mxCell id="VwzzKHE0yYVzYCcpCROz-16" value="Import Steam Library" style="ellipse;whiteSpace=wrap;html=1;fillColor=#93E9BE;" parent="1" vertex="1">
          <mxGeometry x="185" y="374" width="84" height="45" as="geometry" />
        </mxCell>
        <mxCell id="VwzzKHE0yYVzYCcpCROz-17" value="See HLTB data" style="ellipse;whiteSpace=wrap;html=1;fillColor=#93E9BE;" parent="1" vertex="1">
          <mxGeometry x="185" y="322" width="75" height="37" as="geometry" />
        </mxCell>
        <mxCell id="VwzzKHE0yYVzYCcpCROz-19" value="Search items" style="ellipse;whiteSpace=wrap;html=1;fillColor=#93E9BE;" parent="1" vertex="1">
          <mxGeometry x="212" y="40" width="53" height="38" as="geometry" />
        </mxCell>
        <mxCell id="VwzzKHE0yYVzYCcpCROz-20" value="Add item to wishlist" style="ellipse;whiteSpace=wrap;html=1;fillColor=#93E9BE;" parent="1" vertex="1">
          <mxGeometry x="268" y="40" width="71" height="41" as="geometry" />
        </mxCell>
        <mxCell id="VwzzKHE0yYVzYCcpCROz-21" value="Sort items" style="ellipse;whiteSpace=wrap;html=1;fillColor=#93E9BE;" parent="1" vertex="1">
          <mxGeometry x="405" y="71" width="60" height="31.5" as="geometry" />
        </mxCell>
        <mxCell id="VwzzKHE0yYVzYCcpCROz-23" value="Add item" style="ellipse;whiteSpace=wrap;html=1;fillColor=#93E9BE;" parent="1" vertex="1">
          <mxGeometry x="305" y="263" width="55" height="35" as="geometry" />
        </mxCell>
        <mxCell id="VwzzKHE0yYVzYCcpCROz-24" value="See a specific item" style="ellipse;whiteSpace=wrap;html=1;fillColor=#93E9BE;" parent="1" vertex="1">
          <mxGeometry x="428" y="241" width="87" height="52" as="geometry" />
        </mxCell>
        <mxCell id="VwzzKHE0yYVzYCcpCROz-25" value="Filter items" style="ellipse;whiteSpace=wrap;html=1;fillColor=#93E9BE;" parent="1" vertex="1">
          <mxGeometry x="342" y="56" width="68" height="28" as="geometry" />
        </mxCell>
        <mxCell id="VwzzKHE0yYVzYCcpCROz-26" value="Authenticate" style="ellipse;whiteSpace=wrap;html=1;fillColor=#93E9BE;" parent="1" vertex="1">
          <mxGeometry x="144" y="261.5" width="74" height="38" as="geometry" />
        </mxCell>
        <mxCell id="VwzzKHE0yYVzYCcpCROz-27" value="Default media information" style="ellipse;whiteSpace=wrap;html=1;fillColor=#93E9BE;" parent="1" vertex="1">
          <mxGeometry x="451" y="88" width="87" height="48" as="geometry" />
        </mxCell>
        <mxCell id="VwzzKHE0yYVzYCcpCROz-29" value="I&lt;span style=&quot;background-color: transparent; color: light-dark(rgb(0, 0, 0), rgb(255, 255, 255));&quot;&gt;mport MyAnimeList&lt;/span&gt;" style="ellipse;whiteSpace=wrap;html=1;fillColor=#93E9BE;" parent="1" vertex="1">
          <mxGeometry x="190" y="480" width="84" height="48" as="geometry" />
        </mxCell>
        <mxCell id="hE1uLpY8pdl3LpGOHrMp-1" value="Guest account" style="ellipse;whiteSpace=wrap;html=1;fillColor=#93E9BE;" parent="1" vertex="1">
          <mxGeometry x="527" y="116" width="84" height="48" as="geometry" />
        </mxCell>
        <mxCell id="hE1uLpY8pdl3LpGOHrMp-2" value="See recommendations" style="ellipse;whiteSpace=wrap;html=1;fillColor=#93E9BE;" parent="1" vertex="1">
          <mxGeometry x="501" y="166" width="146" height="46" as="geometry" />
        </mxCell>
        <mxCell id="ONKL1B5WzflWAo1W0BEB-1" value="Add notes" style="ellipse;whiteSpace=wrap;html=1;fillColor=#93E9BE;" parent="1" vertex="1">
          <mxGeometry x="363" y="255.5" width="62" height="40" as="geometry" />
        </mxCell>
        <mxCell id="ONKL1B5WzflWAo1W0BEB-2" value="Report errors" style="ellipse;whiteSpace=wrap;html=1;fillColor=#93E9BE;" parent="1" vertex="1">
          <mxGeometry x="220" y="265" width="81" height="33" as="geometry" />
        </mxCell>
        <mxCell id="ONKL1B5WzflWAo1W0BEB-3" value="See reviews from critics" style="ellipse;whiteSpace=wrap;html=1;fillColor=#93E9BE;" parent="1" vertex="1">
          <mxGeometry x="501" y="216" width="113" height="43" as="geometry" />
        </mxCell>
        <mxCell id="ONKL1B5WzflWAo1W0BEB-22" value="" style="endArrow=none;html=1;rounded=0;entryX=0;entryY=0.5;entryDx=0;entryDy=0;" parent="1" target="VwzzKHE0yYVzYCcpCROz-17" edge="1">
          <mxGeometry width="50" height="50" relative="1" as="geometry">
            <mxPoint x="123" y="363" as="sourcePoint" />
            <mxPoint x="173" y="313" as="targetPoint" />
          </mxGeometry>
        </mxCell>
        <mxCell id="ONKL1B5WzflWAo1W0BEB-23" value="" style="endArrow=none;html=1;rounded=0;entryX=0;entryY=0.5;entryDx=0;entryDy=0;" parent="1" target="VwzzKHE0yYVzYCcpCROz-16" edge="1">
          <mxGeometry width="50" height="50" relative="1" as="geometry">
            <mxPoint x="123" y="363" as="sourcePoint" />
            <mxPoint x="397" y="407" as="targetPoint" />
          </mxGeometry>
        </mxCell>
        <mxCell id="ONKL1B5WzflWAo1W0BEB-25" value="" style="endArrow=none;html=1;rounded=0;entryX=0;entryY=0.5;entryDx=0;entryDy=0;" parent="1" target="VwzzKHE0yYVzYCcpCROz-29" edge="1">
          <mxGeometry width="50" height="50" relative="1" as="geometry">
            <mxPoint x="123" y="554" as="sourcePoint" />
            <mxPoint x="197" y="516.5" as="targetPoint" />
          </mxGeometry>
        </mxCell>
        <mxCell id="ONKL1B5WzflWAo1W0BEB-7" value="" style="endArrow=none;html=1;rounded=0;entryX=0.5;entryY=1;entryDx=0;entryDy=0;" parent="1" target="VwzzKHE0yYVzYCcpCROz-14" edge="1">
          <mxGeometry width="50" height="50" relative="1" as="geometry">
            <mxPoint x="123" y="166" as="sourcePoint" />
            <mxPoint x="172" y="116" as="targetPoint" />
          </mxGeometry>
        </mxCell>
        <mxCell id="ONKL1B5WzflWAo1W0BEB-8" value="" style="endArrow=none;html=1;rounded=0;entryX=0;entryY=1;entryDx=0;entryDy=0;" parent="1" target="VwzzKHE0yYVzYCcpCROz-19" edge="1">
          <mxGeometry width="50" height="50" relative="1" as="geometry">
            <mxPoint x="123" y="166" as="sourcePoint" />
            <mxPoint x="172" y="117" as="targetPoint" />
          </mxGeometry>
        </mxCell>
        <mxCell id="ONKL1B5WzflWAo1W0BEB-9" value="" style="endArrow=none;html=1;rounded=0;entryX=0.5;entryY=1;entryDx=0;entryDy=0;" parent="1" target="VwzzKHE0yYVzYCcpCROz-20" edge="1">
          <mxGeometry width="50" height="50" relative="1" as="geometry">
            <mxPoint x="123" y="166" as="sourcePoint" />
            <mxPoint x="172" y="116" as="targetPoint" />
          </mxGeometry>
        </mxCell>
        <mxCell id="ONKL1B5WzflWAo1W0BEB-10" value="" style="endArrow=none;html=1;rounded=0;entryX=0.291;entryY=0.964;entryDx=0;entryDy=0;entryPerimeter=0;" parent="1" target="VwzzKHE0yYVzYCcpCROz-25" edge="1">
          <mxGeometry width="50" height="50" relative="1" as="geometry">
            <mxPoint x="123" y="166" as="sourcePoint" />
            <mxPoint x="360" y="81" as="targetPoint" />
          </mxGeometry>
        </mxCell>
        <mxCell id="ONKL1B5WzflWAo1W0BEB-11" value="" style="endArrow=none;html=1;rounded=0;entryX=0;entryY=1;entryDx=0;entryDy=0;" parent="1" target="VwzzKHE0yYVzYCcpCROz-21" edge="1">
          <mxGeometry width="50" height="50" relative="1" as="geometry">
            <mxPoint x="123" y="166" as="sourcePoint" />
            <mxPoint x="303" y="81" as="targetPoint" />
          </mxGeometry>
        </mxCell>
        <mxCell id="ONKL1B5WzflWAo1W0BEB-12" value="" style="endArrow=none;html=1;rounded=0;entryX=0.056;entryY=0.725;entryDx=0;entryDy=0;entryPerimeter=0;" parent="1" target="VwzzKHE0yYVzYCcpCROz-27" edge="1">
          <mxGeometry width="50" height="50" relative="1" as="geometry">
            <mxPoint x="123" y="166" as="sourcePoint" />
            <mxPoint x="303" y="81" as="targetPoint" />
          </mxGeometry>
        </mxCell>
        <mxCell id="ONKL1B5WzflWAo1W0BEB-13" value="" style="endArrow=none;html=1;rounded=0;entryX=0;entryY=0.5;entryDx=0;entryDy=0;" parent="1" target="hE1uLpY8pdl3LpGOHrMp-1" edge="1">
          <mxGeometry width="50" height="50" relative="1" as="geometry">
            <mxPoint x="123" y="166" as="sourcePoint" />
            <mxPoint x="301" y="81" as="targetPoint" />
          </mxGeometry>
        </mxCell>
        <mxCell id="ONKL1B5WzflWAo1W0BEB-14" value="" style="endArrow=none;html=1;rounded=0;entryX=0;entryY=0.5;entryDx=0;entryDy=0;" parent="1" target="hE1uLpY8pdl3LpGOHrMp-2" edge="1">
          <mxGeometry width="50" height="50" relative="1" as="geometry">
            <mxPoint x="123" y="166" as="sourcePoint" />
            <mxPoint x="376" y="178" as="targetPoint" />
          </mxGeometry>
        </mxCell>
        <mxCell id="ONKL1B5WzflWAo1W0BEB-15" value="" style="endArrow=none;html=1;rounded=0;" parent="1" target="ONKL1B5WzflWAo1W0BEB-3" edge="1">
          <mxGeometry width="50" height="50" relative="1" as="geometry">
            <mxPoint x="123" y="166" as="sourcePoint" />
            <mxPoint x="390" y="156" as="targetPoint" />
          </mxGeometry>
        </mxCell>
        <mxCell id="ONKL1B5WzflWAo1W0BEB-16" value="" style="endArrow=none;html=1;rounded=0;entryX=0;entryY=0;entryDx=0;entryDy=0;" parent="1" target="VwzzKHE0yYVzYCcpCROz-24" edge="1">
          <mxGeometry width="50" height="50" relative="1" as="geometry">
            <mxPoint x="123" y="166" as="sourcePoint" />
            <mxPoint x="397" y="189" as="targetPoint" />
          </mxGeometry>
        </mxCell>
        <mxCell id="ONKL1B5WzflWAo1W0BEB-17" value="" style="endArrow=none;html=1;rounded=0;" parent="1" edge="1">
          <mxGeometry width="50" height="50" relative="1" as="geometry">
            <mxPoint x="123" y="166" as="sourcePoint" />
            <mxPoint x="378" y="259" as="targetPoint" />
          </mxGeometry>
        </mxCell>
        <mxCell id="ONKL1B5WzflWAo1W0BEB-18" value="" style="endArrow=none;html=1;rounded=0;entryX=0.328;entryY=0.025;entryDx=0;entryDy=0;entryPerimeter=0;" parent="1" target="VwzzKHE0yYVzYCcpCROz-23" edge="1">
          <mxGeometry width="50" height="50" relative="1" as="geometry">
            <mxPoint x="123" y="166" as="sourcePoint" />
            <mxPoint x="259" y="191.5" as="targetPoint" />
          </mxGeometry>
        </mxCell>
        <mxCell id="ONKL1B5WzflWAo1W0BEB-19" value="" style="endArrow=none;html=1;rounded=0;entryX=0.5;entryY=0;entryDx=0;entryDy=0;" parent="1" target="ONKL1B5WzflWAo1W0BEB-2" edge="1">
          <mxGeometry width="50" height="50" relative="1" as="geometry">
            <mxPoint x="123" y="166" as="sourcePoint" />
            <mxPoint x="312" y="174" as="targetPoint" />
          </mxGeometry>
        </mxCell>
        <mxCell id="ONKL1B5WzflWAo1W0BEB-20" value="" style="endArrow=none;html=1;rounded=0;entryX=0.5;entryY=0;entryDx=0;entryDy=0;" parent="1" target="VwzzKHE0yYVzYCcpCROz-26" edge="1">
          <mxGeometry width="50" height="50" relative="1" as="geometry">
            <mxPoint x="123" y="166" as="sourcePoint" />
            <mxPoint x="312" y="174" as="targetPoint" />
          </mxGeometry>
        </mxCell>
        <mxCell id="ONKL1B5WzflWAo1W0BEB-26" value="" style="endArrow=none;html=1;rounded=0;entryX=0;entryY=0.5;entryDx=0;entryDy=0;" parent="1" target="VwzzKHE0yYVzYCcpCROz-29" edge="1">
          <mxGeometry width="50" height="50" relative="1" as="geometry">
            <mxPoint x="123" y="459" as="sourcePoint" />
            <mxPoint x="235" y="464" as="targetPoint" />
          </mxGeometry>
        </mxCell>
        <mxCell id="ONKL1B5WzflWAo1W0BEB-28" value="" style="endArrow=none;html=1;rounded=0;entryX=0;entryY=0.5;entryDx=0;entryDy=0;" parent="1" target="VwzzKHE0yYVzYCcpCROz-13" edge="1">
          <mxGeometry width="50" height="50" relative="1" as="geometry">
            <mxPoint x="442" y="364" as="sourcePoint" />
            <mxPoint x="504" y="391" as="targetPoint" />
          </mxGeometry>
        </mxCell>
        <mxCell id="ONKL1B5WzflWAo1W0BEB-29" value="" style="endArrow=none;html=1;rounded=0;entryX=0;entryY=0.5;entryDx=0;entryDy=0;" parent="1" target="VwzzKHE0yYVzYCcpCROz-12" edge="1">
          <mxGeometry width="50" height="50" relative="1" as="geometry">
            <mxPoint x="442" y="460" as="sourcePoint" />
            <mxPoint x="519" y="456.5" as="targetPoint" />
          </mxGeometry>
        </mxCell>
        <mxCell id="ONKL1B5WzflWAo1W0BEB-30" value="" style="endArrow=none;html=1;rounded=0;entryX=0;entryY=0.5;entryDx=0;entryDy=0;" parent="1" edge="1">
          <mxGeometry width="50" height="50" relative="1" as="geometry">
            <mxPoint x="442" y="559" as="sourcePoint" />
            <mxPoint x="498" y="559" as="targetPoint" />
          </mxGeometry>
        </mxCell>
      </root>
    </mxGraphModel>
  </diagram>
  <diagram name="Conceptual Diagram" id="Vrbd7U3_L532gnZpseH6">
    <mxGraphModel dx="1737" dy="878" grid="0" gridSize="10" guides="1" tooltips="1" connect="1" arrows="1" fold="1" page="1" pageScale="1" pageWidth="3300" pageHeight="4681" math="0" shadow="0">
      <root>
        <mxCell id="0" />
        <mxCell id="1" parent="0" />
        <mxCell id="4Tz1QgMG0tnROPCaAri1-5" value="Book" style="swimlane;childLayout=stackLayout;horizontal=1;startSize=40;horizontalStack=0;rounded=1;fontSize=14;fontStyle=0;strokeWidth=2;resizeParent=0;resizeLast=1;shadow=0;dashed=0;align=center;arcSize=4;whiteSpace=wrap;html=1;fontFamily=Helvetica;" vertex="1" parent="1">
          <mxGeometry x="962" y="309" width="140" height="51" as="geometry" />
        </mxCell>
        <mxCell id="4Tz1QgMG0tnROPCaAri1-6" style="edgeStyle=orthogonalEdgeStyle;rounded=1;orthogonalLoop=1;jettySize=auto;html=1;exitX=0.5;exitY=1;exitDx=0;exitDy=0;" edge="1" parent="4Tz1QgMG0tnROPCaAri1-5">
          <mxGeometry relative="1" as="geometry">
            <mxPoint x="70" y="69.99999999999989" as="sourcePoint" />
            <mxPoint x="70" y="69.99999999999989" as="targetPoint" />
          </mxGeometry>
        </mxCell>
        <mxCell id="4Tz1QgMG0tnROPCaAri1-7" value="Movie" style="swimlane;childLayout=stackLayout;horizontal=1;startSize=40;horizontalStack=0;rounded=1;fontSize=14;fontStyle=0;strokeWidth=2;resizeParent=0;resizeLast=1;shadow=0;dashed=0;align=center;arcSize=4;whiteSpace=wrap;html=1;fontFamily=Helvetica;movable=1;resizable=1;rotatable=1;deletable=1;editable=1;locked=0;connectable=1;" vertex="1" parent="1">
          <mxGeometry x="962" y="378" width="140" height="52" as="geometry" />
        </mxCell>
        <mxCell id="4Tz1QgMG0tnROPCaAri1-8" style="edgeStyle=orthogonalEdgeStyle;rounded=1;orthogonalLoop=1;jettySize=auto;html=1;exitX=0.5;exitY=1;exitDx=0;exitDy=0;" edge="1" parent="4Tz1QgMG0tnROPCaAri1-7">
          <mxGeometry relative="1" as="geometry">
            <mxPoint x="70" y="70" as="sourcePoint" />
            <mxPoint x="70" y="70" as="targetPoint" />
          </mxGeometry>
        </mxCell>
        <mxCell id="4Tz1QgMG0tnROPCaAri1-9" value="Game" style="swimlane;childLayout=stackLayout;horizontal=1;startSize=40;horizontalStack=0;rounded=1;fontSize=14;fontStyle=0;strokeWidth=2;resizeParent=0;resizeLast=1;shadow=0;dashed=0;align=center;arcSize=4;whiteSpace=wrap;html=1;fontFamily=Helvetica;" vertex="1" parent="1">
          <mxGeometry x="962" y="239" width="140" height="50" as="geometry" />
        </mxCell>
        <mxCell id="4Tz1QgMG0tnROPCaAri1-10" style="edgeStyle=orthogonalEdgeStyle;rounded=1;orthogonalLoop=1;jettySize=auto;html=1;exitX=0.5;exitY=1;exitDx=0;exitDy=0;" edge="1" parent="4Tz1QgMG0tnROPCaAri1-9">
          <mxGeometry relative="1" as="geometry">
            <mxPoint x="70" y="70" as="sourcePoint" />
            <mxPoint x="70" y="70" as="targetPoint" />
          </mxGeometry>
        </mxCell>
        <mxCell id="4Tz1QgMG0tnROPCaAri1-11" value="TV_Series" style="swimlane;childLayout=stackLayout;horizontal=1;startSize=40;horizontalStack=0;rounded=1;fontSize=14;fontStyle=0;strokeWidth=2;resizeParent=0;resizeLast=1;shadow=0;dashed=0;align=center;arcSize=4;whiteSpace=wrap;html=1;fontFamily=Helvetica;" vertex="1" parent="1">
          <mxGeometry x="962" y="448.5" width="140" height="53" as="geometry" />
        </mxCell>
        <mxCell id="4Tz1QgMG0tnROPCaAri1-12" style="edgeStyle=orthogonalEdgeStyle;rounded=1;orthogonalLoop=1;jettySize=auto;html=1;exitX=0.5;exitY=1;exitDx=0;exitDy=0;" edge="1" parent="4Tz1QgMG0tnROPCaAri1-11">
          <mxGeometry relative="1" as="geometry">
            <mxPoint x="70" y="70" as="sourcePoint" />
            <mxPoint x="70" y="70" as="targetPoint" />
          </mxGeometry>
        </mxCell>
        <mxCell id="4Tz1QgMG0tnROPCaAri1-13" value="Season" style="swimlane;childLayout=stackLayout;horizontal=1;startSize=40;horizontalStack=0;rounded=1;fontSize=14;fontStyle=0;strokeWidth=2;resizeParent=0;resizeLast=1;shadow=0;dashed=0;align=center;arcSize=4;whiteSpace=wrap;html=1;fontFamily=Helvetica;" vertex="1" parent="1">
          <mxGeometry x="1209" y="441" width="140" height="83" as="geometry" />
        </mxCell>
        <mxCell id="4Tz1QgMG0tnROPCaAri1-14" value="&lt;div&gt;&lt;span style=&quot;font-size: 14px;&quot;&gt;tv_series_id#&lt;/span&gt;&lt;span style=&quot;font-size: 14px;&quot;&gt;&lt;br&gt;&lt;/span&gt;&lt;/div&gt;&lt;span style=&quot;font-size: 14px;&quot;&gt;season_id#&lt;/span&gt;" style="align=left;strokeColor=none;fillColor=none;spacingLeft=4;fontSize=12;verticalAlign=top;resizable=0;rotatable=0;part=1;html=1;rounded=1;" vertex="1" parent="4Tz1QgMG0tnROPCaAri1-13">
          <mxGeometry y="40" width="140" height="43" as="geometry" />
        </mxCell>
        <mxCell id="4Tz1QgMG0tnROPCaAri1-15" style="edgeStyle=orthogonalEdgeStyle;rounded=1;orthogonalLoop=1;jettySize=auto;html=1;exitX=0.5;exitY=1;exitDx=0;exitDy=0;" edge="1" parent="4Tz1QgMG0tnROPCaAri1-13" source="4Tz1QgMG0tnROPCaAri1-14" target="4Tz1QgMG0tnROPCaAri1-14">
          <mxGeometry relative="1" as="geometry" />
        </mxCell>
        <mxCell id="4Tz1QgMG0tnROPCaAri1-16" value="Genre" style="swimlane;childLayout=stackLayout;horizontal=1;startSize=40;horizontalStack=0;rounded=1;fontSize=14;fontStyle=0;strokeWidth=2;resizeParent=0;resizeLast=1;shadow=0;dashed=0;align=center;arcSize=4;whiteSpace=wrap;html=1;fontFamily=Helvetica;" vertex="1" parent="1">
          <mxGeometry x="487" y="944" width="140" height="70" as="geometry" />
        </mxCell>
        <mxCell id="4Tz1QgMG0tnROPCaAri1-17" value="&lt;span style=&quot;font-size: 14px;&quot;&gt;genre_id#&lt;/span&gt;" style="align=left;strokeColor=none;fillColor=none;spacingLeft=4;fontSize=12;verticalAlign=top;resizable=0;rotatable=0;part=1;html=1;rounded=1;" vertex="1" parent="4Tz1QgMG0tnROPCaAri1-16">
          <mxGeometry y="40" width="140" height="30" as="geometry" />
        </mxCell>
        <mxCell id="4Tz1QgMG0tnROPCaAri1-18" style="edgeStyle=orthogonalEdgeStyle;rounded=1;orthogonalLoop=1;jettySize=auto;html=1;exitX=0.5;exitY=1;exitDx=0;exitDy=0;" edge="1" parent="4Tz1QgMG0tnROPCaAri1-16" source="4Tz1QgMG0tnROPCaAri1-17" target="4Tz1QgMG0tnROPCaAri1-17">
          <mxGeometry relative="1" as="geometry" />
        </mxCell>
        <mxCell id="4Tz1QgMG0tnROPCaAri1-19" value="UserTag" style="swimlane;childLayout=stackLayout;horizontal=1;startSize=40;horizontalStack=0;rounded=1;fontSize=14;fontStyle=0;strokeWidth=2;resizeParent=0;resizeLast=1;shadow=0;dashed=0;align=center;arcSize=4;whiteSpace=wrap;html=1;fontFamily=Helvetica;" vertex="1" parent="1">
          <mxGeometry x="407" y="566.25" width="140" height="70" as="geometry" />
        </mxCell>
        <mxCell id="4Tz1QgMG0tnROPCaAri1-20" value="&lt;span style=&quot;font-size: 14px;&quot;&gt;tag_id#&lt;/span&gt;" style="align=left;strokeColor=none;fillColor=none;spacingLeft=4;fontSize=12;verticalAlign=top;resizable=0;rotatable=0;part=1;html=1;rounded=1;" vertex="1" parent="4Tz1QgMG0tnROPCaAri1-19">
          <mxGeometry y="40" width="140" height="30" as="geometry" />
        </mxCell>
        <mxCell id="4Tz1QgMG0tnROPCaAri1-21" style="edgeStyle=orthogonalEdgeStyle;rounded=1;orthogonalLoop=1;jettySize=auto;html=1;exitX=0.5;exitY=1;exitDx=0;exitDy=0;" edge="1" parent="4Tz1QgMG0tnROPCaAri1-19" source="4Tz1QgMG0tnROPCaAri1-20" target="4Tz1QgMG0tnROPCaAri1-20">
          <mxGeometry relative="1" as="geometry" />
        </mxCell>
        <mxCell id="4Tz1QgMG0tnROPCaAri1-22" value="User" style="swimlane;childLayout=stackLayout;horizontal=1;startSize=40;horizontalStack=0;rounded=1;fontSize=14;fontStyle=0;strokeWidth=2;resizeParent=0;resizeLast=1;shadow=0;dashed=0;align=center;arcSize=4;whiteSpace=wrap;html=1;fontFamily=Helvetica;" vertex="1" parent="1">
          <mxGeometry x="407" y="441" width="140" height="66.5" as="geometry" />
        </mxCell>
        <mxCell id="4Tz1QgMG0tnROPCaAri1-23" value="&lt;span style=&quot;font-size: 14px;&quot;&gt;user_id#&lt;br&gt;&lt;/span&gt;" style="align=left;strokeColor=none;fillColor=none;spacingLeft=4;fontSize=12;verticalAlign=top;resizable=0;rotatable=0;part=1;html=1;rounded=1;" vertex="1" parent="4Tz1QgMG0tnROPCaAri1-22">
          <mxGeometry y="40" width="140" height="26.5" as="geometry" />
        </mxCell>
        <mxCell id="4Tz1QgMG0tnROPCaAri1-24" style="edgeStyle=orthogonalEdgeStyle;rounded=1;orthogonalLoop=1;jettySize=auto;html=1;exitX=0.5;exitY=1;exitDx=0;exitDy=0;" edge="1" parent="4Tz1QgMG0tnROPCaAri1-22" source="4Tz1QgMG0tnROPCaAri1-23" target="4Tz1QgMG0tnROPCaAri1-23">
          <mxGeometry relative="1" as="geometry" />
        </mxCell>
        <mxCell id="4Tz1QgMG0tnROPCaAri1-25" value="Game_Achievement" style="swimlane;childLayout=stackLayout;horizontal=1;startSize=40;horizontalStack=0;rounded=1;fontSize=14;fontStyle=0;strokeWidth=2;resizeParent=0;resizeLast=1;shadow=0;dashed=0;align=center;arcSize=4;whiteSpace=wrap;html=1;fontFamily=Helvetica;" vertex="1" parent="1">
          <mxGeometry x="1209" y="222.25" width="168" height="83.5" as="geometry" />
        </mxCell>
        <mxCell id="4Tz1QgMG0tnROPCaAri1-26" value="&lt;div&gt;&lt;span style=&quot;font-size: 14px;&quot;&gt;game_id#&lt;/span&gt;&lt;/div&gt;&lt;span style=&quot;font-size: 14px;&quot;&gt;game_achievement_id#&lt;/span&gt;" style="align=left;strokeColor=none;fillColor=none;spacingLeft=4;fontSize=12;verticalAlign=top;resizable=0;rotatable=0;part=1;html=1;rounded=1;" vertex="1" parent="4Tz1QgMG0tnROPCaAri1-25">
          <mxGeometry y="40" width="168" height="43.5" as="geometry" />
        </mxCell>
        <mxCell id="4Tz1QgMG0tnROPCaAri1-27" style="edgeStyle=orthogonalEdgeStyle;rounded=1;orthogonalLoop=1;jettySize=auto;html=1;exitX=0.5;exitY=1;exitDx=0;exitDy=0;" edge="1" parent="4Tz1QgMG0tnROPCaAri1-25" source="4Tz1QgMG0tnROPCaAri1-26" target="4Tz1QgMG0tnROPCaAri1-26">
          <mxGeometry relative="1" as="geometry" />
        </mxCell>
        <mxCell id="4Tz1QgMG0tnROPCaAri1-28" value="UserAchievements" style="swimlane;childLayout=stackLayout;horizontal=1;startSize=40;horizontalStack=0;rounded=1;fontSize=14;fontStyle=0;strokeWidth=2;resizeParent=0;resizeLast=1;shadow=0;dashed=1;align=center;arcSize=4;whiteSpace=wrap;html=1;fontFamily=Helvetica;" vertex="1" parent="1">
          <mxGeometry x="197" y="434" width="140" height="90" as="geometry" />
        </mxCell>
        <mxCell id="4Tz1QgMG0tnROPCaAri1-29" value="&lt;span style=&quot;font-size: 14px;&quot;&gt;user_id#&lt;br&gt;achievement_id#&lt;br&gt;&lt;br&gt;&lt;/span&gt;" style="align=left;strokeColor=none;fillColor=none;spacingLeft=4;fontSize=12;verticalAlign=top;resizable=0;rotatable=0;part=1;html=1;rounded=1;" vertex="1" parent="4Tz1QgMG0tnROPCaAri1-28">
          <mxGeometry y="40" width="140" height="50" as="geometry" />
        </mxCell>
        <mxCell id="4Tz1QgMG0tnROPCaAri1-30" style="edgeStyle=orthogonalEdgeStyle;rounded=1;orthogonalLoop=1;jettySize=auto;html=1;exitX=0.5;exitY=1;exitDx=0;exitDy=0;" edge="1" parent="4Tz1QgMG0tnROPCaAri1-28" source="4Tz1QgMG0tnROPCaAri1-29" target="4Tz1QgMG0tnROPCaAri1-29">
          <mxGeometry relative="1" as="geometry" />
        </mxCell>
        <mxCell id="4Tz1QgMG0tnROPCaAri1-31" value="AppAchievement" style="swimlane;childLayout=stackLayout;horizontal=1;startSize=40;horizontalStack=0;rounded=1;fontSize=14;fontStyle=0;strokeWidth=2;resizeParent=0;resizeLast=1;shadow=0;dashed=0;align=center;arcSize=4;whiteSpace=wrap;html=1;fontFamily=Helvetica;" vertex="1" parent="1">
          <mxGeometry x="190" y="317.5" width="150" height="70" as="geometry" />
        </mxCell>
        <mxCell id="4Tz1QgMG0tnROPCaAri1-32" value="&lt;span style=&quot;font-size: 14px;&quot;&gt;app_achievement_id#&lt;/span&gt;" style="align=left;strokeColor=none;fillColor=none;spacingLeft=4;fontSize=12;verticalAlign=top;resizable=0;rotatable=0;part=1;html=1;rounded=1;" vertex="1" parent="4Tz1QgMG0tnROPCaAri1-31">
          <mxGeometry y="40" width="150" height="30" as="geometry" />
        </mxCell>
        <mxCell id="4Tz1QgMG0tnROPCaAri1-33" style="edgeStyle=orthogonalEdgeStyle;rounded=1;orthogonalLoop=1;jettySize=auto;html=1;exitX=0.5;exitY=1;exitDx=0;exitDy=0;" edge="1" parent="4Tz1QgMG0tnROPCaAri1-31" source="4Tz1QgMG0tnROPCaAri1-32" target="4Tz1QgMG0tnROPCaAri1-32">
          <mxGeometry relative="1" as="geometry" />
        </mxCell>
        <mxCell id="4Tz1QgMG0tnROPCaAri1-34" value="Note" style="swimlane;childLayout=stackLayout;horizontal=1;startSize=40;horizontalStack=0;rounded=1;fontSize=14;fontStyle=0;strokeWidth=2;resizeParent=0;resizeLast=1;shadow=0;dashed=1;align=center;arcSize=4;whiteSpace=wrap;html=1;fontFamily=Helvetica;" vertex="1" parent="1">
          <mxGeometry x="617" y="220" width="140" height="66.5" as="geometry" />
        </mxCell>
        <mxCell id="4Tz1QgMG0tnROPCaAri1-35" value="&lt;span style=&quot;font-size: 14px;&quot;&gt;note_id#&lt;br&gt;&lt;/span&gt;" style="align=left;strokeColor=none;fillColor=none;spacingLeft=4;fontSize=12;verticalAlign=top;resizable=0;rotatable=0;part=1;html=1;rounded=1;" vertex="1" parent="4Tz1QgMG0tnROPCaAri1-34">
          <mxGeometry y="40" width="140" height="26.5" as="geometry" />
        </mxCell>
        <mxCell id="4Tz1QgMG0tnROPCaAri1-36" style="edgeStyle=orthogonalEdgeStyle;rounded=1;orthogonalLoop=1;jettySize=auto;html=1;exitX=0.5;exitY=1;exitDx=0;exitDy=0;" edge="1" parent="4Tz1QgMG0tnROPCaAri1-34" source="4Tz1QgMG0tnROPCaAri1-35" target="4Tz1QgMG0tnROPCaAri1-35">
          <mxGeometry relative="1" as="geometry" />
        </mxCell>
        <mxCell id="4Tz1QgMG0tnROPCaAri1-37" value="Wishlist" style="swimlane;childLayout=stackLayout;horizontal=1;startSize=40;horizontalStack=0;rounded=1;fontSize=14;fontStyle=0;strokeWidth=2;resizeParent=0;resizeLast=1;shadow=0;dashed=1;align=center;arcSize=4;whiteSpace=wrap;html=1;fontFamily=Helvetica;" vertex="1" parent="1">
          <mxGeometry x="617" y="417.5" width="140" height="90" as="geometry" />
        </mxCell>
        <mxCell id="4Tz1QgMG0tnROPCaAri1-38" value="&lt;div&gt;&lt;span style=&quot;font-size: 14px;&quot;&gt;media_id#&lt;/span&gt;&lt;span style=&quot;font-size: 14px;&quot;&gt;&lt;br&gt;&lt;/span&gt;&lt;/div&gt;&lt;span style=&quot;font-size: 14px;&quot;&gt;user_id#&lt;/span&gt;" style="align=left;strokeColor=none;fillColor=none;spacingLeft=4;fontSize=12;verticalAlign=top;resizable=0;rotatable=0;part=1;html=1;rounded=1;dashed=1;" vertex="1" parent="4Tz1QgMG0tnROPCaAri1-37">
          <mxGeometry y="40" width="140" height="50" as="geometry" />
        </mxCell>
        <mxCell id="4Tz1QgMG0tnROPCaAri1-39" style="edgeStyle=orthogonalEdgeStyle;rounded=1;orthogonalLoop=1;jettySize=auto;html=1;exitX=0.5;exitY=1;exitDx=0;exitDy=0;" edge="1" parent="4Tz1QgMG0tnROPCaAri1-37" source="4Tz1QgMG0tnROPCaAri1-38" target="4Tz1QgMG0tnROPCaAri1-38">
          <mxGeometry relative="1" as="geometry" />
        </mxCell>
        <mxCell id="4Tz1QgMG0tnROPCaAri1-40" value="Platform" style="swimlane;childLayout=stackLayout;horizontal=1;startSize=40;horizontalStack=0;rounded=1;fontSize=14;fontStyle=0;strokeWidth=2;resizeParent=0;resizeLast=1;shadow=0;dashed=0;align=center;arcSize=4;whiteSpace=wrap;html=1;fontFamily=Helvetica;" vertex="1" parent="1">
          <mxGeometry x="1237" y="944" width="140" height="70" as="geometry" />
        </mxCell>
        <mxCell id="4Tz1QgMG0tnROPCaAri1-41" value="&lt;span style=&quot;font-size: 14px;&quot;&gt;platform_id#&lt;br&gt;&lt;/span&gt;" style="align=left;strokeColor=none;fillColor=none;spacingLeft=4;fontSize=12;verticalAlign=top;resizable=0;rotatable=0;part=1;html=1;rounded=1;" vertex="1" parent="4Tz1QgMG0tnROPCaAri1-40">
          <mxGeometry y="40" width="140" height="30" as="geometry" />
        </mxCell>
        <mxCell id="4Tz1QgMG0tnROPCaAri1-42" style="edgeStyle=orthogonalEdgeStyle;rounded=1;orthogonalLoop=1;jettySize=auto;html=1;exitX=0.5;exitY=1;exitDx=0;exitDy=0;" edge="1" parent="4Tz1QgMG0tnROPCaAri1-40" source="4Tz1QgMG0tnROPCaAri1-41" target="4Tz1QgMG0tnROPCaAri1-41">
          <mxGeometry relative="1" as="geometry" />
        </mxCell>
        <mxCell id="4Tz1QgMG0tnROPCaAri1-43" value="Publisher" style="swimlane;childLayout=stackLayout;horizontal=1;startSize=40;horizontalStack=0;rounded=1;fontSize=14;fontStyle=0;strokeWidth=2;resizeParent=0;resizeLast=1;shadow=0;dashed=0;align=center;arcSize=4;whiteSpace=wrap;html=1;fontFamily=Helvetica;" vertex="1" parent="1">
          <mxGeometry x="937" y="944" width="140" height="70" as="geometry" />
        </mxCell>
        <mxCell id="4Tz1QgMG0tnROPCaAri1-44" value="&lt;span style=&quot;font-size: 14px;&quot;&gt;publisher_id#&lt;/span&gt;" style="align=left;strokeColor=none;fillColor=none;spacingLeft=4;fontSize=12;verticalAlign=top;resizable=0;rotatable=0;part=1;html=1;rounded=1;" vertex="1" parent="4Tz1QgMG0tnROPCaAri1-43">
          <mxGeometry y="40" width="140" height="30" as="geometry" />
        </mxCell>
        <mxCell id="4Tz1QgMG0tnROPCaAri1-45" style="edgeStyle=orthogonalEdgeStyle;rounded=1;orthogonalLoop=1;jettySize=auto;html=1;exitX=0.5;exitY=1;exitDx=0;exitDy=0;" edge="1" parent="4Tz1QgMG0tnROPCaAri1-43" source="4Tz1QgMG0tnROPCaAri1-44" target="4Tz1QgMG0tnROPCaAri1-44">
          <mxGeometry relative="1" as="geometry" />
        </mxCell>
        <mxCell id="4Tz1QgMG0tnROPCaAri1-46" value="Creator" style="swimlane;childLayout=stackLayout;horizontal=1;startSize=40;horizontalStack=0;rounded=1;fontSize=14;fontStyle=0;strokeWidth=2;resizeParent=0;resizeLast=1;shadow=0;dashed=0;align=center;arcSize=4;whiteSpace=wrap;html=1;fontFamily=Helvetica;" vertex="1" parent="1">
          <mxGeometry x="1087" y="944" width="140" height="70" as="geometry" />
        </mxCell>
        <mxCell id="4Tz1QgMG0tnROPCaAri1-47" value="&lt;span style=&quot;font-size: 14px;&quot;&gt;creator_id#&lt;/span&gt;" style="align=left;strokeColor=none;fillColor=none;spacingLeft=4;fontSize=12;verticalAlign=top;resizable=0;rotatable=0;part=1;html=1;rounded=1;" vertex="1" parent="4Tz1QgMG0tnROPCaAri1-46">
          <mxGeometry y="40" width="140" height="30" as="geometry" />
        </mxCell>
        <mxCell id="4Tz1QgMG0tnROPCaAri1-48" style="edgeStyle=orthogonalEdgeStyle;rounded=1;orthogonalLoop=1;jettySize=auto;html=1;exitX=0.5;exitY=1;exitDx=0;exitDy=0;" edge="1" parent="4Tz1QgMG0tnROPCaAri1-46" source="4Tz1QgMG0tnROPCaAri1-47" target="4Tz1QgMG0tnROPCaAri1-47">
          <mxGeometry relative="1" as="geometry" />
        </mxCell>
        <mxCell id="4Tz1QgMG0tnROPCaAri1-49" value="Retailer" style="swimlane;childLayout=stackLayout;horizontal=1;startSize=40;horizontalStack=0;rounded=1;fontSize=14;fontStyle=0;strokeWidth=2;resizeParent=0;resizeLast=1;shadow=0;dashed=0;align=center;arcSize=4;whiteSpace=wrap;html=1;fontFamily=Helvetica;" vertex="1" parent="1">
          <mxGeometry x="787" y="944" width="140" height="70" as="geometry" />
        </mxCell>
        <mxCell id="4Tz1QgMG0tnROPCaAri1-50" value="&lt;span style=&quot;font-size: 14px; text-align: center; text-wrap: wrap;&quot;&gt;retailer&lt;/span&gt;&lt;span style=&quot;font-size: 14px;&quot;&gt;_id#&lt;br&gt;&lt;/span&gt;" style="align=left;strokeColor=none;fillColor=none;spacingLeft=4;fontSize=12;verticalAlign=top;resizable=0;rotatable=0;part=1;html=1;rounded=1;" vertex="1" parent="4Tz1QgMG0tnROPCaAri1-49">
          <mxGeometry y="40" width="140" height="30" as="geometry" />
        </mxCell>
        <mxCell id="4Tz1QgMG0tnROPCaAri1-51" style="edgeStyle=orthogonalEdgeStyle;rounded=1;orthogonalLoop=1;jettySize=auto;html=1;exitX=0.5;exitY=1;exitDx=0;exitDy=0;" edge="1" parent="4Tz1QgMG0tnROPCaAri1-49" source="4Tz1QgMG0tnROPCaAri1-50" target="4Tz1QgMG0tnROPCaAri1-50">
          <mxGeometry relative="1" as="geometry" />
        </mxCell>
        <mxCell id="4Tz1QgMG0tnROPCaAri1-52" value="" style="endArrow=none;html=1;rounded=0;" edge="1" parent="1">
          <mxGeometry width="50" height="50" relative="1" as="geometry">
            <mxPoint x="757" y="249.71000000000004" as="sourcePoint" />
            <mxPoint x="832" y="249.71000000000004" as="targetPoint" />
          </mxGeometry>
        </mxCell>
        <mxCell id="4Tz1QgMG0tnROPCaAri1-53" value="" style="endArrow=none;html=1;rounded=0;exitX=0.997;exitY=0.304;exitDx=0;exitDy=0;exitPerimeter=0;entryX=0.006;entryY=0.368;entryDx=0;entryDy=0;entryPerimeter=0;" edge="1" parent="1" source="4Tz1QgMG0tnROPCaAri1-19" target="4Tz1QgMG0tnROPCaAri1-160">
          <mxGeometry width="50" height="50" relative="1" as="geometry">
            <mxPoint x="554" y="587" as="sourcePoint" />
            <mxPoint x="621" y="587.0000000000001" as="targetPoint" />
          </mxGeometry>
        </mxCell>
        <mxCell id="4Tz1QgMG0tnROPCaAri1-54" value="" style="endArrow=none;html=1;rounded=0;" edge="1" parent="1">
          <mxGeometry width="50" height="50" relative="1" as="geometry">
            <mxPoint x="547" y="463.40999999999997" as="sourcePoint" />
            <mxPoint x="617" y="463.0799999999999" as="targetPoint" />
          </mxGeometry>
        </mxCell>
        <mxCell id="4Tz1QgMG0tnROPCaAri1-55" value="" style="endArrow=none;html=1;rounded=0;exitX=0.5;exitY=0;exitDx=0;exitDy=0;" edge="1" parent="1">
          <mxGeometry width="50" height="50" relative="1" as="geometry">
            <mxPoint x="856.5" y="814" as="sourcePoint" />
            <mxPoint x="857" y="707" as="targetPoint" />
          </mxGeometry>
        </mxCell>
        <mxCell id="4Tz1QgMG0tnROPCaAri1-56" value="MediaRetailer" style="swimlane;childLayout=stackLayout;horizontal=1;startSize=40;horizontalStack=0;rounded=1;fontSize=14;fontStyle=0;strokeWidth=2;resizeParent=0;resizeLast=1;shadow=0;dashed=1;align=center;arcSize=4;whiteSpace=wrap;html=1;fontFamily=Helvetica;" vertex="1" parent="1">
          <mxGeometry x="787" y="814" width="140" height="90" as="geometry" />
        </mxCell>
        <mxCell id="4Tz1QgMG0tnROPCaAri1-57" value="&lt;span style=&quot;font-size: 14px;&quot;&gt;media_id#&lt;br&gt;retailer_id#&lt;br&gt;&lt;br&gt;&lt;/span&gt;" style="align=left;strokeColor=none;fillColor=none;spacingLeft=4;fontSize=12;verticalAlign=top;resizable=0;rotatable=0;part=1;html=1;rounded=1;" vertex="1" parent="4Tz1QgMG0tnROPCaAri1-56">
          <mxGeometry y="40" width="140" height="50" as="geometry" />
        </mxCell>
        <mxCell id="4Tz1QgMG0tnROPCaAri1-58" style="edgeStyle=orthogonalEdgeStyle;rounded=1;orthogonalLoop=1;jettySize=auto;html=1;exitX=0.5;exitY=1;exitDx=0;exitDy=0;" edge="1" parent="4Tz1QgMG0tnROPCaAri1-56" source="4Tz1QgMG0tnROPCaAri1-57" target="4Tz1QgMG0tnROPCaAri1-57">
          <mxGeometry relative="1" as="geometry" />
        </mxCell>
        <mxCell id="4Tz1QgMG0tnROPCaAri1-59" value="" style="endArrow=none;html=1;rounded=0;" edge="1" parent="1">
          <mxGeometry width="50" height="50" relative="1" as="geometry">
            <mxPoint x="857" y="944" as="sourcePoint" />
            <mxPoint x="856.78" y="904" as="targetPoint" />
          </mxGeometry>
        </mxCell>
        <mxCell id="4Tz1QgMG0tnROPCaAri1-60" value="" style="endArrow=none;html=1;rounded=0;exitX=0.5;exitY=0;exitDx=0;exitDy=0;" edge="1" parent="1">
          <mxGeometry width="50" height="50" relative="1" as="geometry">
            <mxPoint x="1006.5" y="814" as="sourcePoint" />
            <mxPoint x="1006" y="707" as="targetPoint" />
          </mxGeometry>
        </mxCell>
        <mxCell id="4Tz1QgMG0tnROPCaAri1-61" value="MediaPublisher" style="swimlane;childLayout=stackLayout;horizontal=1;startSize=40;horizontalStack=0;rounded=1;fontSize=14;fontStyle=0;strokeWidth=2;resizeParent=0;resizeLast=1;shadow=0;dashed=1;align=center;arcSize=4;whiteSpace=wrap;html=1;fontFamily=Helvetica;" vertex="1" parent="1">
          <mxGeometry x="937" y="814" width="140" height="90" as="geometry" />
        </mxCell>
        <mxCell id="4Tz1QgMG0tnROPCaAri1-62" value="&lt;span style=&quot;font-size: 14px;&quot;&gt;media_id#&lt;br&gt;publisher_id#&lt;br&gt;&lt;br&gt;&lt;/span&gt;" style="align=left;strokeColor=none;fillColor=none;spacingLeft=4;fontSize=12;verticalAlign=top;resizable=0;rotatable=0;part=1;html=1;rounded=1;" vertex="1" parent="4Tz1QgMG0tnROPCaAri1-61">
          <mxGeometry y="40" width="140" height="50" as="geometry" />
        </mxCell>
        <mxCell id="4Tz1QgMG0tnROPCaAri1-63" style="edgeStyle=orthogonalEdgeStyle;rounded=1;orthogonalLoop=1;jettySize=auto;html=1;exitX=0.5;exitY=1;exitDx=0;exitDy=0;" edge="1" parent="4Tz1QgMG0tnROPCaAri1-61" source="4Tz1QgMG0tnROPCaAri1-62" target="4Tz1QgMG0tnROPCaAri1-62">
          <mxGeometry relative="1" as="geometry" />
        </mxCell>
        <mxCell id="4Tz1QgMG0tnROPCaAri1-64" value="" style="endArrow=none;html=1;rounded=0;" edge="1" parent="1">
          <mxGeometry width="50" height="50" relative="1" as="geometry">
            <mxPoint x="1006.99" y="944" as="sourcePoint" />
            <mxPoint x="1006.77" y="904" as="targetPoint" />
          </mxGeometry>
        </mxCell>
        <mxCell id="4Tz1QgMG0tnROPCaAri1-65" value="" style="endArrow=none;html=1;rounded=0;entryX=0.5;entryY=0;entryDx=0;entryDy=0;" edge="1" parent="1">
          <mxGeometry width="50" height="50" relative="1" as="geometry">
            <mxPoint x="1102" y="697" as="sourcePoint" />
            <mxPoint x="1157" y="814" as="targetPoint" />
            <Array as="points">
              <mxPoint x="1157" y="697" />
            </Array>
          </mxGeometry>
        </mxCell>
        <mxCell id="4Tz1QgMG0tnROPCaAri1-66" value="MediaCreator" style="swimlane;childLayout=stackLayout;horizontal=1;startSize=40;horizontalStack=0;rounded=1;fontSize=14;fontStyle=0;strokeWidth=2;resizeParent=0;resizeLast=1;shadow=0;dashed=1;align=center;arcSize=4;whiteSpace=wrap;html=1;fontFamily=Helvetica;" vertex="1" parent="1">
          <mxGeometry x="1087" y="814" width="140" height="90" as="geometry" />
        </mxCell>
        <mxCell id="4Tz1QgMG0tnROPCaAri1-67" value="&lt;span style=&quot;font-size: 14px;&quot;&gt;media_id#&lt;br&gt;creator_id#&lt;br&gt;&lt;br&gt;&lt;/span&gt;" style="align=left;strokeColor=none;fillColor=none;spacingLeft=4;fontSize=12;verticalAlign=top;resizable=0;rotatable=0;part=1;html=1;rounded=1;" vertex="1" parent="4Tz1QgMG0tnROPCaAri1-66">
          <mxGeometry y="40" width="140" height="50" as="geometry" />
        </mxCell>
        <mxCell id="4Tz1QgMG0tnROPCaAri1-68" style="edgeStyle=orthogonalEdgeStyle;rounded=1;orthogonalLoop=1;jettySize=auto;html=1;exitX=0.5;exitY=1;exitDx=0;exitDy=0;" edge="1" parent="4Tz1QgMG0tnROPCaAri1-66" source="4Tz1QgMG0tnROPCaAri1-67" target="4Tz1QgMG0tnROPCaAri1-67">
          <mxGeometry relative="1" as="geometry" />
        </mxCell>
        <mxCell id="4Tz1QgMG0tnROPCaAri1-69" value="" style="endArrow=none;html=1;rounded=0;" edge="1" parent="1">
          <mxGeometry width="50" height="50" relative="1" as="geometry">
            <mxPoint x="1156.8" y="944" as="sourcePoint" />
            <mxPoint x="1156.58" y="904" as="targetPoint" />
          </mxGeometry>
        </mxCell>
        <mxCell id="4Tz1QgMG0tnROPCaAri1-70" value="" style="endArrow=none;html=1;rounded=0;entryX=0.483;entryY=0.017;entryDx=0;entryDy=0;entryPerimeter=0;" edge="1" parent="1" target="4Tz1QgMG0tnROPCaAri1-71">
          <mxGeometry width="50" height="50" relative="1" as="geometry">
            <mxPoint x="1102" y="677" as="sourcePoint" />
            <mxPoint x="1344" y="787" as="targetPoint" />
            <Array as="points">
              <mxPoint x="1202.5" y="677" />
              <mxPoint x="1304" y="677" />
            </Array>
          </mxGeometry>
        </mxCell>
        <mxCell id="4Tz1QgMG0tnROPCaAri1-71" value="MediaPlatform" style="swimlane;childLayout=stackLayout;horizontal=1;startSize=40;horizontalStack=0;rounded=1;fontSize=14;fontStyle=0;strokeWidth=2;resizeParent=0;resizeLast=1;shadow=0;dashed=1;align=center;arcSize=4;whiteSpace=wrap;html=1;fontFamily=Helvetica;" vertex="1" parent="1">
          <mxGeometry x="1237" y="814" width="140" height="90" as="geometry" />
        </mxCell>
        <mxCell id="4Tz1QgMG0tnROPCaAri1-72" value="&lt;span style=&quot;font-size: 14px;&quot;&gt;media_id#&lt;br&gt;platform_id#&lt;br&gt;&lt;br&gt;&lt;/span&gt;" style="align=left;strokeColor=none;fillColor=none;spacingLeft=4;fontSize=12;verticalAlign=top;resizable=0;rotatable=0;part=1;html=1;rounded=1;" vertex="1" parent="4Tz1QgMG0tnROPCaAri1-71">
          <mxGeometry y="40" width="140" height="50" as="geometry" />
        </mxCell>
        <mxCell id="4Tz1QgMG0tnROPCaAri1-73" style="edgeStyle=orthogonalEdgeStyle;rounded=1;orthogonalLoop=1;jettySize=auto;html=1;exitX=0.5;exitY=1;exitDx=0;exitDy=0;" edge="1" parent="4Tz1QgMG0tnROPCaAri1-71" source="4Tz1QgMG0tnROPCaAri1-72" target="4Tz1QgMG0tnROPCaAri1-72">
          <mxGeometry relative="1" as="geometry" />
        </mxCell>
        <mxCell id="4Tz1QgMG0tnROPCaAri1-74" value="" style="endArrow=none;html=1;rounded=0;exitX=0.5;exitY=0;exitDx=0;exitDy=0;entryX=0.5;entryY=1;entryDx=0;entryDy=0;" edge="1" parent="1" source="4Tz1QgMG0tnROPCaAri1-40" target="4Tz1QgMG0tnROPCaAri1-72">
          <mxGeometry width="50" height="50" relative="1" as="geometry">
            <mxPoint x="1317" y="944" as="sourcePoint" />
            <mxPoint x="1317" y="904" as="targetPoint" />
          </mxGeometry>
        </mxCell>
        <mxCell id="4Tz1QgMG0tnROPCaAri1-75" value="" style="endArrow=none;html=1;rounded=0;entryX=0.004;entryY=0.445;entryDx=0;entryDy=0;entryPerimeter=0;" edge="1" parent="1" target="4Tz1QgMG0tnROPCaAri1-25">
          <mxGeometry width="50" height="50" relative="1" as="geometry">
            <mxPoint x="1102" y="259" as="sourcePoint" />
            <mxPoint x="1217" y="230" as="targetPoint" />
          </mxGeometry>
        </mxCell>
        <mxCell id="4Tz1QgMG0tnROPCaAri1-76" value="X" style="text;html=1;align=center;verticalAlign=middle;whiteSpace=wrap;rounded=0;" vertex="1" parent="1">
          <mxGeometry x="753" y="228" width="20" height="30" as="geometry" />
        </mxCell>
        <mxCell id="4Tz1QgMG0tnROPCaAri1-77" value="X" style="text;html=1;align=center;verticalAlign=middle;whiteSpace=wrap;rounded=0;" vertex="1" parent="1">
          <mxGeometry x="601" y="228" width="20" height="30" as="geometry" />
        </mxCell>
        <mxCell id="4Tz1QgMG0tnROPCaAri1-78" value="&lt;u&gt;X&lt;/u&gt;" style="text;html=1;align=center;verticalAlign=middle;whiteSpace=wrap;rounded=0;" vertex="1" parent="1">
          <mxGeometry x="604" y="564" width="20" height="30" as="geometry" />
        </mxCell>
        <mxCell id="4Tz1QgMG0tnROPCaAri1-79" value="&lt;u&gt;X&lt;/u&gt;" style="text;html=1;align=center;verticalAlign=middle;whiteSpace=wrap;rounded=0;" vertex="1" parent="1">
          <mxGeometry x="601" y="441" width="20" height="30" as="geometry" />
        </mxCell>
        <mxCell id="4Tz1QgMG0tnROPCaAri1-80" value="&lt;u&gt;X&lt;/u&gt;" style="text;html=1;align=center;verticalAlign=middle;whiteSpace=wrap;rounded=0;" vertex="1" parent="1">
          <mxGeometry x="753" y="440" width="20" height="30" as="geometry" />
        </mxCell>
        <mxCell id="4Tz1QgMG0tnROPCaAri1-81" value="&lt;u&gt;X&lt;/u&gt;" style="text;html=1;align=center;verticalAlign=middle;whiteSpace=wrap;rounded=0;" vertex="1" parent="1">
          <mxGeometry x="840" y="791" width="20" height="30" as="geometry" />
        </mxCell>
        <mxCell id="4Tz1QgMG0tnROPCaAri1-82" value="&lt;u&gt;X&lt;/u&gt;" style="text;html=1;align=center;verticalAlign=middle;whiteSpace=wrap;rounded=0;" vertex="1" parent="1">
          <mxGeometry x="840" y="899" width="20" height="30" as="geometry" />
        </mxCell>
        <mxCell id="4Tz1QgMG0tnROPCaAri1-83" value="&lt;u&gt;X&lt;/u&gt;" style="text;html=1;align=center;verticalAlign=middle;whiteSpace=wrap;rounded=0;" vertex="1" parent="1">
          <mxGeometry x="989" y="790" width="20" height="30" as="geometry" />
        </mxCell>
        <mxCell id="4Tz1QgMG0tnROPCaAri1-84" value="&lt;u&gt;X&lt;/u&gt;" style="text;html=1;align=center;verticalAlign=middle;whiteSpace=wrap;rounded=0;" vertex="1" parent="1">
          <mxGeometry x="991" y="898" width="20" height="30" as="geometry" />
        </mxCell>
        <mxCell id="4Tz1QgMG0tnROPCaAri1-85" value="&lt;u&gt;X&lt;/u&gt;" style="text;html=1;align=center;verticalAlign=middle;whiteSpace=wrap;rounded=0;" vertex="1" parent="1">
          <mxGeometry x="1140" y="790" width="20" height="30" as="geometry" />
        </mxCell>
        <mxCell id="4Tz1QgMG0tnROPCaAri1-86" value="&lt;u&gt;X&lt;/u&gt;" style="text;html=1;align=center;verticalAlign=middle;whiteSpace=wrap;rounded=0;" vertex="1" parent="1">
          <mxGeometry x="1140" y="898" width="20" height="30" as="geometry" />
        </mxCell>
        <mxCell id="4Tz1QgMG0tnROPCaAri1-87" value="&lt;u&gt;X&lt;/u&gt;" style="text;html=1;align=center;verticalAlign=middle;whiteSpace=wrap;rounded=0;" vertex="1" parent="1">
          <mxGeometry x="1288" y="790" width="20" height="30" as="geometry" />
        </mxCell>
        <mxCell id="4Tz1QgMG0tnROPCaAri1-88" value="&lt;u&gt;X&lt;/u&gt;" style="text;html=1;align=center;verticalAlign=middle;whiteSpace=wrap;rounded=0;" vertex="1" parent="1">
          <mxGeometry x="1290" y="898" width="20" height="30" as="geometry" />
        </mxCell>
        <mxCell id="4Tz1QgMG0tnROPCaAri1-89" value="media_type" style="text;html=1;align=center;verticalAlign=middle;whiteSpace=wrap;rounded=0;" vertex="1" parent="1">
          <mxGeometry x="1002" y="202" width="60" height="30" as="geometry" />
        </mxCell>
        <mxCell id="4Tz1QgMG0tnROPCaAri1-90" value="Media" style="swimlane;childLayout=stackLayout;horizontal=1;startSize=40;horizontalStack=0;rounded=1;fontSize=14;fontStyle=0;strokeWidth=2;resizeParent=0;resizeLast=1;shadow=0;dashed=0;align=center;arcSize=4;whiteSpace=wrap;html=1;fontFamily=Helvetica;movable=0;resizable=0;rotatable=0;deletable=0;editable=0;locked=1;connectable=0;" vertex="1" parent="1">
          <mxGeometry x="831" y="135" width="271" height="572" as="geometry" />
        </mxCell>
        <mxCell id="4Tz1QgMG0tnROPCaAri1-91" style="edgeStyle=orthogonalEdgeStyle;rounded=1;orthogonalLoop=1;jettySize=auto;html=1;exitX=0.5;exitY=1;exitDx=0;exitDy=0;" edge="1" parent="4Tz1QgMG0tnROPCaAri1-90">
          <mxGeometry relative="1" as="geometry">
            <mxPoint x="135.5" y="631.9999999999998" as="sourcePoint" />
            <mxPoint x="135.5" y="631.9999999999998" as="targetPoint" />
          </mxGeometry>
        </mxCell>
        <mxCell id="4Tz1QgMG0tnROPCaAri1-92" value="" style="endArrow=none;html=1;rounded=0;" edge="1" parent="1">
          <mxGeometry width="50" height="50" relative="1" as="geometry">
            <mxPoint x="832" y="271" as="sourcePoint" />
            <mxPoint x="962" y="271" as="targetPoint" />
          </mxGeometry>
        </mxCell>
        <mxCell id="4Tz1QgMG0tnROPCaAri1-93" value="" style="endArrow=none;html=1;rounded=0;" edge="1" parent="1">
          <mxGeometry width="50" height="50" relative="1" as="geometry">
            <mxPoint x="831" y="342" as="sourcePoint" />
            <mxPoint x="962" y="342" as="targetPoint" />
          </mxGeometry>
        </mxCell>
        <mxCell id="4Tz1QgMG0tnROPCaAri1-94" value="" style="endArrow=none;html=1;rounded=0;" edge="1" parent="1">
          <mxGeometry width="50" height="50" relative="1" as="geometry">
            <mxPoint x="831" y="410" as="sourcePoint" />
            <mxPoint x="962" y="410" as="targetPoint" />
          </mxGeometry>
        </mxCell>
        <mxCell id="4Tz1QgMG0tnROPCaAri1-95" value="" style="endArrow=none;html=1;rounded=0;" edge="1" parent="1">
          <mxGeometry width="50" height="50" relative="1" as="geometry">
            <mxPoint x="831" y="472" as="sourcePoint" />
            <mxPoint x="962" y="472" as="targetPoint" />
          </mxGeometry>
        </mxCell>
        <mxCell id="4Tz1QgMG0tnROPCaAri1-96" value="&lt;u&gt;X&lt;/u&gt;" style="text;html=1;align=center;verticalAlign=middle;whiteSpace=wrap;rounded=0;" vertex="1" parent="1">
          <mxGeometry x="945" y="248" width="20" height="30" as="geometry" />
        </mxCell>
        <mxCell id="4Tz1QgMG0tnROPCaAri1-97" value="&lt;u&gt;X&lt;/u&gt;" style="text;html=1;align=center;verticalAlign=middle;whiteSpace=wrap;rounded=0;" vertex="1" parent="1">
          <mxGeometry x="945" y="319.5" width="20" height="30" as="geometry" />
        </mxCell>
        <mxCell id="4Tz1QgMG0tnROPCaAri1-98" value="&lt;u&gt;X&lt;/u&gt;" style="text;html=1;align=center;verticalAlign=middle;whiteSpace=wrap;rounded=0;" vertex="1" parent="1">
          <mxGeometry x="945" y="387.5" width="20" height="30" as="geometry" />
        </mxCell>
        <mxCell id="4Tz1QgMG0tnROPCaAri1-99" value="&lt;u&gt;X&lt;/u&gt;" style="text;html=1;align=center;verticalAlign=middle;whiteSpace=wrap;rounded=0;" vertex="1" parent="1">
          <mxGeometry x="945" y="448.5" width="20" height="30" as="geometry" />
        </mxCell>
        <mxCell id="4Tz1QgMG0tnROPCaAri1-100" value="&lt;u&gt;X&lt;/u&gt;" style="text;html=1;align=center;verticalAlign=middle;whiteSpace=wrap;rounded=0;" vertex="1" parent="1">
          <mxGeometry x="1193" y="236" width="20" height="30" as="geometry" />
        </mxCell>
        <mxCell id="4Tz1QgMG0tnROPCaAri1-101" value="MediaLink" style="swimlane;childLayout=stackLayout;horizontal=1;startSize=40;horizontalStack=0;rounded=1;fontSize=14;fontStyle=0;strokeWidth=2;resizeParent=0;resizeLast=1;shadow=0;dashed=1;align=center;arcSize=4;whiteSpace=wrap;html=1;fontFamily=Helvetica;" vertex="1" parent="1">
          <mxGeometry x="1386" y="814" width="140" height="90" as="geometry" />
        </mxCell>
        <mxCell id="4Tz1QgMG0tnROPCaAri1-102" value="&lt;span style=&quot;font-size: 14px;&quot;&gt;media_id#&lt;br&gt;link_id#&lt;br&gt;&lt;br&gt;&lt;/span&gt;" style="align=left;strokeColor=none;fillColor=none;spacingLeft=4;fontSize=12;verticalAlign=top;resizable=0;rotatable=0;part=1;html=1;rounded=1;" vertex="1" parent="4Tz1QgMG0tnROPCaAri1-101">
          <mxGeometry y="40" width="140" height="50" as="geometry" />
        </mxCell>
        <mxCell id="4Tz1QgMG0tnROPCaAri1-103" style="edgeStyle=orthogonalEdgeStyle;rounded=1;orthogonalLoop=1;jettySize=auto;html=1;exitX=0.5;exitY=1;exitDx=0;exitDy=0;" edge="1" parent="4Tz1QgMG0tnROPCaAri1-101" source="4Tz1QgMG0tnROPCaAri1-102" target="4Tz1QgMG0tnROPCaAri1-102">
          <mxGeometry relative="1" as="geometry" />
        </mxCell>
        <mxCell id="4Tz1QgMG0tnROPCaAri1-104" value="" style="endArrow=none;html=1;rounded=0;exitX=0.5;exitY=0;exitDx=0;exitDy=0;entryX=0.5;entryY=1;entryDx=0;entryDy=0;" edge="1" parent="4Tz1QgMG0tnROPCaAri1-101">
          <mxGeometry width="50" height="50" relative="1" as="geometry">
            <mxPoint x="69.71000000000004" y="130" as="sourcePoint" />
            <mxPoint x="69.71000000000004" y="90" as="targetPoint" />
          </mxGeometry>
        </mxCell>
        <mxCell id="4Tz1QgMG0tnROPCaAri1-105" value="Link" style="swimlane;childLayout=stackLayout;horizontal=1;startSize=40;horizontalStack=0;rounded=1;fontSize=14;fontStyle=0;strokeWidth=2;resizeParent=0;resizeLast=1;shadow=0;dashed=0;align=center;arcSize=4;whiteSpace=wrap;html=1;fontFamily=Helvetica;" vertex="1" parent="1">
          <mxGeometry x="1386" y="944" width="140" height="70" as="geometry" />
        </mxCell>
        <mxCell id="4Tz1QgMG0tnROPCaAri1-106" value="&lt;span style=&quot;font-size: 14px;&quot;&gt;link_id#&lt;br&gt;&lt;/span&gt;" style="align=left;strokeColor=none;fillColor=none;spacingLeft=4;fontSize=12;verticalAlign=top;resizable=0;rotatable=0;part=1;html=1;rounded=1;" vertex="1" parent="4Tz1QgMG0tnROPCaAri1-105">
          <mxGeometry y="40" width="140" height="30" as="geometry" />
        </mxCell>
        <mxCell id="4Tz1QgMG0tnROPCaAri1-107" style="edgeStyle=orthogonalEdgeStyle;rounded=1;orthogonalLoop=1;jettySize=auto;html=1;exitX=0.5;exitY=1;exitDx=0;exitDy=0;" edge="1" parent="4Tz1QgMG0tnROPCaAri1-105" source="4Tz1QgMG0tnROPCaAri1-106" target="4Tz1QgMG0tnROPCaAri1-106">
          <mxGeometry relative="1" as="geometry" />
        </mxCell>
        <mxCell id="4Tz1QgMG0tnROPCaAri1-108" value="" style="endArrow=none;html=1;rounded=0;entryX=0.5;entryY=0;entryDx=0;entryDy=0;" edge="1" parent="1" target="4Tz1QgMG0tnROPCaAri1-101">
          <mxGeometry width="50" height="50" relative="1" as="geometry">
            <mxPoint x="1102" y="657" as="sourcePoint" />
            <mxPoint x="1474" y="797" as="targetPoint" />
            <Array as="points">
              <mxPoint x="1274" y="657" />
              <mxPoint x="1456" y="657" />
            </Array>
          </mxGeometry>
        </mxCell>
        <mxCell id="4Tz1QgMG0tnROPCaAri1-109" value="&lt;u&gt;X&lt;/u&gt;" style="text;html=1;align=center;verticalAlign=middle;whiteSpace=wrap;rounded=0;" vertex="1" parent="1">
          <mxGeometry x="1439" y="791" width="20" height="30" as="geometry" />
        </mxCell>
        <mxCell id="4Tz1QgMG0tnROPCaAri1-110" value="&lt;u&gt;X&lt;/u&gt;" style="text;html=1;align=center;verticalAlign=middle;whiteSpace=wrap;rounded=0;" vertex="1" parent="1">
          <mxGeometry x="1439" y="898" width="20" height="30" as="geometry" />
        </mxCell>
        <mxCell id="4Tz1QgMG0tnROPCaAri1-111" value="Library" style="swimlane;childLayout=stackLayout;horizontal=1;startSize=40;horizontalStack=0;rounded=1;fontSize=14;fontStyle=0;strokeWidth=2;resizeParent=0;resizeLast=1;shadow=0;dashed=1;align=center;arcSize=4;whiteSpace=wrap;html=1;fontFamily=Helvetica;" vertex="1" parent="1">
          <mxGeometry x="617" y="100" width="140" height="86.5" as="geometry" />
        </mxCell>
        <mxCell id="4Tz1QgMG0tnROPCaAri1-112" value="&lt;span style=&quot;font-size: 14px;&quot;&gt;media_id#&lt;br&gt;&lt;/span&gt;&lt;div&gt;&lt;span style=&quot;font-size: 14px;&quot;&gt;user_id#&lt;/span&gt;&lt;/div&gt;" style="align=left;strokeColor=none;fillColor=none;spacingLeft=4;fontSize=12;verticalAlign=top;resizable=0;rotatable=0;part=1;html=1;rounded=1;" vertex="1" parent="4Tz1QgMG0tnROPCaAri1-111">
          <mxGeometry y="40" width="140" height="46.5" as="geometry" />
        </mxCell>
        <mxCell id="4Tz1QgMG0tnROPCaAri1-113" style="edgeStyle=orthogonalEdgeStyle;rounded=1;orthogonalLoop=1;jettySize=auto;html=1;exitX=0.5;exitY=1;exitDx=0;exitDy=0;" edge="1" parent="4Tz1QgMG0tnROPCaAri1-111" source="4Tz1QgMG0tnROPCaAri1-112" target="4Tz1QgMG0tnROPCaAri1-112">
          <mxGeometry relative="1" as="geometry" />
        </mxCell>
        <mxCell id="4Tz1QgMG0tnROPCaAri1-114" value="" style="endArrow=none;html=1;rounded=0;" edge="1" parent="1">
          <mxGeometry width="50" height="50" relative="1" as="geometry">
            <mxPoint x="757" y="150.00000000000006" as="sourcePoint" />
            <mxPoint x="832" y="150.00000000000006" as="targetPoint" />
          </mxGeometry>
        </mxCell>
        <mxCell id="4Tz1QgMG0tnROPCaAri1-115" value="&lt;u&gt;X&lt;/u&gt;" style="text;html=1;align=center;verticalAlign=middle;whiteSpace=wrap;rounded=0;" vertex="1" parent="1">
          <mxGeometry x="601" y="131" width="20" height="30" as="geometry" />
        </mxCell>
        <mxCell id="4Tz1QgMG0tnROPCaAri1-116" value="&lt;u&gt;X&lt;/u&gt;" style="text;html=1;align=center;verticalAlign=middle;whiteSpace=wrap;rounded=0;" vertex="1" parent="1">
          <mxGeometry x="755" y="128.25" width="20" height="30" as="geometry" />
        </mxCell>
        <mxCell id="4Tz1QgMG0tnROPCaAri1-117" value="" style="endArrow=none;html=1;rounded=0;" edge="1" parent="1">
          <mxGeometry width="50" height="50" relative="1" as="geometry">
            <mxPoint x="961" y="250" as="sourcePoint" />
            <mxPoint x="996" y="238" as="targetPoint" />
            <Array as="points">
              <mxPoint x="961" y="250" />
              <mxPoint x="941" y="250" />
              <mxPoint x="941" y="220" />
              <mxPoint x="961" y="220" />
              <mxPoint x="996" y="220" />
            </Array>
          </mxGeometry>
        </mxCell>
        <mxCell id="4Tz1QgMG0tnROPCaAri1-118" value="X" style="text;html=1;align=center;verticalAlign=middle;whiteSpace=wrap;rounded=0;" vertex="1" parent="1">
          <mxGeometry x="991" y="218" width="20" height="30" as="geometry" />
        </mxCell>
        <mxCell id="4Tz1QgMG0tnROPCaAri1-119" value="" style="endArrow=none;html=1;rounded=0;" edge="1" parent="1">
          <mxGeometry width="50" height="50" relative="1" as="geometry">
            <mxPoint x="337" y="464.33000000000004" as="sourcePoint" />
            <mxPoint x="407" y="464" as="targetPoint" />
          </mxGeometry>
        </mxCell>
        <mxCell id="4Tz1QgMG0tnROPCaAri1-120" value="&lt;u&gt;X&lt;/u&gt;" style="text;html=1;align=center;verticalAlign=middle;whiteSpace=wrap;rounded=0;" vertex="1" parent="1">
          <mxGeometry x="333" y="441" width="20" height="30" as="geometry" />
        </mxCell>
        <mxCell id="4Tz1QgMG0tnROPCaAri1-121" value="" style="endArrow=none;html=1;rounded=0;" edge="1" parent="1">
          <mxGeometry width="50" height="50" relative="1" as="geometry">
            <mxPoint x="757" y="462" as="sourcePoint" />
            <mxPoint x="831" y="462.31999999999994" as="targetPoint" />
          </mxGeometry>
        </mxCell>
        <mxCell id="4Tz1QgMG0tnROPCaAri1-122" value="" style="endArrow=none;html=1;rounded=0;" edge="1" parent="1">
          <mxGeometry width="50" height="50" relative="1" as="geometry">
            <mxPoint x="761" y="587" as="sourcePoint" />
            <mxPoint x="831.5" y="587.5" as="targetPoint" />
          </mxGeometry>
        </mxCell>
        <mxCell id="4Tz1QgMG0tnROPCaAri1-123" value="&lt;u&gt;X&lt;/u&gt;" style="text;html=1;align=center;verticalAlign=middle;whiteSpace=wrap;rounded=0;" vertex="1" parent="1">
          <mxGeometry x="757" y="564" width="20" height="30" as="geometry" />
        </mxCell>
        <mxCell id="4Tz1QgMG0tnROPCaAri1-124" value="Manga" style="swimlane;childLayout=stackLayout;horizontal=1;startSize=40;horizontalStack=0;rounded=1;fontSize=14;fontStyle=0;strokeWidth=2;resizeParent=0;resizeLast=1;shadow=0;dashed=0;align=center;arcSize=4;whiteSpace=wrap;html=1;fontFamily=Helvetica;" vertex="1" parent="1">
          <mxGeometry x="962" y="520" width="140" height="54" as="geometry" />
        </mxCell>
        <mxCell id="4Tz1QgMG0tnROPCaAri1-125" value="&lt;span style=&quot;font-size: 14px;&quot;&gt;&lt;br&gt;&lt;/span&gt;" style="align=left;strokeColor=none;fillColor=none;spacingLeft=4;fontSize=12;verticalAlign=top;resizable=0;rotatable=0;part=1;html=1;rounded=1;" vertex="1" parent="4Tz1QgMG0tnROPCaAri1-124">
          <mxGeometry y="40" width="140" height="14" as="geometry" />
        </mxCell>
        <mxCell id="4Tz1QgMG0tnROPCaAri1-126" style="edgeStyle=orthogonalEdgeStyle;rounded=1;orthogonalLoop=1;jettySize=auto;html=1;exitX=0.5;exitY=1;exitDx=0;exitDy=0;" edge="1" parent="4Tz1QgMG0tnROPCaAri1-124" source="4Tz1QgMG0tnROPCaAri1-125" target="4Tz1QgMG0tnROPCaAri1-125">
          <mxGeometry relative="1" as="geometry" />
        </mxCell>
        <mxCell id="4Tz1QgMG0tnROPCaAri1-127" value="Anime" style="swimlane;childLayout=stackLayout;horizontal=1;startSize=40;horizontalStack=0;rounded=1;fontSize=14;fontStyle=0;strokeWidth=2;resizeParent=0;resizeLast=1;shadow=0;dashed=0;align=center;arcSize=4;whiteSpace=wrap;html=1;fontFamily=Helvetica;" vertex="1" parent="1">
          <mxGeometry x="962" y="587" width="140" height="54" as="geometry" />
        </mxCell>
        <mxCell id="4Tz1QgMG0tnROPCaAri1-128" value="&lt;span style=&quot;font-size: 14px;&quot;&gt;&lt;br&gt;&lt;/span&gt;" style="align=left;strokeColor=none;fillColor=none;spacingLeft=4;fontSize=12;verticalAlign=top;resizable=0;rotatable=0;part=1;html=1;rounded=1;" vertex="1" parent="4Tz1QgMG0tnROPCaAri1-127">
          <mxGeometry y="40" width="140" height="14" as="geometry" />
        </mxCell>
        <mxCell id="4Tz1QgMG0tnROPCaAri1-129" style="edgeStyle=orthogonalEdgeStyle;rounded=1;orthogonalLoop=1;jettySize=auto;html=1;exitX=0.5;exitY=1;exitDx=0;exitDy=0;" edge="1" parent="4Tz1QgMG0tnROPCaAri1-127" source="4Tz1QgMG0tnROPCaAri1-128" target="4Tz1QgMG0tnROPCaAri1-128">
          <mxGeometry relative="1" as="geometry" />
        </mxCell>
        <mxCell id="4Tz1QgMG0tnROPCaAri1-130" value="" style="endArrow=none;html=1;rounded=0;" edge="1" parent="1">
          <mxGeometry width="50" height="50" relative="1" as="geometry">
            <mxPoint x="831" y="545.09" as="sourcePoint" />
            <mxPoint x="962" y="545.09" as="targetPoint" />
          </mxGeometry>
        </mxCell>
        <mxCell id="4Tz1QgMG0tnROPCaAri1-131" value="&lt;u&gt;X&lt;/u&gt;" style="text;html=1;align=center;verticalAlign=middle;whiteSpace=wrap;rounded=0;" vertex="1" parent="1">
          <mxGeometry x="945" y="520" width="20" height="30" as="geometry" />
        </mxCell>
        <mxCell id="4Tz1QgMG0tnROPCaAri1-132" value="" style="endArrow=none;html=1;rounded=0;" edge="1" parent="1">
          <mxGeometry width="50" height="50" relative="1" as="geometry">
            <mxPoint x="831" y="613.55" as="sourcePoint" />
            <mxPoint x="962" y="613.55" as="targetPoint" />
          </mxGeometry>
        </mxCell>
        <mxCell id="4Tz1QgMG0tnROPCaAri1-133" value="&lt;u&gt;X&lt;/u&gt;" style="text;html=1;align=center;verticalAlign=middle;whiteSpace=wrap;rounded=0;" vertex="1" parent="1">
          <mxGeometry x="945" y="590" width="20" height="30" as="geometry" />
        </mxCell>
        <mxCell id="4Tz1QgMG0tnROPCaAri1-134" value="Series" style="swimlane;childLayout=stackLayout;horizontal=1;startSize=40;horizontalStack=0;rounded=1;fontSize=14;fontStyle=0;strokeWidth=2;resizeParent=0;resizeLast=1;shadow=0;dashed=0;align=center;arcSize=4;whiteSpace=wrap;html=1;fontFamily=Helvetica;" vertex="1" parent="1">
          <mxGeometry x="637" y="944" width="140" height="70" as="geometry" />
        </mxCell>
        <mxCell id="4Tz1QgMG0tnROPCaAri1-135" value="&lt;span style=&quot;font-size: 14px; text-align: center; text-wrap: wrap;&quot;&gt;series&lt;/span&gt;&lt;span style=&quot;font-size: 14px;&quot;&gt;_id#&lt;br&gt;&lt;/span&gt;" style="align=left;strokeColor=none;fillColor=none;spacingLeft=4;fontSize=12;verticalAlign=top;resizable=0;rotatable=0;part=1;html=1;rounded=1;" vertex="1" parent="4Tz1QgMG0tnROPCaAri1-134">
          <mxGeometry y="40" width="140" height="30" as="geometry" />
        </mxCell>
        <mxCell id="4Tz1QgMG0tnROPCaAri1-136" style="edgeStyle=orthogonalEdgeStyle;rounded=1;orthogonalLoop=1;jettySize=auto;html=1;exitX=0.5;exitY=1;exitDx=0;exitDy=0;" edge="1" parent="4Tz1QgMG0tnROPCaAri1-134" source="4Tz1QgMG0tnROPCaAri1-135" target="4Tz1QgMG0tnROPCaAri1-135">
          <mxGeometry relative="1" as="geometry" />
        </mxCell>
        <mxCell id="4Tz1QgMG0tnROPCaAri1-137" value="MediaSeries" style="swimlane;childLayout=stackLayout;horizontal=1;startSize=40;horizontalStack=0;rounded=1;fontSize=14;fontStyle=0;strokeWidth=2;resizeParent=0;resizeLast=1;shadow=0;dashed=1;align=center;arcSize=4;whiteSpace=wrap;html=1;fontFamily=Helvetica;" vertex="1" parent="1">
          <mxGeometry x="637" y="814" width="140" height="90" as="geometry" />
        </mxCell>
        <mxCell id="4Tz1QgMG0tnROPCaAri1-138" value="&lt;span style=&quot;font-size: 14px;&quot;&gt;media_id#&lt;br&gt;series_id#&lt;br&gt;&lt;br&gt;&lt;/span&gt;" style="align=left;strokeColor=none;fillColor=none;spacingLeft=4;fontSize=12;verticalAlign=top;resizable=0;rotatable=0;part=1;html=1;rounded=1;" vertex="1" parent="4Tz1QgMG0tnROPCaAri1-137">
          <mxGeometry y="40" width="140" height="50" as="geometry" />
        </mxCell>
        <mxCell id="4Tz1QgMG0tnROPCaAri1-139" style="edgeStyle=orthogonalEdgeStyle;rounded=1;orthogonalLoop=1;jettySize=auto;html=1;exitX=0.5;exitY=1;exitDx=0;exitDy=0;" edge="1" parent="4Tz1QgMG0tnROPCaAri1-137" source="4Tz1QgMG0tnROPCaAri1-138" target="4Tz1QgMG0tnROPCaAri1-138">
          <mxGeometry relative="1" as="geometry" />
        </mxCell>
        <mxCell id="4Tz1QgMG0tnROPCaAri1-140" value="" style="endArrow=none;html=1;rounded=0;" edge="1" parent="1">
          <mxGeometry width="50" height="50" relative="1" as="geometry">
            <mxPoint x="705" y="944" as="sourcePoint" />
            <mxPoint x="704.78" y="904" as="targetPoint" />
          </mxGeometry>
        </mxCell>
        <mxCell id="4Tz1QgMG0tnROPCaAri1-141" value="&lt;u&gt;X&lt;/u&gt;" style="text;html=1;align=center;verticalAlign=middle;whiteSpace=wrap;rounded=0;" vertex="1" parent="1">
          <mxGeometry x="686" y="791" width="20" height="30" as="geometry" />
        </mxCell>
        <mxCell id="4Tz1QgMG0tnROPCaAri1-142" value="&lt;u&gt;X&lt;/u&gt;" style="text;html=1;align=center;verticalAlign=middle;whiteSpace=wrap;rounded=0;" vertex="1" parent="1">
          <mxGeometry x="688" y="899" width="20" height="30" as="geometry" />
        </mxCell>
        <mxCell id="4Tz1QgMG0tnROPCaAri1-143" value="" style="endArrow=none;html=1;rounded=0;" edge="1" parent="1">
          <mxGeometry width="50" height="50" relative="1" as="geometry">
            <mxPoint x="702.04" y="814" as="sourcePoint" />
            <mxPoint x="831" y="697" as="targetPoint" />
            <Array as="points">
              <mxPoint x="704" y="697" />
            </Array>
          </mxGeometry>
        </mxCell>
        <mxCell id="4Tz1QgMG0tnROPCaAri1-144" value="" style="endArrow=none;html=1;rounded=0;entryX=0.004;entryY=0.445;entryDx=0;entryDy=0;entryPerimeter=0;" edge="1" parent="1">
          <mxGeometry width="50" height="50" relative="1" as="geometry">
            <mxPoint x="1101" y="474.56999999999994" as="sourcePoint" />
            <mxPoint x="1209" y="474.56999999999994" as="targetPoint" />
          </mxGeometry>
        </mxCell>
        <mxCell id="4Tz1QgMG0tnROPCaAri1-145" value="&lt;u&gt;X&lt;/u&gt;" style="text;html=1;align=center;verticalAlign=middle;whiteSpace=wrap;rounded=0;" vertex="1" parent="1">
          <mxGeometry x="1193" y="451" width="20" height="30" as="geometry" />
        </mxCell>
        <mxCell id="4Tz1QgMG0tnROPCaAri1-146" value="MediaGenres" style="swimlane;childLayout=stackLayout;horizontal=1;startSize=40;horizontalStack=0;rounded=1;fontSize=14;fontStyle=0;strokeWidth=2;resizeParent=0;resizeLast=1;shadow=0;dashed=1;align=center;arcSize=4;whiteSpace=wrap;html=1;fontFamily=Helvetica;" vertex="1" parent="1">
          <mxGeometry x="487" y="814" width="140" height="90" as="geometry" />
        </mxCell>
        <mxCell id="4Tz1QgMG0tnROPCaAri1-147" value="&lt;span style=&quot;font-size: 14px;&quot;&gt;media_id#&lt;br&gt;genres_id#&lt;br&gt;&lt;br&gt;&lt;/span&gt;" style="align=left;strokeColor=none;fillColor=none;spacingLeft=4;fontSize=12;verticalAlign=top;resizable=0;rotatable=0;part=1;html=1;rounded=1;" vertex="1" parent="4Tz1QgMG0tnROPCaAri1-146">
          <mxGeometry y="40" width="140" height="50" as="geometry" />
        </mxCell>
        <mxCell id="4Tz1QgMG0tnROPCaAri1-148" style="edgeStyle=orthogonalEdgeStyle;rounded=1;orthogonalLoop=1;jettySize=auto;html=1;exitX=0.5;exitY=1;exitDx=0;exitDy=0;" edge="1" parent="4Tz1QgMG0tnROPCaAri1-146" source="4Tz1QgMG0tnROPCaAri1-147" target="4Tz1QgMG0tnROPCaAri1-147">
          <mxGeometry relative="1" as="geometry" />
        </mxCell>
        <mxCell id="4Tz1QgMG0tnROPCaAri1-149" value="&lt;u&gt;X&lt;/u&gt;" style="text;html=1;align=center;verticalAlign=middle;whiteSpace=wrap;rounded=0;" vertex="1" parent="1">
          <mxGeometry x="541" y="898" width="20" height="30" as="geometry" />
        </mxCell>
        <mxCell id="4Tz1QgMG0tnROPCaAri1-150" value="" style="endArrow=none;html=1;rounded=0;" edge="1" parent="1">
          <mxGeometry width="50" height="50" relative="1" as="geometry">
            <mxPoint x="556.91" y="944" as="sourcePoint" />
            <mxPoint x="556.6899999999999" y="904" as="targetPoint" />
          </mxGeometry>
        </mxCell>
        <mxCell id="4Tz1QgMG0tnROPCaAri1-151" value="" style="endArrow=none;html=1;rounded=0;" edge="1" parent="1">
          <mxGeometry width="50" height="50" relative="1" as="geometry">
            <mxPoint x="557.04" y="814" as="sourcePoint" />
            <mxPoint x="830" y="687" as="targetPoint" />
            <Array as="points">
              <mxPoint x="557" y="687" />
            </Array>
          </mxGeometry>
        </mxCell>
        <mxCell id="4Tz1QgMG0tnROPCaAri1-152" value="&lt;u&gt;X&lt;/u&gt;" style="text;html=1;align=center;verticalAlign=middle;whiteSpace=wrap;rounded=0;" vertex="1" parent="1">
          <mxGeometry x="541" y="791" width="20" height="30" as="geometry" />
        </mxCell>
        <mxCell id="4Tz1QgMG0tnROPCaAri1-153" value="" style="endArrow=none;html=1;rounded=0;exitX=0.5;exitY=0;exitDx=0;exitDy=0;" edge="1" parent="1" source="4Tz1QgMG0tnROPCaAri1-22">
          <mxGeometry width="50" height="50" relative="1" as="geometry">
            <mxPoint x="547" y="152.32999999999998" as="sourcePoint" />
            <mxPoint x="617" y="151.99999999999994" as="targetPoint" />
            <Array as="points">
              <mxPoint x="477" y="152" />
            </Array>
          </mxGeometry>
        </mxCell>
        <mxCell id="4Tz1QgMG0tnROPCaAri1-155" value="" style="endArrow=none;html=1;rounded=0;exitX=0.692;exitY=0.007;exitDx=0;exitDy=0;exitPerimeter=0;" edge="1" parent="1" source="4Tz1QgMG0tnROPCaAri1-22">
          <mxGeometry width="50" height="50" relative="1" as="geometry">
            <mxPoint x="504" y="437" as="sourcePoint" />
            <mxPoint x="617" y="247.99999999999994" as="targetPoint" />
            <Array as="points">
              <mxPoint x="504" y="248" />
            </Array>
          </mxGeometry>
        </mxCell>
        <mxCell id="4Tz1QgMG0tnROPCaAri1-157" value="" style="endArrow=none;html=1;rounded=0;entryX=0.5;entryY=1;entryDx=0;entryDy=0;" edge="1" parent="1">
          <mxGeometry width="50" height="50" relative="1" as="geometry">
            <mxPoint x="266.58" y="434.5" as="sourcePoint" />
            <mxPoint x="266.68" y="387.5" as="targetPoint" />
          </mxGeometry>
        </mxCell>
        <mxCell id="4Tz1QgMG0tnROPCaAri1-158" value="&lt;u&gt;X&lt;/u&gt;" style="text;html=1;align=center;verticalAlign=middle;whiteSpace=wrap;rounded=0;" vertex="1" parent="1">
          <mxGeometry x="251" y="381" width="20" height="30" as="geometry" />
        </mxCell>
        <mxCell id="4Tz1QgMG0tnROPCaAri1-159" value="" style="endArrow=none;html=1;rounded=0;" edge="1" parent="1" target="4Tz1QgMG0tnROPCaAri1-160">
          <mxGeometry width="50" height="50" relative="1" as="geometry">
            <mxPoint x="674" y="588" as="sourcePoint" />
            <mxPoint x="831.5" y="587.5" as="targetPoint" />
          </mxGeometry>
        </mxCell>
        <mxCell id="4Tz1QgMG0tnROPCaAri1-160" value="MediaUserTag" style="swimlane;childLayout=stackLayout;horizontal=1;startSize=40;horizontalStack=0;rounded=1;fontSize=14;fontStyle=0;strokeWidth=2;resizeParent=0;resizeLast=1;shadow=0;dashed=1;align=center;arcSize=4;whiteSpace=wrap;html=1;fontFamily=Helvetica;" vertex="1" parent="1">
          <mxGeometry x="621" y="550" width="140" height="102.5" as="geometry" />
        </mxCell>
        <mxCell id="4Tz1QgMG0tnROPCaAri1-161" value="&lt;div&gt;&lt;span style=&quot;font-size: 14px;&quot;&gt;media_id#&lt;/span&gt;&lt;/div&gt;&lt;div&gt;&lt;span style=&quot;font-size: 14px;&quot;&gt;user_id#&lt;/span&gt;&lt;/div&gt;&lt;span style=&quot;font-size: 14px;&quot;&gt;tag_id#&lt;/span&gt;" style="align=left;strokeColor=none;fillColor=none;spacingLeft=4;fontSize=12;verticalAlign=top;resizable=0;rotatable=0;part=1;html=1;rounded=1;" vertex="1" parent="4Tz1QgMG0tnROPCaAri1-160">
          <mxGeometry y="40" width="140" height="62.5" as="geometry" />
        </mxCell>
        <mxCell id="4Tz1QgMG0tnROPCaAri1-162" style="edgeStyle=orthogonalEdgeStyle;rounded=1;orthogonalLoop=1;jettySize=auto;html=1;exitX=0.5;exitY=1;exitDx=0;exitDy=0;" edge="1" parent="4Tz1QgMG0tnROPCaAri1-160" source="4Tz1QgMG0tnROPCaAri1-161" target="4Tz1QgMG0tnROPCaAri1-161">
          <mxGeometry relative="1" as="geometry" />
        </mxCell>
        <mxCell id="4Tz1QgMG0tnROPCaAri1-163" value="" style="endArrow=none;html=1;rounded=0;entryX=0.5;entryY=1;entryDx=0;entryDy=0;exitX=0.5;exitY=0;exitDx=0;exitDy=0;" edge="1" parent="1" source="4Tz1QgMG0tnROPCaAri1-19" target="4Tz1QgMG0tnROPCaAri1-23">
          <mxGeometry width="50" height="50" relative="1" as="geometry">
            <mxPoint x="475.11" y="566.25" as="sourcePoint" />
            <mxPoint x="478.89" y="516.25" as="targetPoint" />
          </mxGeometry>
        </mxCell>
        <mxCell id="4Tz1QgMG0tnROPCaAri1-164" value="&lt;u&gt;X&lt;/u&gt;" style="text;html=1;align=center;verticalAlign=middle;whiteSpace=wrap;rounded=0;" vertex="1" parent="1">
          <mxGeometry x="474" y="541" width="20" height="30" as="geometry" />
        </mxCell>
        <mxCell id="4Tz1QgMG0tnROPCaAri1-165" value="Source" style="swimlane;childLayout=stackLayout;horizontal=1;startSize=40;horizontalStack=0;rounded=1;fontSize=14;fontStyle=0;strokeWidth=2;resizeParent=0;resizeLast=1;shadow=0;dashed=0;align=center;arcSize=4;whiteSpace=wrap;html=1;fontFamily=Helvetica;" vertex="1" parent="1">
          <mxGeometry x="200" y="566.25" width="140" height="70" as="geometry" />
        </mxCell>
        <mxCell id="4Tz1QgMG0tnROPCaAri1-166" value="&lt;span style=&quot;font-size: 14px;&quot;&gt;source_id#&lt;/span&gt;" style="align=left;strokeColor=none;fillColor=none;spacingLeft=4;fontSize=12;verticalAlign=top;resizable=0;rotatable=0;part=1;html=1;rounded=1;" vertex="1" parent="4Tz1QgMG0tnROPCaAri1-165">
          <mxGeometry y="40" width="140" height="30" as="geometry" />
        </mxCell>
        <mxCell id="4Tz1QgMG0tnROPCaAri1-167" style="edgeStyle=orthogonalEdgeStyle;rounded=1;orthogonalLoop=1;jettySize=auto;html=1;exitX=0.5;exitY=1;exitDx=0;exitDy=0;" edge="1" parent="4Tz1QgMG0tnROPCaAri1-165" source="4Tz1QgMG0tnROPCaAri1-166" target="4Tz1QgMG0tnROPCaAri1-166">
          <mxGeometry relative="1" as="geometry" />
        </mxCell>
        <mxCell id="4Tz1QgMG0tnROPCaAri1-168" value="MediaUserSource" style="swimlane;childLayout=stackLayout;horizontal=1;startSize=40;horizontalStack=0;rounded=1;fontSize=14;fontStyle=0;strokeWidth=2;resizeParent=0;resizeLast=1;shadow=0;dashed=1;align=center;arcSize=4;whiteSpace=wrap;html=1;fontFamily=Helvetica;" vertex="1" parent="1">
          <mxGeometry x="304" y="677" width="140" height="102.5" as="geometry" />
        </mxCell>
        <mxCell id="4Tz1QgMG0tnROPCaAri1-169" value="&lt;div&gt;&lt;span style=&quot;font-size: 14px;&quot;&gt;media_id#&lt;/span&gt;&lt;/div&gt;&lt;div&gt;&lt;span style=&quot;font-size: 14px;&quot;&gt;user_id#&lt;/span&gt;&lt;/div&gt;&lt;span style=&quot;font-size: 14px;&quot;&gt;source_id#&lt;/span&gt;" style="align=left;strokeColor=none;fillColor=none;spacingLeft=4;fontSize=12;verticalAlign=top;resizable=0;rotatable=0;part=1;html=1;rounded=1;" vertex="1" parent="4Tz1QgMG0tnROPCaAri1-168">
          <mxGeometry y="40" width="140" height="62.5" as="geometry" />
        </mxCell>
        <mxCell id="4Tz1QgMG0tnROPCaAri1-170" style="edgeStyle=orthogonalEdgeStyle;rounded=1;orthogonalLoop=1;jettySize=auto;html=1;exitX=0.5;exitY=1;exitDx=0;exitDy=0;" edge="1" parent="4Tz1QgMG0tnROPCaAri1-168" source="4Tz1QgMG0tnROPCaAri1-169" target="4Tz1QgMG0tnROPCaAri1-169">
          <mxGeometry relative="1" as="geometry" />
        </mxCell>
        <mxCell id="4Tz1QgMG0tnROPCaAri1-171" value="" style="endArrow=none;html=1;rounded=0;" edge="1" parent="1">
          <mxGeometry width="50" height="50" relative="1" as="geometry">
            <mxPoint x="444" y="723" as="sourcePoint" />
            <mxPoint x="831.5" y="677.5" as="targetPoint" />
            <Array as="points">
              <mxPoint x="524" y="723" />
              <mxPoint x="524" y="678" />
            </Array>
          </mxGeometry>
        </mxCell>
        <mxCell id="4Tz1QgMG0tnROPCaAri1-172" value="" style="endArrow=none;html=1;rounded=0;exitX=0.003;exitY=0.102;exitDx=0;exitDy=0;exitPerimeter=0;entryX=0.451;entryY=1.026;entryDx=0;entryDy=0;entryPerimeter=0;" edge="1" parent="1" source="4Tz1QgMG0tnROPCaAri1-169" target="4Tz1QgMG0tnROPCaAri1-166">
          <mxGeometry width="50" height="50" relative="1" as="geometry">
            <mxPoint x="268" y="730" as="sourcePoint" />
            <mxPoint x="282" y="654" as="targetPoint" />
            <Array as="points">
              <mxPoint x="263" y="723" />
            </Array>
          </mxGeometry>
        </mxCell>
        <mxCell id="4Tz1QgMG0tnROPCaAri1-173" value="&lt;u&gt;X&lt;/u&gt;" style="text;html=1;align=center;verticalAlign=middle;whiteSpace=wrap;rounded=0;" vertex="1" parent="1">
          <mxGeometry x="288" y="700" width="20" height="30" as="geometry" />
        </mxCell>
        <mxCell id="4Tz1QgMG0tnROPCaAri1-174" value="&lt;u&gt;X&lt;/u&gt;" style="text;html=1;align=center;verticalAlign=middle;whiteSpace=wrap;rounded=0;" vertex="1" parent="1">
          <mxGeometry x="440" y="700" width="20" height="30" as="geometry" />
        </mxCell>
        <mxCell id="4Tz1QgMG0tnROPCaAri1-175" value="" style="endArrow=none;html=1;rounded=0;entryX=0;entryY=0.25;entryDx=0;entryDy=0;" edge="1" parent="1" target="4Tz1QgMG0tnROPCaAri1-23">
          <mxGeometry width="50" height="50" relative="1" as="geometry">
            <mxPoint x="374" y="677" as="sourcePoint" />
            <mxPoint x="373.64" y="516" as="targetPoint" />
            <Array as="points">
              <mxPoint x="373" y="488" />
            </Array>
          </mxGeometry>
        </mxCell>
        <mxCell id="4Tz1QgMG0tnROPCaAri1-176" value="&lt;u&gt;X&lt;/u&gt;" style="text;html=1;align=center;verticalAlign=middle;whiteSpace=wrap;rounded=0;" vertex="1" parent="1">
          <mxGeometry x="370" y="652.5" width="20" height="30" as="geometry" />
        </mxCell>
        <mxCell id="HNBccR78ixs_nr-uUNAy-1" value="MediaReview" style="swimlane;childLayout=stackLayout;horizontal=1;startSize=40;horizontalStack=0;rounded=1;fontSize=14;fontStyle=0;strokeWidth=2;resizeParent=0;resizeLast=1;shadow=0;dashed=1;align=center;arcSize=4;whiteSpace=wrap;html=1;fontFamily=Helvetica;" vertex="1" parent="1">
          <mxGeometry x="1535" y="814" width="140" height="90" as="geometry" />
        </mxCell>
        <mxCell id="HNBccR78ixs_nr-uUNAy-2" value="&lt;span style=&quot;font-size: 14px;&quot;&gt;media_id#&lt;br&gt;review_id#&lt;br&gt;&lt;br&gt;&lt;/span&gt;" style="align=left;strokeColor=none;fillColor=none;spacingLeft=4;fontSize=12;verticalAlign=top;resizable=0;rotatable=0;part=1;html=1;rounded=1;" vertex="1" parent="HNBccR78ixs_nr-uUNAy-1">
          <mxGeometry y="40" width="140" height="50" as="geometry" />
        </mxCell>
        <mxCell id="HNBccR78ixs_nr-uUNAy-3" style="edgeStyle=orthogonalEdgeStyle;rounded=1;orthogonalLoop=1;jettySize=auto;html=1;exitX=0.5;exitY=1;exitDx=0;exitDy=0;" edge="1" parent="HNBccR78ixs_nr-uUNAy-1" source="HNBccR78ixs_nr-uUNAy-2" target="HNBccR78ixs_nr-uUNAy-2">
          <mxGeometry relative="1" as="geometry" />
        </mxCell>
        <mxCell id="HNBccR78ixs_nr-uUNAy-4" value="" style="endArrow=none;html=1;rounded=0;exitX=0.5;exitY=0;exitDx=0;exitDy=0;entryX=0.5;entryY=1;entryDx=0;entryDy=0;" edge="1" parent="HNBccR78ixs_nr-uUNAy-1">
          <mxGeometry width="50" height="50" relative="1" as="geometry">
            <mxPoint x="69.71000000000004" y="130" as="sourcePoint" />
            <mxPoint x="69.71000000000004" y="90" as="targetPoint" />
          </mxGeometry>
        </mxCell>
        <mxCell id="HNBccR78ixs_nr-uUNAy-5" value="Review" style="swimlane;childLayout=stackLayout;horizontal=1;startSize=40;horizontalStack=0;rounded=1;fontSize=14;fontStyle=0;strokeWidth=2;resizeParent=0;resizeLast=1;shadow=0;dashed=0;align=center;arcSize=4;whiteSpace=wrap;html=1;fontFamily=Helvetica;" vertex="1" parent="1">
          <mxGeometry x="1535" y="944" width="140" height="70" as="geometry" />
        </mxCell>
        <mxCell id="HNBccR78ixs_nr-uUNAy-6" value="&lt;span style=&quot;font-size: 14px;&quot;&gt;review_id#&lt;br&gt;&lt;/span&gt;" style="align=left;strokeColor=none;fillColor=none;spacingLeft=4;fontSize=12;verticalAlign=top;resizable=0;rotatable=0;part=1;html=1;rounded=1;" vertex="1" parent="HNBccR78ixs_nr-uUNAy-5">
          <mxGeometry y="40" width="140" height="30" as="geometry" />
        </mxCell>
        <mxCell id="HNBccR78ixs_nr-uUNAy-7" style="edgeStyle=orthogonalEdgeStyle;rounded=1;orthogonalLoop=1;jettySize=auto;html=1;exitX=0.5;exitY=1;exitDx=0;exitDy=0;" edge="1" parent="HNBccR78ixs_nr-uUNAy-5" source="HNBccR78ixs_nr-uUNAy-6" target="HNBccR78ixs_nr-uUNAy-6">
          <mxGeometry relative="1" as="geometry" />
        </mxCell>
        <mxCell id="HNBccR78ixs_nr-uUNAy-8" value="&lt;u&gt;X&lt;/u&gt;" style="text;html=1;align=center;verticalAlign=middle;whiteSpace=wrap;rounded=0;" vertex="1" parent="1">
          <mxGeometry x="1588" y="790" width="20" height="30" as="geometry" />
        </mxCell>
        <mxCell id="HNBccR78ixs_nr-uUNAy-9" value="&lt;u&gt;X&lt;/u&gt;" style="text;html=1;align=center;verticalAlign=middle;whiteSpace=wrap;rounded=0;" vertex="1" parent="1">
          <mxGeometry x="1588" y="898" width="20" height="30" as="geometry" />
        </mxCell>
        <mxCell id="HNBccR78ixs_nr-uUNAy-10" value="" style="endArrow=none;html=1;rounded=0;entryX=0.5;entryY=0;entryDx=0;entryDy=0;" edge="1" parent="1" target="HNBccR78ixs_nr-uUNAy-1">
          <mxGeometry width="50" height="50" relative="1" as="geometry">
            <mxPoint x="1102" y="650" as="sourcePoint" />
            <mxPoint x="1600" y="810" as="targetPoint" />
            <Array as="points">
              <mxPoint x="1280" y="650" />
              <mxPoint x="1605" y="650" />
            </Array>
          </mxGeometry>
        </mxCell>
      </root>
    </mxGraphModel>
  </diagram>
  <diagram id="bgne9LYVkCClfWJCDRtc" name="Workflow Diagram">
    <mxGraphModel dx="1042" dy="527" grid="0" gridSize="10" guides="1" tooltips="1" connect="1" arrows="1" fold="1" page="1" pageScale="1" pageWidth="3300" pageHeight="4681" math="0" shadow="0">
      <root>
        <mxCell id="0" />
        <mxCell id="1" parent="0" />
        <mxCell id="IUOD3VCjlLtaYbZf3gaa-2" value="Login" style="html=1;whiteSpace=wrap;strokeColor=none;fillColor=light-dark(#0079D6,#3EA6F6);labelPosition=center;verticalLabelPosition=middle;verticalAlign=top;align=center;fontSize=12;outlineConnect=0;spacingTop=-6;fontColor=#FFFFFF;sketch=0;shape=mxgraph.sitemap.login;" parent="1" vertex="1">
          <mxGeometry x="349" y="178" width="120" height="70" as="geometry" />
        </mxCell>
        <mxCell id="IUOD3VCjlLtaYbZf3gaa-5" value="" style="image;sketch=0;aspect=fixed;html=1;points=[];align=center;fontSize=12;image=img/lib/mscae/VM_Linux.svg;" parent="1" vertex="1">
          <mxGeometry x="367.69" y="25" width="82.61" height="76" as="geometry" />
        </mxCell>
        <mxCell id="IUOD3VCjlLtaYbZf3gaa-10" value="" style="group" parent="1" vertex="1" connectable="0">
          <mxGeometry x="482" y="25" width="95" height="82" as="geometry" />
        </mxCell>
        <mxCell id="IUOD3VCjlLtaYbZf3gaa-11" value="" style="image;sketch=0;aspect=fixed;html=1;points=[];align=center;fontSize=12;image=img/lib/mscae/VM_Linux.svg;" parent="IUOD3VCjlLtaYbZf3gaa-10" vertex="1">
          <mxGeometry width="83.88607226406029" height="77.1780163435347" as="geometry" />
        </mxCell>
        <mxCell id="IUOD3VCjlLtaYbZf3gaa-12" value="" style="whiteSpace=wrap;html=1;aspect=fixed;strokeColor=none;fillColor=#59B4D9;" parent="IUOD3VCjlLtaYbZf3gaa-10" vertex="1">
          <mxGeometry x="22.003756804416167" y="9.566666666666666" width="45.02050953372857" height="45.02050953372857" as="geometry" />
        </mxCell>
        <mxCell id="IUOD3VCjlLtaYbZf3gaa-13" value="" style="dashed=0;outlineConnect=0;html=1;align=center;labelPosition=center;verticalLabelPosition=bottom;verticalAlign=top;shape=mxgraph.weblogos.apple;fillColor=#1B1C1C;strokeColor=none" parent="IUOD3VCjlLtaYbZf3gaa-10" vertex="1">
          <mxGeometry x="26.64" y="13.43" width="30.61" height="37.3" as="geometry" />
        </mxCell>
        <mxCell id="IUOD3VCjlLtaYbZf3gaa-15" value="" style="endArrow=classic;html=1;rounded=0;exitX=0.49;exitY=0.992;exitDx=0;exitDy=0;exitPerimeter=0;endFill=1;" parent="1" target="IUOD3VCjlLtaYbZf3gaa-2" edge="1">
          <mxGeometry width="50" height="50" relative="1" as="geometry">
            <mxPoint x="290.47890000000007" y="100.39199999999994" as="sourcePoint" />
            <mxPoint x="287" y="157" as="targetPoint" />
          </mxGeometry>
        </mxCell>
        <mxCell id="IUOD3VCjlLtaYbZf3gaa-16" value="" style="endArrow=classic;html=1;rounded=0;endFill=1;" parent="1" target="IUOD3VCjlLtaYbZf3gaa-2" edge="1">
          <mxGeometry width="50" height="50" relative="1" as="geometry">
            <mxPoint x="409" y="101" as="sourcePoint" />
            <mxPoint x="548" y="222" as="targetPoint" />
          </mxGeometry>
        </mxCell>
        <mxCell id="IUOD3VCjlLtaYbZf3gaa-17" value="" style="endArrow=classic;html=1;rounded=0;exitX=0.524;exitY=1.001;exitDx=0;exitDy=0;exitPerimeter=0;endFill=1;" parent="1" source="IUOD3VCjlLtaYbZf3gaa-11" edge="1">
          <mxGeometry width="50" height="50" relative="1" as="geometry">
            <mxPoint x="443" y="101" as="sourcePoint" />
            <mxPoint x="446" y="178" as="targetPoint" />
          </mxGeometry>
        </mxCell>
        <mxCell id="IUOD3VCjlLtaYbZf3gaa-18" value="" style="group" parent="1" vertex="1" connectable="0">
          <mxGeometry x="251" y="25" width="94" height="76" as="geometry" />
        </mxCell>
        <mxCell id="IUOD3VCjlLtaYbZf3gaa-19" value="" style="image;sketch=0;aspect=fixed;html=1;points=[];align=center;fontSize=12;image=img/lib/mscae/VM_Linux.svg;" parent="IUOD3VCjlLtaYbZf3gaa-18" vertex="1">
          <mxGeometry width="82.6086956521739" height="76" as="geometry" />
        </mxCell>
        <mxCell id="IUOD3VCjlLtaYbZf3gaa-20" value="&lt;div&gt;&lt;br/&gt;&lt;/div&gt;" style="image;sketch=0;aspect=fixed;html=1;points=[];align=center;fontSize=12;image=img/lib/mscae/VirtualMachineWindows.svg;clipPath=inset(10.87% 12% 32.61% 14%);" parent="IUOD3VCjlLtaYbZf3gaa-18" vertex="1">
          <mxGeometry x="11.746800000000025" y="9.91304347826087" width="59.114782608695656" height="41.53565217391304" as="geometry" />
        </mxCell>
        <mxCell id="IUOD3VCjlLtaYbZf3gaa-21" value="Game" style="html=1;whiteSpace=wrap;strokeColor=none;fillColor=#0079D6;labelPosition=center;verticalLabelPosition=middle;verticalAlign=top;align=center;fontSize=12;outlineConnect=0;spacingTop=-6;fontColor=#FFFFFF;sketch=0;shape=mxgraph.sitemap.game;" parent="1" vertex="1">
          <mxGeometry x="205" y="445.5" width="119" height="69.5" as="geometry" />
        </mxCell>
        <mxCell id="IUOD3VCjlLtaYbZf3gaa-23" value="Error" style="html=1;whiteSpace=wrap;strokeColor=none;fillColor=#0079D6;labelPosition=center;verticalLabelPosition=middle;verticalAlign=top;align=center;fontSize=12;outlineConnect=0;spacingTop=-6;fontColor=#FFFFFF;sketch=0;shape=mxgraph.sitemap.error;" parent="1" vertex="1">
          <mxGeometry x="432" y="977" width="117" height="70" as="geometry" />
        </mxCell>
        <mxCell id="IUOD3VCjlLtaYbZf3gaa-36" value="" style="group" parent="1" vertex="1" connectable="0">
          <mxGeometry x="349" y="304" width="120" height="71.5" as="geometry" />
        </mxCell>
        <mxCell id="IUOD3VCjlLtaYbZf3gaa-37" value="&lt;div&gt;Home page&lt;/div&gt;" style="html=1;whiteSpace=wrap;strokeColor=none;fillColor=#0079D6;labelPosition=center;verticalLabelPosition=middle;verticalAlign=top;align=center;fontSize=12;outlineConnect=0;spacingTop=-6;fontColor=#FFFFFF;sketch=0;shape=mxgraph.sitemap.game;container=0;" parent="IUOD3VCjlLtaYbZf3gaa-36" vertex="1">
          <mxGeometry width="120" height="70" as="geometry" />
        </mxCell>
        <mxCell id="IUOD3VCjlLtaYbZf3gaa-38" value="" style="rounded=0;whiteSpace=wrap;html=1;strokeColor=none;fillColor=#80BCEB;container=0;" parent="IUOD3VCjlLtaYbZf3gaa-36" vertex="1">
          <mxGeometry x="10" y="20" width="100" height="45" as="geometry" />
        </mxCell>
        <mxCell id="IUOD3VCjlLtaYbZf3gaa-41" value="" style="sketch=0;pointerEvents=1;shadow=0;dashed=0;html=1;strokeColor=none;labelPosition=center;verticalLabelPosition=bottom;verticalAlign=top;outlineConnect=0;align=center;shape=mxgraph.office.concepts.home_page;fillColor=#0079D6;" parent="IUOD3VCjlLtaYbZf3gaa-36" vertex="1">
          <mxGeometry x="33.5" y="21" width="53" height="43" as="geometry" />
        </mxCell>
        <mxCell id="IUOD3VCjlLtaYbZf3gaa-40" value="" style="endArrow=classic;html=1;rounded=0;endFill=1;" parent="1" edge="1">
          <mxGeometry width="50" height="50" relative="1" as="geometry">
            <mxPoint x="408.57" y="248" as="sourcePoint" />
            <mxPoint x="409" y="304" as="targetPoint" />
          </mxGeometry>
        </mxCell>
        <mxCell id="IUOD3VCjlLtaYbZf3gaa-42" value="" style="endArrow=classic;html=1;rounded=0;endFill=1;" parent="1" edge="1">
          <mxGeometry width="50" height="50" relative="1" as="geometry">
            <mxPoint x="409" y="374" as="sourcePoint" />
            <mxPoint x="409" y="445" as="targetPoint" />
          </mxGeometry>
        </mxCell>
        <mxCell id="IUOD3VCjlLtaYbZf3gaa-45" value="" style="endArrow=classic;html=1;rounded=0;endFill=1;entryX=0.5;entryY=0;entryDx=0;entryDy=0;entryPerimeter=0;exitX=0.242;exitY=1;exitDx=0;exitDy=0;exitPerimeter=0;" parent="1" source="IUOD3VCjlLtaYbZf3gaa-37" target="IUOD3VCjlLtaYbZf3gaa-21" edge="1">
          <mxGeometry width="50" height="50" relative="1" as="geometry">
            <mxPoint x="376" y="376" as="sourcePoint" />
            <mxPoint x="301" y="449" as="targetPoint" />
          </mxGeometry>
        </mxCell>
        <mxCell id="IUOD3VCjlLtaYbZf3gaa-49" value="" style="endArrow=classic;html=1;rounded=0;exitX=0.75;exitY=1;exitDx=0;exitDy=0;exitPerimeter=0;endFill=1;entryX=0.5;entryY=0;entryDx=0;entryDy=0;entryPerimeter=0;" parent="1" source="IUOD3VCjlLtaYbZf3gaa-37" target="q1IYWbb1lAscTbEZNHsk-2" edge="1">
          <mxGeometry width="50" height="50" relative="1" as="geometry">
            <mxPoint x="440" y="375" as="sourcePoint" />
            <mxPoint x="559" y="445" as="targetPoint" />
          </mxGeometry>
        </mxCell>
        <mxCell id="IUOD3VCjlLtaYbZf3gaa-51" value="" style="group" parent="1" vertex="1" connectable="0">
          <mxGeometry x="272" y="977" width="125.57999999999998" height="79" as="geometry" />
        </mxCell>
        <mxCell id="IUOD3VCjlLtaYbZf3gaa-52" value="&lt;div&gt;Working&lt;/div&gt;" style="html=1;whiteSpace=wrap;strokeColor=none;fillColor=#0079D6;labelPosition=center;verticalLabelPosition=middle;verticalAlign=top;align=center;fontSize=12;outlineConnect=0;spacingTop=-6;fontColor=#FFFFFF;sketch=0;shape=mxgraph.sitemap.game;container=0;" parent="IUOD3VCjlLtaYbZf3gaa-51" vertex="1">
          <mxGeometry width="120" height="70" as="geometry" />
        </mxCell>
        <mxCell id="IUOD3VCjlLtaYbZf3gaa-53" value="" style="rounded=0;whiteSpace=wrap;html=1;strokeColor=none;fillColor=#80BCEB;container=0;" parent="IUOD3VCjlLtaYbZf3gaa-51" vertex="1">
          <mxGeometry x="10" y="20" width="100" height="45" as="geometry" />
        </mxCell>
        <mxCell id="q1IYWbb1lAscTbEZNHsk-17" value="" style="group" parent="IUOD3VCjlLtaYbZf3gaa-51" vertex="1" connectable="0">
          <mxGeometry x="45" y="20" width="80.57999999999998" height="59" as="geometry" />
        </mxCell>
        <mxCell id="q1IYWbb1lAscTbEZNHsk-13" value="" style="group" parent="q1IYWbb1lAscTbEZNHsk-17" vertex="1" connectable="0">
          <mxGeometry x="17.579999999999984" width="63" height="59" as="geometry" />
        </mxCell>
        <mxCell id="q1IYWbb1lAscTbEZNHsk-14" value="" style="ellipse;whiteSpace=wrap;html=1;aspect=fixed;fillColor=#0079D6;strokeColor=none;" parent="q1IYWbb1lAscTbEZNHsk-13" vertex="1">
          <mxGeometry x="-25" width="42.87577639751552" height="42.87577639751552" as="geometry" />
        </mxCell>
        <mxCell id="q1IYWbb1lAscTbEZNHsk-15" value="" style="sketch=0;html=1;aspect=fixed;strokeColor=none;shadow=0;align=center;fillColor=#80BCEA;verticalAlign=top;labelPosition=center;verticalLabelPosition=bottom;shape=mxgraph.gcp2.check" parent="q1IYWbb1lAscTbEZNHsk-17" vertex="1">
          <mxGeometry y="9.419999999999959" width="30.04" height="24.03" as="geometry" />
        </mxCell>
        <mxCell id="IUOD3VCjlLtaYbZf3gaa-69" value="" style="endArrow=classic;html=1;rounded=0;endFill=1;entryX=0.5;entryY=0;entryDx=0;entryDy=0;entryPerimeter=0;exitX=0.476;exitY=0.997;exitDx=0;exitDy=0;exitPerimeter=0;" parent="1" target="IUOD3VCjlLtaYbZf3gaa-52" edge="1">
          <mxGeometry width="50" height="50" relative="1" as="geometry">
            <mxPoint x="410.2159999999999" y="907.751" as="sourcePoint" />
            <mxPoint x="331" y="977" as="targetPoint" />
          </mxGeometry>
        </mxCell>
        <mxCell id="IUOD3VCjlLtaYbZf3gaa-70" value="" style="endArrow=classic;html=1;rounded=0;endFill=1;entryX=0.5;entryY=0;entryDx=0;entryDy=0;entryPerimeter=0;" parent="1" target="IUOD3VCjlLtaYbZf3gaa-23" edge="1">
          <mxGeometry width="50" height="50" relative="1" as="geometry">
            <mxPoint x="410" y="908" as="sourcePoint" />
            <mxPoint x="519" y="977" as="targetPoint" />
          </mxGeometry>
        </mxCell>
        <mxCell id="q1IYWbb1lAscTbEZNHsk-7" value="" style="group" parent="1" vertex="1" connectable="0">
          <mxGeometry x="343" y="444" width="137" height="75.5" as="geometry" />
        </mxCell>
        <mxCell id="q1IYWbb1lAscTbEZNHsk-8" value="&lt;div&gt;Movie/TV Series/Anime&lt;/div&gt;" style="html=1;whiteSpace=wrap;strokeColor=none;fillColor=#0079D6;labelPosition=center;verticalLabelPosition=middle;verticalAlign=top;align=center;fontSize=12;outlineConnect=0;spacingTop=-6;fontColor=#FFFFFF;sketch=0;shape=mxgraph.sitemap.game;container=0;" parent="q1IYWbb1lAscTbEZNHsk-7" vertex="1">
          <mxGeometry y="1.0134228187919463" width="135.9776119402985" height="69.9261744966443" as="geometry" />
        </mxCell>
        <mxCell id="q1IYWbb1lAscTbEZNHsk-9" value="" style="rounded=0;whiteSpace=wrap;html=1;strokeColor=none;fillColor=#80BCEB;container=0;" parent="q1IYWbb1lAscTbEZNHsk-7" vertex="1">
          <mxGeometry x="11.416666666666668" y="20.268456375838927" width="114.16666666666667" height="45.604026845637584" as="geometry" />
        </mxCell>
        <mxCell id="q1IYWbb1lAscTbEZNHsk-6" value="" style="shape=image;verticalLabelPosition=bottom;labelBackgroundColor=default;verticalAlign=top;aspect=fixed;imageAspect=0;image=data:image/png,iVBORw0KGgoAAAANSUhEUgAAArIAAAFKCAYAAADhULxpAAAgAElEQVR4Xu3dbaIdOY6c4Z7teIdewexwtmO3WqMqqe5HJs8hIwHy8d9iMoE3Asjoc2X7v/7l/yCAAAIIIIAAAggg0JDAfzWsWckIIIAAAggggAACCPxLkGUCBBBAAAEEEEAAgZYEBNmWsikaAQQQQAABBBBAQJDlAQQQQAABBBBAAIGWBATZlrIpGgEEEEAAAQQQQECQ5QEEEEAAAQQQQACBlgQE2ZayKRoBBBBAAAEEEEBAkOUBBBBAAAEEEEAAgZYEBNmWsikaAQQQQAABBBBAQJDlAQQQQAABBBBAAIGWBATZlrIpGgEEEEAAAQQQQECQ5QEEEEAAAQQQQACBlgQE2ZayKRoBBBBAAAEEEEBAkOUBBBBAAAEEEEAAgZYEBNmWsikaAQQQQAABBBBAQJDlAQQQQAABBBBAAIGWBATZlrIpGgEEEEAAAQQQQECQ5QEEEEAAAQQQQACBlgQE2ZayKRoBBBBAAAEEEEBAkOUBBBBAAAEEEEAAgZYEBNmWsikaAQQQQAABBBBAQJDlAQQQQAABBBBAAIGWBATZlrIpGgEEEEAAAQQQQECQ5QEEEEAAAQQQQACBlgQE2ZayKRoBBBBAAAEEEEBAkOUBBBBAAAEEEEAAgZYEBNmWsikaAQQQQAABBBBAQJDlAQQQQAABBBBAAIGWBATZlrIpGgEEEEAAAQQQQECQ5QEEEEAAAQQQQACBlgQE2ZayKRoBBBBAAAEEEEBAkOUBBBBAAAEEEEAAgZYEBNmWsikaAQQQQAABBBBAQJDlAQQQQAABBBBAAIGWBATZlrIpGgEEEEAAAQQQQECQ5QEEEEAAAQQQQACBlgQE2ZayKRoBBBBAAAEEEEBAkOUBBBBAAAEEEEAAgZYEBNmWsikaAQQQQAABBBBAQJDlAQQQQAABBBBAAIGWBPYJsv/3f/5fSwUUjcAJBP77/+yza07Qa3aP9vNsou5DYB6B5vu578fFYpxnYjchkCbQfHGmcbV7n/3cTjIFI/AXgWb7uV+QtSBNGwL7EGi2MPcBv6gT+3kRWNci8ACBJvu5T5C1IB9wsVciECLQZGGGaPR7jf3cTzMVI3CXQPH9XD/IWpB3reYcAv0JFF+Y/QFP7sB+ngzUdQgUJlB0P9cOspZkYUcrDYFFBIouy0Xd9r3Wfu6rncoReJVAwf1cN8hakq/azHMI9CdQcFn2hzqxA/t5IkxXIdCMQLH9XC/IWpDNHK1cBBYSKLYwF3ba42r7uYdOqkQgQaDIfhZkE2J7BwIIvEagyKJ8rfgNnxJkNxRVSwi8SKDIfq4VZC3JF93kMQQ2JlBkWW5M+F5r9vM9Tk4hcBKBAvu5TpC1JE+yvl4RGCNQYFmOFbzZaft5M0G1g8BEAg/v5xpB1pKc6ChXIbApgYeX5aZUr9uyn68ZOYHA6QQe3M+C7Onm0z8CnQg8uCw7YZpaqyA7FafLENiWwEP7+fkga0lu62mNITCdwEOLcnofXS60n7sopU4Enifw0H5+Nshaks8bTwUIdCPw0LLshunteu3ntxG6AIHjCDywnwXZ41ymYQSaE3hgUTYn9lr5guxr3DyFwMkEHtjPzwVZS/Jkq+sdgfcIPLAs3yu42dP2czPBlItAIQLh/SzIFtJeKQggcJNAeFHerGqfY4LsPlrqBIE0gfB+FmTTAnsfAgi8TyC8KN8vuNkNgmwzwZSLQCEC4f38TJC1JAs5TikINCUQXpZNKY2XbT+PM/MEAgj8SSC4nwVZ5kMAgZ4EgouyJ6AXqxZkXwTnMQQQ+ItAcD8LsnyHAAI9CQQXZU9AL1YtyL4IzmMIICDI8gACCCAwQkCYHaF176wge4+TUwgg8D2B0H7O/yJrSbI+AgjMIhBalLPKLX+P/VxeIgUi0IZAaD8Lsm0coVAEEPhAILQojyEvyB4jtUYRWE4gtJ8F2eVKegECCCwjEFqUy+qvdrEgW00R9SDQl0BoPwuyfS2icgQQCC3KY0ALssdIrVEElhMI7WdBdrmSXoAAAssIhBblsvqrXSzIVlNEPQj0JRDaz/sH2a9AVlrYIbEvpwGTj4iqMKnikSsTpXl14XLFrcp/r6Jfuo7v+FfxGCb287t7Iu2h0OycG2R/GCIt6lcmDIl9OQNVePwoFJOPclVh8p2R0h7qwORy8AodqKRfuhb7+b4Rq8xdFY9U+mYduJ8F2fuju/akxVA3uFmW972fZlVlbu4Tqn2ykn7pWvwqO+bNKrPHJ/d1S7MKeeTsIFvpV9lK/4subXYfkPuLKLQY7hf0j5Np71Tn8TLIhx6spl+6HrtozHhV5q+KT6rw+ErFNKcQD0G2UpgNiX65qdJm9/G4lOSPA1V88lnVae9UZjGmao3TFfVL1+SfGNz3YpX5q+KRSj9IHbSfBdlKQbbSEFgMH9cAJtcfuDSjKh/SazI9TlTUL12T/2E95tUqM8gn17qlGYW8Icj+kj4tsGV5PXS/nwgNxGVRVXxShcc/gaX5VOVwaaSiB6rql67Lfh4zaJU5rOKTKjwO2c+C7O9CG4I/bV+Fh1+qP/+oVFyWac9UZDAWAWqdrqxfujb/xOC+N6vMYRWPVPpmPZlxQr4QZJ8U2f/qv78oKy0Gy/Jr3dJsQotyzKiNT1fWL12b/Txm5CqzyCfH7WdB9umf3i1Ly3KMwJ+nq3w8flWV/ohU6/8dLSs8W12/dH3285grq8xjFZ9U4bH5fhZkPxtTQ+CfGFyt7yoeqfRL9Y9a0lyqfSiufFP9v3fQL13jV5pV8V4VHpV2ESafuzbNJTQjgmzlIGsxfD6MoeG4zBzppeDXoY8Eqnjh0ixNDqQ9/Yp+6RrN3Zh5X9F07A33TvPJR05pJiEvCLJfjURacMvy3nL6dSo0IJdFVfHJqTyq9H1plCYH0n5+Vb90nfbzmIFf1XXsLdenq/jkVB6hvgXZ70bBEPxJpwoPv1TX/aU67ZHQorz+Ym5yopN+6Vq/kriKB6vwsJ/t5/APToJshyBrMdRdDD8q8wH5W580iyohYpMcG/fyO/qlveZX2TGXv6Pt2Ju+P80n2+9nQfZqYAzBR0KY1GXy9Mcj7Y2n+73aH93+ezf90vUKs2OOrjKfVXzyNI80h1C/guydsUyL709Yd1T5eSY0KJcFVfHI00zSHKrof2mQJgc66peu2X6+b+Yq81nFI/bzfe8MnBRk78AyBHV/gXx6MfxOhk/y/8yiyofyzh7pcCbt4Rn6pWv2q+yYk2doPPbGz0/zybb7WZC9OyCGQJi945UqPnnq45Hu/6k+73ih45mu+qXrFmbH3F1lTqv45Cke6f5DfQqyI+OYNoE/Yd1XJzQwlwVV8chTv1Sn+6+i+6UxmhzorF+6dvv5vqmrzGkVj9jP971z46QgewPSX0dOH4LPWGHil+on/3lFlQ/kyB6pfDY9zzP1S9fuV9kxJ8/UeuzNf54+2Sfp3kOaC7KjA5E2gmU5plBocC6LquKTNI903+n+LoVvfqC7fun67ecxw1eZ1yo+SfNI9x3qT5AdG8Ofp9Nm8Ces+yqFBueyoCoeSf8JK913Fb0vDdHkwA76pXuwn++bu8q8VvGI/XzfO9+cFGRfwXjqEHzHCpOPdE5kku65yofxlT1S8Zkd9Ev34FfZMSdXmdkTfZLuOaS1IDs2gn+fThvCshxTKjRAl0VV8UmKR7rfVF+XQm9yYBf90n3Yz2MDUGVuq/gkxSPdb6gvQXZs/P48nTaFP2HdVys0QJcFVfFI6k9Y6X6r6HxphCYHdtIv3Yv9fN/kVea2ikfs5/ve+eSkIPsOvtOG4A4rTM7+JwZp/at8EO/MRoczO+mX7sWvsmMOrzK7J/kk3WtIY0F2bPTODil3WaWHxQfkrjLr/7/0TWsfWpT3ATc/uZt+6X7sorEBqDK/VXyymke6z9X9/K/bBNmxsfv8dNoc/oR1X7XQIF0WVMUjq/+Ele6zir6XBmhyYEf90j3Zz/fNXmV+q3jEfr7vnd9OCrIvYfvHQ6cMwQgrTM789T6te5UP4chsVD67o37pnvwqO+bwKjN8gk/SPYa0FWTHRu7r02mDWJZjyoUG6rKoKj5ZxSPd36o+LoXc9MCu+qX7sp/HBqTKHFfxySoe6f5W9fEPdwmyY+P2/em0SfwJ6756oYG6LKiKR1b9CSvdXxVdL4VvcmBn/dK92c/3TV9ljqt4xH6+751/nxRkh3BdHN59CF5hhclZ/8QgrXeVD+Ars1HxmZ31S/fmV9kxh1eZ5Z19ku4tpKkgOzZq16fTRrEsrzX5/URosC6LquKT2TzSfc2u/1K4zQ/srl+6P/t5bGCqzHMVn8zmke5rdv1fuEmQHRuze6fTZvEnrHu6rPpzzf23/32yikdmM0n3FVqUr0jc8pkT9Ev3aD/fH4Uq81zFI/bzLe8IsrcwDR7adQgGMfxxHJOP9HZkku6pyofvndmo9OwJ+qV79KvsmMOrzPSOPkn3FNJSkB0bsfun04axLO9rM/t/5Y69+c/TVXwya+Gk+5lV9zsa7vTsKfql+7Sfx6akylxX8cksHul+ZtV94R5Bdmy8xk6nTeNPWPf1CQ3YZUFVPDIr3Kf7qaLjpdBNDpykX7pX+/n+EFSZ6yoesZ+/9Y4ge3+0xk/uNgTjBM74c/q7XHbySbqXKh+8dz1Q5fmT9Ev36lfZMZdXme2dfJLuJaShIDs2WuOn08axLMc0Cg3aZVFVfPIuj3Qf79Z7KcxhB07TL92v/Tw2UFXmu4pP3uWR7uPdem+6RZC9CeqtY2nz+BPWfblCg3ZZUBWPvPsnrHQfVfS7FLjJgRP1S/dsP98fhirzXcUj9vOn3hFk74/U6yd3GYLXCfgnBnfY7eCTdA9VPnR39O1w5kT90j37VXZsEqrM+A4+SfcQ0k6QHRup10+nDWRZjmkVGrjLoqr45FUe6fpfrfNSiEMPnKpfum/7eWzAqsx5FZ+8yiNd/6t1jrnD/xe1g7zeO542kT9h3dcrNHCXBVXxyKt/wkrXX0W3S2GbHDhZv3Tv9vP9oagy51U8Yj//4R2/yN4fpfdPdh+C9wn4JwZ3GHb2Sbr2Kh+4O7p2OHOyfune/So7NhFVZr2zT9K1hzQTZMdG6f3TaSNZlmOahQbvsqgqPhnlka57tL5L8IcfOF2/dP/289jAVZn3Kj4Z5ZGue7S+MTf8dVqQfRHcW4+lzeRPWPflCg3eZUFVPDL6J6x03VX0uhS0yQH6/etfaQb28/3hqDLvVTxiP//HO4Ls/RGad7LrEMwj8PEmTPZgktaxyodt5Wwk76ZfnSA7GlJW+iTtC79Uj6l5dw+mdbxb11i3H04Lsm8CfPnxtKEshjGpQgN4WVQVn9zlka73bl2XoB34DwH6/TRCmoP9PDaAVea+ik/u8kjXe7euMfUF2Td5zX08baqvqg+Z7RJeFR5+Cflcqjs+SWt4p6ZL4znwFwH6/W2GNAv7+f4gVpn7Kh65+81K1xvSyS+y90dn/sm0qfyv/jENQ0N4WVQnn6RrraLRpYhNDtCvXpC9G1ISFkv7wzdrTNWrfZjW76qese6+PC3ITgL58jVpY1kMY1KFBvGyqCo+ueKRrvOqnkuwDvxBgH5/GiLNw34eG8gq81/FJ1c80nVe1TOmtiA7ideaa9Lm8ies+zqGBvGyoCoeufp1KF1nFX0uBWxygH4fhUozsZ/vD0uV+a/ikUP3s19k74/MupNdhmAdgbofj6vFgMmzv2BV+ZAlfbDyXeld1EG/NBO/yo45vIqHOvgkXWNIm/2D7NhIOI0AAp0IhBZlJyRv1Zr+0L1VrIcRQKA0gdB+FmRLu0BxCCDwLYHQojxGBUH2GKk1isByAqH9LMguV9ILEEBgGYHQolxWf7WLBdlqiqgHgb4EQvtZkO1rEZUjgEBoUR4DWpA9RmqNIrCcQGg/C7LLlfQCBBBYRiC0KJfVX+1iQbaaIupBoC+B0H4WZPtaROUIIBBalMeAFmSPkVqjCCwnENrPguxyJb0AAQSWEQgtymX1V7tYkK2miHoQ6EsgtJ8F2b4WUTkCCIQW5TGgBdljpNYoAssJhPazILtcSS9AAIFlBEKLcln91S4WZKspoh4E+hII7WdBtq9FVI4AAqFFeQxoQfYYqTWKwHICof0syC5X0gsQQGAZgdCiXFZ/tYsF2WqKqAeBvgRC+1mQ7WsRlSOAQGhRHgNakD1Gao0isJxAaD8LssuV9AIEEFhGILQol9Vf7WJBtpoi6kGgL4HQfhZk+1pE5QggEFqUx4AWZI+RWqMILCcQ2s+C7HIlvQABBJYRCC3KZfVXu1iQraaIehDoSyC0nwXZvhZROQIIhBblMaAF2WOk1igCywmE9rMgu1xJL0AAgWUEQotyWf3VLhZkqymiHgT6EgjtZ0G2r0VUjgACoUV5DGhB9hipNYrAcgKh/SzILlfSCxBAYBmB0KJcVn+1iwXZaoqoB4G+BEL7WZDtaxGVI4BAaFEeA1qQPUZqjSKwnEBoPwuyy5X0AgQQWEYgtCiX1V/tYkG2miLqQaAvgdB+FmT7WkTlCCAQWpTHgBZkj5FaowgsJxDaz4LsciW9AAEElhEILcpl9Ve7WJCtpoh6EOhLILSfBdm+FlE5AgiEFuUxoAXZY6TWKALLCYT2syC7XEkvQACBZQRCi3JZ/dUuFmSrKaIeBPoSCO1nQbavRVSOAAKhRXkMaEH2GKk1isByAqH9LMguV9ILEEBgGYHQolxWf7WLBdlqiqgHgb4EQvtZkO1rEZUjgEBoUR4DWpA9RmqNIrCcQGg/C7LLlfQCBBBYRiC0KJfVX+1iQbaaIupBoC+B0H4WZPtaROUIIBBalMeATgdZ+h1jLY0WILDpfAuyBbylBAQQeJGAIPQiuC8e2/RDNxeS2xBoSmDT+RZkm/pR2Qgg8G8CguxcG2z6oZsLyW0INCWw6XwLsk39qGwEEBBkp3tg0w/ddE4uRKAjgU3nW5DtaEY1I4DATwJ+kZ3rhE0/dHMhuQ2BpgQ2nW9BtqkflY0AAoLsdA9s+qGbzsmFCHQksOl8C7IdzahmBBDwi+wKD2z6oVuByp0ItCOw6XwLsu2cqGAEEPiLgH9aMNcMm37o5kJyGwJNCWw634JsUz8qGwEE/NOC6R7Y9EM3nZMLEehIYNP5FmQ7mlHNCCDgnxas8MCmH7oVqNyJQDsCm863INvOiQpGAAH/tGCRBzb90C2i5VoEehHYdL4F2V42VC0CCPxOwL+RneuHTT90cyG5DYGmBDadb0G2qR+VjQAC/yYgyM61waYfurmQ3IZAUwKbzrcg29SPykYAAUF2ugc2/dBN51Ttwt918z/uqqlTp55N51uQrWOx+pX8WJDpQahPRYVPEvDRnks/Pd/0m6PfP3XDdQ7X3W7ZdL4F2d2MurKf35djeiBW9uXuvgR8sOdql55r+s3R7yvd8J3Dd5dbNp1vQXYXgyb6+Gwppgcj0ad39CHgQz1Xq/Q802+Ofle64TyHc/dbrnwyu7+Q7wTZ2cLtfN9XpkwPx86M9TZGILQox4pqfDo9y/SbY5a7uuE9h3fXW+76ZFZ/Ib8JsrMEO+GeK1Omh+QE5nr8nsCVJ/EbI5CeYfqN6fPV6VHdcJ/Dvdstoz55t7+QzwTZd4U66fm7pkwPy0ka6PVPAnc9ids9AunZpd89Xa5Ovaob/ldk9/rvr/rkVQohfwmyrwp04nOjpkwPzYmanN7zqCdP53XVf3pm6XelyL3//q5udLjHufupd30y2n/IV4LsqDAnn3/VlOnhOVmj03p/1ZOncbrbb3pW6XdXme/PzdCNFnO0qHzLDJ+M9BfylCA7IsrpZ981ZXqITtfrhP7f9eQJjEZ6TM8o/UbU+frsTN1oMkeTirfM9Mmd/kJeEmTviOHMTwIzTJkeJNrtTWCGJ/cmNNZdej7pN6bPV6dX6EabOdpUumWFT77rL+QhQbaSyarXMtOU6YGqzlZ9rxGY6cnXKtjrqfRc0m+Of1bqRqM5GlW4ZaVPPusv5B1BtoK5utSwwpTpwerCWp33CKzw5L0373kqPY/0m+OjhG60mqPVk7ckfPJ7fyHPCLJPmqrbu1eaMj1g3dir93MCKz15IvP0HNJvjsuSutFsjmZP3JL0yY/+Ql4RZJ8wU9d3JkyZHrSuWqj7J4GEJ09inZ4/+s1xF93mcNz9lk19IsjubtyZ/SU/OumBm8nJXTkCSU/munruTem5o98crdO6/aqafnP0S92S9knIH4JsykA7vCdkyr9QpYduB41O6yHtyd35pmeOfnMcldbtn1XTcY6Oq29J+yTkC0F2tXF2uj9kyg/I0sO3k2a79/KUJ3flmp41+s1xUlq3r6qm5xw9V92S9knID4LsKsPseG/IlF+iSw/hjhru1tPTntyNZ3rG6DfHQWndrqqm6xWhZ/572ichHwiyz9ip51tDpryEkx7Gy4IceIxAFU8+BmDyi9OzRb85AqZ1u1s1fe+SypxL+ySkvyCbsc8ebwmZ8jas9FDeLszBGIFqnow1vuhF6Zmi3xwh07qNVE3jEVprz6Z9EtJekF1rm71uD5lyGFp6OIcL9MAyAlU9uazhxRenZ4l+cwRN6/ZK1bR+hdrcZ9I+CWkuyM61yd63hUz5EsT0gL5UpIemE6jsyenNBi5MzxH95oia1u2dqmn+Dr33nk37JKS1IPueLc56OmTKt6CmB/WtYj38NoEOnny7yeAF6fmh3xxx07rNqJr2MyiO3ZH2SUhjQXbMBmefDplyCuT0wE4p2iXDBDp5cri5Bx5Izw395oic1m1O1T9v4YGZNL+/K+2TkLaCbM5C/d8UMuVUUOnBnVq8yy4JdPTkZVMPHkjPC/3miJ3WbU7Vf97CCyuo/nln2ichTQXZ9dbZ5w0hUy4Blh7gJU249AOBzp6sKGd6Tug3xwVp3eZU/fEWflhF9ue9aZ+E9BRk19pmr9tDplwKLT3IS5txuT9LTvZAej522CmTJXjpurRuLxU58BBfDMAaOJr2SUhHQXbAA8cfDZlyOef0MC9v6OAX7OLJKhKmZ4N+c5RP6zan6utb+OOa0ciJtE9C+gmyIyY4/WzIlDHM6aGONXbQi3bz5NPSpWeCfnMUT+s2p+r7t/DJfVbfnUz7JKSbIDvHHmfcEjJlHGZ6uOMNbvzCXT35lGTpWaDfHKXTus2pevwWfhln9vsTaZ+E9BJk37PFWU+HTPkY1PSQP9boRi/e3ZNpqdIzQL85Cqd1m1P167fwzWvs0j4J6STIvmaHM58KmfJxuOlhf7zhxgWc4smURGnv02+Osmnd5lT93i28M84v7ZOQRoLsuBXOfSJkyjKA00NfpvFGhZzmydXSpD1PvzmKpnWbU/WcW3joPse0T0LaCLL3LeBkyJSlQKcHv1TzDYo50ZMrZUn7nX5z1EzrNqfqubfw0jXPtE9Cmgiy19I78YtAyJQlgacXQEkIBYs62ZMr5Ej7nH5zVEzrNqfqNbfw1Ndc0z4JaSHIrhmlPW8NmbI0vPQiKA2jQHE8OVeEtL/pN0e/tG5zql57C2995Jv2SUgDQXbtKO11e8iULaClF0ILKA8UyZNzoad9Tb85+qV1m1N15hYe+5tz2ich9oJsZpT2eEvIlK1gpRdDKziBYnlyLuS0n+k3R7+0bnOqzt3CZz9Zp30S4i7I5kap/5tCpmwJKr0gWkJaUDRPzoWa9jH95uiX1m1O1flbTvdb2ich3oJsfpT6vjFkyraA0kuiLaiJhfPkRJj7/mIzF1LB2+yeMVFO3Rtpn4Q4C7Jj9j/7dMiU7SGnl0V7YG80wJNvwPvk0bR36TdHv7Ruc6p+9pYTvZf2SYixIPvsKPV6e8iUvaD8b7XpBdES0oKieXIu1LSP6TdHv7Ruc6p+5paTPZf2SYi1IPvMKPV8a8iU7eCkl0M7QAsL5sm5cNNept8c/dK6zak6ewuv+b/sNc1xBm4ayvhFFsGfyHk5bsEPL+TJuRqkPU2/OfqldZtTde4WPvvJOu2TEHe/yOZGqf+bQqYsDyq9DMoDebBAnpwLP+1t+s3RL63bnKrX38Jfz/74EuIvyK4fpX3eEDJlWWA+FvWkOd2TsxVJe5x+cxRM6zan6nW38NXnbNM+CekgyK4bpf1uDpmyHLj08JcDULigUz25SpK01+k3R8m0bnOqnn8LP33PNO2TkB6C7PxR2vfGkCnLAEwPfZnGGxVymidXS5P2PP3mKJrWbU7V827ho3ss0z4J6SLI3pPfqR8EQqYsATs98CWabljESZ5MyJP2Pf3mqJrWbU7V79/CP2MM0z4J6SPIjtng7NMhUz4KOT3ojza7wctP8GRSprT/6TdH3bRuc6p+7xbeGeeX9klII0F23ArnPhEy5SOA0wP+SJMbvnRnTz4hV3oO6DdH5bRuc6p+7RaeeY3bj6fSPglpJci+bonzngyZMgo2PdjR5g542Y6efFK29DzQb47aad3mVD12C6+M8frsdNonIc0E2fetcc4NIVNGgKYHOtLUgS/ZyZMV5EvPBf3mqJ7WbU7V927hkXuc7pxK+ySknSB7R3xnfhIImXIp7vQgL23G5Vt4spKM6fnYYadU0C+tW6Jn3phPOe2TkIaC7Hyr7HtjyJTLAKaHeFkjLv6LQHdPVpMyPSP0m+OAtG5zqv78Fp5YRzftk5CWguw6y+x3c8iU08Glh3d6Ay78kkBXT1aVND0r9JvjhLRuc6r+eAs/rCL78960T0J6CrJrbbPX7SFTToOWHtpphbvoNoFunrzd2EMH0zNDvzlCp3WbU/Xft/DBbKKf35f2SUhXQTZjnz3eEjLl27DSw/p2wS54mUAXT77cYPjB9OzQb47Aad3mVL3H/72LWSwS96R9EppvQTZhnl3eETLly7jSQ/pyoR6cRqC6J6c1GrooPUP0myNsWrd3q6b7uwRfez7tk5DOguxrdjjzqZAph+Gmh3O4QA8sI1DVk8saXnxxepboN3GVc6wAAAtISURBVEfQtG6vVk3vV8nNeS7tk5Deguwce5xxS8iUQzDTgzlUnMPLCVT05PKmF74gPU/0myNmWrfRquk8SmzN+bRPQroLsmvssuetIVPegpceyFtFORQnUMmT8eYXvDA9V/SbI2Jat5GqaTxCa+3ZtE9C2guya22z1+0hU34LLT2Ieym4XzcVPLkT1fR80W+Oe9K63amatncoZc+kfRLygCCbtVHvt4VM+Smk9AD2Vuqc6p/05I6U03NGvzkuSuv2XdU0naPpilvSPgl5QZBdYZZd7wyZ8g986cHbVbtd+3rCk7uy/NFXet7oN8dNad0+q5qWc7RceUvaJyFPCLIrTbPb3SFT/gdbeuB20+qUfpKePIFpeu7oN8dVad1+r5qGczRM3JL2ScgbgmzCPLu8I2RKIXYXwwT6SHky0EqJV2z6oSvBdmURad1+9GL2Viq65u60T0IeEWTX2GXPW1ebMj1ke6p0VlerPXkWzfxfQug3x2Hp3Um3Obqlb9nUJ4Js2kid37dqeaWHq7MGav+TwCpPnso5PYv0m+O0lG70mqPXU7ekfPKrv5BfBNmnDNXxvbNNmR6qjszV/D2B2Z48nXd6Juk3x3GrdaPTHJ2evmW1T/7ZX8g3guzTxur0/lmmTA9TJ8ZqHSMwy5Njb933dHo26TfHS6t0o88cfarcssonX/UX8o8gW8VgHep415TpIerAVI3vEXjXk++9fb+n0zNKvzkemq0bXeboUu2W2T656i/kI0H2Sgj//W8C75gyPUB0O4PAO548g9BYl+k5pd+YPl+dnqUbPeboUfWWWT6521/IT4LsXUGce+3/uZX04NDpLAKhRXkM1PS80m+OtWboRos5WlS+ZYZPRvoLeUqQHRHl9LMjpkwPzOnanNr/iCdPZTTSd3pu6Teiztdn39GNBnM06HDLOz55pb+QtwTZV8Q59Zk7pkwPyqla6PsngTuexOo+gfT80u++Nt+dfEU37Oew73TLKz55p7+QxwTZd0Q67dnvTJkekNPY6/dzAqFFeQz+9BzTb461RnTDfA7zjreM+GRGfyGvCbIzxDrljs9MmR6MU1jr8x6B0KK8V8wGp9LzTL85prmjG9ZzWHe+5Y5PZvYX8pwgO1O03e/6pynTQ7E7X/2NEwgtyvHCmj6Rnmn6zTHKd7phPIfxDrdsOt+C7A7mTPXwayGmhyHVn/f0I+AjPVez9GzTb45+X+mG7xy+u9yy6XwLsrsYVB8InEjAh3qu6pt+6OZCKnjbP3UzFwVFKlDSpvMtyBbwlhIQQOBFAj7YL4L74rFNP3RzIRW87Zdu5qGgOIVK2nS+BdlCHlMKAggMEvDhHgR2cXzTD91cSG5DoCmBTedbkG3qR2UjgMC/CQiyc22w6YduLiS3IdCUwKbzLcg29aOyEUBAkJ3ugU0/dNM5uRCBjgQ2nW9BtqMZ1YwAAj8J+EV2rhM2/dDNheQ2BJoS2HS+BdmmflQ2AggIstM9sOmHbjonFyLQkcCm8y3IdjSjmhFAwC+yKzyw6YduBSp3ItCOwKbzLci2c6KCEUDgLwL+acFcM2z6oZsLyW0INCWw6XwLsk39qGwEEPBPC6Z7YNMP3XROLkSgI4FN51uQ7WhGNSOAgH9asMIDm37oVqByJwLtCGw634JsOycqGAEE/NOCRR7Y9EO3iJZrEehFYNP5FmR72VC1CCDwOwH/RnauHzb90M2F5DYEmhLYdL4F2aZ+VDYCCPybgCA71wabfujmQnIbAk0JbDrfgmxTPyobAQQE2eke2PRDN52TCxHoSGDT+RZkO5pRzQgg8JOAX2TnOiH9oZtbvdsQQKASgdB+FmQria4WBBAYIxBalGNFNT4tyDYWT+kIFCMQ2s+CbDHdlYMAAgMEQotyoKLeRwXZ3vqpHoFKBEL7WZCtJLpaEEBgjEBoUY4V1fi0INtYPKUjUIxAaD8LssV0Vw4CCAwQCC3KgYp6HxVke+unegQqEQjt53yQ/QHZsqxkNbUg0JdAaFH2BfRC5fbzC9A8ggACHwiE9rMgy3sIINCTQGhJ9oTzRtWC7BvwPIoAAv8hENzPgizPIYBATwLBRdkT0ItVC7IvgvMYAgj8RSC4nwVZvkMAgZ4EgouyJ6AXqxZkXwTnMQQQOCfI/ujUsuR4BBB4lYAQ+yq5e8/Zz/c4OYUAAh8JhPfzM7/ICrKsjwAC7xAIL8p3Sm35rCDbUjZFI1CCQHg/C7IlVFcEAggMEQgvyqHadjgsyO6goh4QeIZAeD8/F2T9KvuMwbwVge4EwkuyO66X6xdmX0bnQQSOJfDAfhZkj3WbxhFoSuCBRdmU1HtlC7Lv8fM0AicSeGA/Pxtk/Sp7os31jMDrBB5Ykq8Xu8GTwuwGImoBgRCBh/azIBvS12sQQGACgYcW5YTKe14hyPbUTdUIPEHgof38fJD1q+wTdvNOBPoReGhJ9gM1uWJhdjJQ1yGwIYEH93ONICvMbuhqLSEwkcCDS3JiF32vEmb7aqdyBFYTeHg/1wmywuxqq7kfgZ4EHl6SPaEtqFqYXQDVlQg0J1BgP9cKssJsc0crH4EFBAosygVd9bxSmO2pm6oRWEWgwH4WZFeJ614EEHifQIEl+X4TG90gyG4kplYQeJNAkf1cL8j+4mphvukwjyPQmECRBdmY4NrS7ee1fN2OQGUCxfZz3SD7Q0TLsrKV1YbAGgLFluSaJje41X7eQEQtIDBIoOB+rh1khdlBhzmOQHMCBZdkc6Jryxdm1/J1OwKVCBTdz/WD7C8RLcxKdlYLAnMJFF2Qc5vc+Db7eWNxtXY8geL7uU+QFWiPnyUANiRQfEFuSHxtSwLtWr5uRyBJoMl+7hdkBdqkjb0LgTUEmizINc0fcKtAe4DIWtyWQLP93DfI/u4gS3PbedLYRgSaLceNyD/biv38LH9vR+AOgcb7eY8ge0ckZxBAAAEEEEAAAQS2IiDIbiWnZhBAAAEEEEAAgXMICLLnaK1TBBBAAAEEEEBgKwKC7FZyagYBBBBAAAEEEDiHgCB7jtY6RQABBBBAAAEEtiIgyG4lp2YQQAABBBBAAIFzCAiy52itUwQQQAABBBBAYCsCguxWcmoGAQQQQAABBBA4h4Age47WOkUAAQQQQAABBLYiIMhuJadmEEAAAQQQQACBcwgIsudorVMEEEAAAQQQQGArAoLsVnJqBgEEEEAAAQQQOIeAIHuO1jpFAAEEEEAAAQS2IiDIbiWnZhBAAAEEEEAAgXMICLLnaK1TBBBAAAEEEEBgKwKC7FZyagYBBBBAAAEEEDiHgCB7jtY6RQABBBBAAAEEtiIgyG4lp2YQQAABBBBAAIFzCAiy52itUwQQQAABBBBAYCsCguxWcmoGAQQQQAABBBA4h4Age47WOkUAAQQQQAABBLYiIMhuJadmEEAAAQQQQACBcwgIsudorVMEEEAAAQQQQGArAoLsVnJqBgEEEEAAAQQQOIeAIHuO1jpFAAEEEEAAAQS2IiDIbiWnZhBAAAEEEEAAgXMICLLnaK1TBBBAAAEEEEBgKwKC7FZyagYBBBBAAAEEEDiHgCB7jtY6RQABBBBAAAEEtiIgyG4lp2YQQAABBBBAAIFzCAiy52itUwQQQAABBBBAYCsCguxWcmoGAQQQQAABBBA4h4Age47WOkUAAQQQQAABBLYiIMhuJadmEEAAAQQQQACBcwgIsudorVMEEEAAAQQQQGArAoLsVnJqBgEEEEAAAQQQOIeAIHuO1jpFAAEEEEAAAQS2IiDIbiWnZhBAAAEEEEAAgXMICLLnaK1TBBBAAAEEEEBgKwKC7FZyagYBBBBAAAEEEDiHgCB7jtY6RQABBBBAAAEEtiLw/wERvRIdiAfSBQAAAABJRU5ErkJggg==;clipPath=inset(0.35% 0% 1.05% 50.33%);" parent="q1IYWbb1lAscTbEZNHsk-7" vertex="1">
          <mxGeometry x="30.92283582089552" y="12.161073825503355" width="66.92644295302014" height="63.33892617449664" as="geometry" />
        </mxCell>
        <mxCell id="q1IYWbb1lAscTbEZNHsk-2" value="Book/Manga&lt;div&gt;&lt;br&gt;&lt;/div&gt;" style="html=1;whiteSpace=wrap;strokeColor=none;fillColor=#0079D6;labelPosition=center;verticalLabelPosition=middle;verticalAlign=top;align=center;fontSize=12;outlineConnect=0;spacingTop=-6;fontColor=#FFFFFF;sketch=0;shape=mxgraph.sitemap.game;container=0;" parent="1" vertex="1">
          <mxGeometry x="498" y="445.5" width="118" height="69.99999999999999" as="geometry" />
        </mxCell>
        <mxCell id="q1IYWbb1lAscTbEZNHsk-3" value="" style="rounded=0;whiteSpace=wrap;html=1;strokeColor=none;fillColor=#80BCEB;container=0;" parent="1" vertex="1">
          <mxGeometry x="501.6633333333333" y="465.5" width="98.33333333333334" height="44.99999999999999" as="geometry" />
        </mxCell>
        <mxCell id="q1IYWbb1lAscTbEZNHsk-36" value="Search" style="html=1;whiteSpace=wrap;strokeColor=none;fillColor=#0079D6;labelPosition=center;verticalLabelPosition=middle;verticalAlign=top;align=center;fontSize=12;outlineConnect=0;spacingTop=-6;fontColor=#FFFFFF;sketch=0;shape=mxgraph.sitemap.search;" parent="1" vertex="1">
          <mxGeometry x="272.7900000000001" y="688" width="120" height="70" as="geometry" />
        </mxCell>
        <mxCell id="q1IYWbb1lAscTbEZNHsk-37" value="" style="endArrow=classic;html=1;rounded=0;endFill=1;entryX=0.5;entryY=0;entryDx=0;entryDy=0;entryPerimeter=0;" parent="1" edge="1">
          <mxGeometry width="50" height="50" relative="1" as="geometry">
            <mxPoint x="332.59" y="618.5" as="sourcePoint" />
            <mxPoint x="332.59" y="688.5" as="targetPoint" />
          </mxGeometry>
        </mxCell>
        <mxCell id="q1IYWbb1lAscTbEZNHsk-46" value="" style="group" parent="1" vertex="1" connectable="0">
          <mxGeometry x="511" y="453" width="92.25" height="69.5" as="geometry" />
        </mxCell>
        <mxCell id="q1IYWbb1lAscTbEZNHsk-38" value="🕮" style="text;whiteSpace=wrap;align=center;fontSize=50;container=0;fontColor=#0079D6;fontStyle=1" parent="q1IYWbb1lAscTbEZNHsk-46" vertex="1">
          <mxGeometry width="92.25" height="69.5" as="geometry" />
        </mxCell>
        <mxCell id="q1IYWbb1lAscTbEZNHsk-39" value="" style="group" parent="q1IYWbb1lAscTbEZNHsk-46" vertex="1" connectable="0">
          <mxGeometry x="20.418503020561957" y="20.75" width="52.296091307921984" height="33.301055427952974" as="geometry" />
        </mxCell>
        <mxCell id="q1IYWbb1lAscTbEZNHsk-40" value="" style="rounded=0;whiteSpace=wrap;html=1;fillColor=#0079D6;strokeColor=none;" parent="q1IYWbb1lAscTbEZNHsk-39" vertex="1">
          <mxGeometry x="0.5814969794380431" width="3" height="33" as="geometry" />
        </mxCell>
        <mxCell id="q1IYWbb1lAscTbEZNHsk-42" value="" style="rounded=0;whiteSpace=wrap;html=1;fillColor=#0079D6;strokeColor=none;rotation=85;" parent="q1IYWbb1lAscTbEZNHsk-39" vertex="1">
          <mxGeometry x="10.211496979438039" y="19.129999999999995" width="3" height="23.25" as="geometry" />
        </mxCell>
        <mxCell id="q1IYWbb1lAscTbEZNHsk-45" value="" style="group" parent="q1IYWbb1lAscTbEZNHsk-39" vertex="1" connectable="0">
          <mxGeometry x="20.21149697943804" y="0.25" width="32.0845943284839" height="33.051055427952974" as="geometry" />
        </mxCell>
        <mxCell id="q1IYWbb1lAscTbEZNHsk-41" value="" style="rounded=0;whiteSpace=wrap;html=1;fillColor=#0079D6;strokeColor=none;" parent="q1IYWbb1lAscTbEZNHsk-45" vertex="1">
          <mxGeometry x="27.370000000000005" width="3" height="33" as="geometry" />
        </mxCell>
        <mxCell id="q1IYWbb1lAscTbEZNHsk-43" value="" style="rounded=0;whiteSpace=wrap;html=1;fillColor=#0079D6;strokeColor=none;rotation=95;" parent="q1IYWbb1lAscTbEZNHsk-45" vertex="1">
          <mxGeometry x="18.375" y="18.375" width="3" height="24.25" as="geometry" />
        </mxCell>
        <mxCell id="q1IYWbb1lAscTbEZNHsk-44" value="" style="rounded=0;whiteSpace=wrap;html=1;fillColor=#0079D6;strokeColor=none;rotation=90;" parent="q1IYWbb1lAscTbEZNHsk-45" vertex="1">
          <mxGeometry x="4.5" y="25.75" width="2" height="11" as="geometry" />
        </mxCell>
        <mxCell id="q1IYWbb1lAscTbEZNHsk-57" value="" style="group" parent="1" vertex="1" connectable="0">
          <mxGeometry x="429" y="688" width="170.05" height="78.5" as="geometry" />
        </mxCell>
        <mxCell id="q1IYWbb1lAscTbEZNHsk-58" value="Import" style="html=1;whiteSpace=wrap;strokeColor=none;fillColor=#0079D6;labelPosition=center;verticalLabelPosition=middle;verticalAlign=top;align=center;fontSize=12;outlineConnect=0;spacingTop=-6;fontColor=#FFFFFF;sketch=0;shape=mxgraph.sitemap.game;" parent="q1IYWbb1lAscTbEZNHsk-57" vertex="1">
          <mxGeometry width="121.20456165359941" height="70.90322580645162" as="geometry" />
        </mxCell>
        <mxCell id="q1IYWbb1lAscTbEZNHsk-61" value="" style="group" parent="q1IYWbb1lAscTbEZNHsk-57" vertex="1" connectable="0">
          <mxGeometry x="10.100380137799952" y="17.725806451612904" width="101.00380137799951" height="50.645161290322584" as="geometry" />
        </mxCell>
        <mxCell id="q1IYWbb1lAscTbEZNHsk-59" value="" style="rounded=0;whiteSpace=wrap;html=1;strokeColor=none;fillColor=#80BCEB;" parent="q1IYWbb1lAscTbEZNHsk-61" vertex="1">
          <mxGeometry y="2.532258064516129" width="101.00380137799951" height="45.58064516129033" as="geometry" />
        </mxCell>
        <mxCell id="q1IYWbb1lAscTbEZNHsk-60" value="" style="sketch=0;aspect=fixed;pointerEvents=1;shadow=0;dashed=0;html=1;strokeColor=none;labelPosition=center;verticalLabelPosition=bottom;verticalAlign=top;align=center;fillColor=#0079D6;shape=mxgraph.mscae.enterprise.import_generic" parent="q1IYWbb1lAscTbEZNHsk-61" vertex="1">
          <mxGeometry x="30.301140413399853" width="40.40152055119981" height="50.501900688999754" as="geometry" />
        </mxCell>
        <mxCell id="q1IYWbb1lAscTbEZNHsk-62" value="" style="shape=partialRectangle;whiteSpace=wrap;html=1;bottom=1;right=1;left=1;top=0;fillColor=none;routingCenterX=-0.5;" parent="1" vertex="1">
          <mxGeometry x="262" y="515.5" width="294" height="103" as="geometry" />
        </mxCell>
        <mxCell id="q1IYWbb1lAscTbEZNHsk-64" value="" style="endArrow=none;html=1;rounded=0;exitX=0.5;exitY=1;exitDx=0;exitDy=0;" parent="1" source="q1IYWbb1lAscTbEZNHsk-62" edge="1">
          <mxGeometry width="50" height="50" relative="1" as="geometry">
            <mxPoint x="415" y="577" as="sourcePoint" />
            <mxPoint x="409" y="515" as="targetPoint" />
          </mxGeometry>
        </mxCell>
        <mxCell id="q1IYWbb1lAscTbEZNHsk-65" value="" style="endArrow=classic;html=1;rounded=0;endFill=1;entryX=0.5;entryY=0;entryDx=0;entryDy=0;entryPerimeter=0;" parent="1" edge="1">
          <mxGeometry width="50" height="50" relative="1" as="geometry">
            <mxPoint x="488.3" y="618.5" as="sourcePoint" />
            <mxPoint x="488.3" y="688.5" as="targetPoint" />
          </mxGeometry>
        </mxCell>
        <mxCell id="q1IYWbb1lAscTbEZNHsk-66" value="" style="group" parent="1" vertex="1" connectable="0">
          <mxGeometry x="351" y="839" width="120" height="70" as="geometry" />
        </mxCell>
        <mxCell id="q1IYWbb1lAscTbEZNHsk-67" value="Add note" style="html=1;whiteSpace=wrap;strokeColor=none;fillColor=#0079D6;labelPosition=center;verticalLabelPosition=middle;verticalAlign=top;align=center;fontSize=12;outlineConnect=0;spacingTop=-6;fontColor=#FFFFFF;sketch=0;shape=mxgraph.sitemap.map;movable=1;resizable=1;rotatable=1;deletable=1;editable=1;locked=0;connectable=1;container=0;" parent="q1IYWbb1lAscTbEZNHsk-66" vertex="1">
          <mxGeometry width="120" height="70" as="geometry" />
        </mxCell>
        <mxCell id="q1IYWbb1lAscTbEZNHsk-68" value="" style="rounded=0;whiteSpace=wrap;html=1;strokeColor=none;fillColor=#80BCEB;movable=1;resizable=1;rotatable=1;deletable=1;editable=1;locked=0;connectable=1;container=0;" parent="q1IYWbb1lAscTbEZNHsk-66" vertex="1">
          <mxGeometry x="12.5" y="20" width="95" height="45" as="geometry" />
        </mxCell>
        <mxCell id="q1IYWbb1lAscTbEZNHsk-69" value="" style="shape=image;verticalLabelPosition=bottom;labelBackgroundColor=default;verticalAlign=top;aspect=fixed;imageAspect=0;image=data:image/png,iVBORw0KGgoAAAANSUhEUgAAAgAAAAIACAYAAAD0eNT6AAAgAElEQVR4Xu3dW6IdOVOE0f6nwwwZATNkOmCDDW637V0XSZEpLV5dJWV+kZegzm7411/+BwEEEEAAAQSOI/Cv4zKWMAIIIIAAAgj8xQAoAgQQQAABBA4kwAAcKLqUEUAAAQQQYADUAAIIIIAAAgcSYAAOFF3KCCCAAAIIMABqAAEEEEAAgQMJMAAHii5lBBBAAAEEGAA1gAACCCCAwIEEGIADRZcyAggggAACDIAaQAABBBBA4EACDMCBoksZAQQQQAABBkANIIAAAgggcCABBuBA0aWMAAIIIIAAA6AGEEAAAQQQOJAAA3Cg6FJGAAEEEECAAVADCCCAAAIIHEiAAThQdCkjgAACCCDAAKgBBBBAAAEEDiTAABwoupQRQAABBBBgANQAAggggAACBxJgAA4UXcoIIIAAAggwAGoAAQQQQACBAwkwAAeKLmUEEEAAAQQYADWAAAIIIIDAgQQYgANFlzICCCCAAAIMgBpAAAEEEEDgQAIMwIGiSxkBBBBAAAEGQA0ggAACCCBwIAEG4EDRpYwAAggggAADoAYQQAABBBA4kAADcKDoUkYAAQQQQIABUAMIIIAAAggcSIABOFB0KTcn8O//+V8lM/iPfzNPSgojKAR+TUDDqgwEqhCouthH82EURhN1HgKPCDAAj7B5CYGHBE5Z8g/x/MUcPCXnPQRuE2AAbiPzAgIfCFjyc0qEOZjD1anHEmAAjpVe4sMIWPjDUN46iCG4hcvDCPxMgAFQEwjcIWDZ36G1/lmmYD1zN7YlwAC0lU7gSwhY+EswT7uEIZiG1sH9CTAA/TWUwWgClv5oojXOYwZq6CCKMgQYgDJSCCRGwMKPoY9ezBBE8bs8T4AByGsggtUELPzVxHvcxxD00EmUwwgwAMNQOqg8AYu/vEQlAmQESsggiPkEGID5jN2QImDhp8jvdS9DsJeesvk/AgyAYtiLgKW/l57VsmEGqikinhcEGIAX8LxaiIDFX0iMA0JhBA4Qef8UGYD9Nd43Q0t/X207ZcYMdFJLrD8QYACUQy8Cln4vvU6Llhk4TfHW+TIAreU7KHiL/yCxN0iVEdhAxP1TYAD217h3hhZ/b/1Oj54ROL0CSufPAJSW59DgLP1Dhd88bWZgc4H7pccA9NNs34gt/n21ldn/E2AEVEMRAgxAESGODsPiP1r+Y5NnBI6VvkriDEAVJU6Mw+I/UXU5/0yAEVATIQIMQAj80dda/EfLL/nfEGAElMZiAgzAYuBHX2fxHy2/5C8SYAQugvLYWwIMwFuC3v9MwOL/zMgTCPjTgBpYTIABWAz8qOss/qPkluwkAr4ITALrWAZADYwnYPGPZ+pEBBgBNTCYAAMwGOjRx1n8R8sv+UUEGIFFoPe/hgHYX+P5GVr88xm7AQG/EVADgwkwAIOBHnec5X+c5BIuRMDXgEJi9AuFAeinWY2ILf4aOogCga8EGAF18IAAA/AA2tGvWPxHyy/54gQYgeIC1QqPAailR+1oLP/a+ogOAV8D1MANAgzADVjHPmrxHyu9xBsT8DWgsXhrQmcA1nDueYvF31M3USPwIwFGQD38hgADoDR+TcDyVxkI7EOACdhHy4GZMAADYW5xlMW/hYySQOCXBBgBhfEDAQZAOfw/ActfNSCwPwEmYH+NL2bIAFwEtfVjFv/W8koOAV8D1MCvCDAAp9eF5X96Bcj/ZAK+Bpys/l8MwKnyW/ynKi9vBP5JgBE4sioYgBNlt/xPVF3OCPyZABNwXIUwAKdJbvmfprh8EbhOgAm4zmqDJxmADUS8lILFfwmThxBA4AsBRuCIMmAATpDZ8j9BZTkiMJYAEzCWZ8HTGICCogwNyfIfitNhCBxFgAnYWm4GYFd5Lf5dlZUXAusJMALrmS+4kQFYAHn5FZb/cuQuRGB7AkzAdhIzALtJavnvpqh8EKhDgAmoo8WASBiAARDLHGH5l5FCIAhsS4AJ2EZaBmAHKS3+HVSUAwK9CDACvfT6RbQMQHcJLf/uCoofgb4EmIC+2n2JnAHoLJ/l31k9sSOwBwEmoK2ODEBX6Sz/rsqJG4H9CDABLTVlADrKZvl3VE3MCOxNgAlopy8D0Ekyi7+TWmJF4EwCjEAb3RmALlJZ/l2UEicCCDABLWqAAeggk+XfQSUxIoDAjwSYgPL1wABUl8jyr66Q+BBA4HcEmIDStcEAVJbH8q+sjtgQQOAKASbgCqXIMwxABPuFSy3/C5A8ggACLQgwASVlYgAqymL5V1RFTAgg8IYAE/CG3pR3GYApWF8cavm/gOdVBBAoTYAJKCUPA1BJDsu/khpiQQCBGQSYgBlUH53JADzCNuEly38CVEcigEBJAkxACVkYgAoyWP4VVBADAgisJMAErKT9y7sYgLQEln9aAfcjgECKABOQIv8/9zIASfyWf5K+uxFAoAIBJiCmAgOQQm/5p8i7FwEEqhFgAiKKMAAJ7JZ/gro7EUCgMgEmYLk6DMBq5Jb/auLuQwCBLgSYgKVKMQArcVv+K2m7CwEEOhJgApapxgCsQm35ryLtHgQQ6E6ACViiIAOwArPlv4KyOxBAYCcCTMB0NRmA2Ygt/9mEnY8AArsSYAKmKssAzMRr+c+k62wEEDiBABMwTWUGYBraLwczADPpOhsBBE4gwABMU5kBmIXW8p9F1rkIIHAaASZgiuIMwAyslv8Mqs5EAIGTCTABw9VnAEYjtfxHE3UeAggg8L8EmIChlcAAjMRp+Y+k6SwEEEDgnwSYgGFVwQAMQ/nlIAZgJE1nIYAAAr8mwAQMqQwGYAhGy38URucggAACHwkwAB8RXXmAAbhC6dMz/jf/T4T8OwIIIDCWABPwmicD8Bah5f+WoPcRQACBZwSYgGfcvr3FALzBZ/m/oeddBBBA4D0BJuAxQwbgKTrL/yk57yGAAAJjCTABj3gyAI+wfXmJAXhKznsIIIDAWAIMwCOeDMATbJb/E2reQQABBOYRYAJus2UA7iKz/O8S8zwCCCCwhgATcIszA3AHl+V/h5ZnEUAAgfUEmIDLzBmAy6i+PMgA3KHlWQQQQGA9AQbgMnMG4Coqy/8qKc8hgAACWQJMwCX+DMAVTJb/FUqeQQABBOoQYAI+asEAfEJk+X8i5N8RQACBmgSYgD/qwgB8KlsG4BMh/44AAgjUJMAAMACPK9Pyf4zOi4sIpAecHlkktGseE0j3yOPA57/oC8DvGBts86vPDe8JpIebPnmvoRPmE0j3yfwMH93AADAAjwrHS0UIpAcbA1CkEITxRwLpPikqDwPwK2EMtaLlKqx/EEgPNr2iKLsQSPdKQU4MwM+iGGgFy1RIvyWQHmr6RXF2IpDul2KsGAAGoFhJCucWgfRAYwBuyeXhMIF0v4TT//l6BuBHIoZZsfIUzkcC6YGmZz5K5IFiBNI9UwgHA/BdDIOsUFkK5TKB9DDTN5el8mAhAum+KYKCAWAAipSiMB4RSA8yBuCRbF4KE0j3TTj979czAF9JGGJFylEYtwmkB5neuS2ZF4oQSPdOAQwMgAFWoAyF8JhAeojpn8fSebEAgXT/hBEwAAZYuARd/4pAeoDpn1fyeTlMIN0/4fTPNgCGV7j8XP+aQHqA6aHXEjogTCDdQ8H0GYAgfFcj8JpAengxAK8ldECYQLqHgumfawAMrmDZuXoYgfTw0kfDpHRQkEC6j0KpMwAh8K5FYAiB9OBiAIbI6JAwgXQfhdI/0wAYWqFyc+1wAunBpZeGS+rAEIF0LwXSPs8AGFiBMnPlNALpoaWfpknr4ACBdD8tTpkBWAzcdQgMJZAeWAzAUDkdFiaQ7qfF6Z9lAAyrxeXluukE0gNLT02X2AWLCaR7amG6DMBC2K5CYDiB9LBiAIZL6sAwgXRPLUz/HANgUC0sK1ctI5AeVvpqmdQuWkgg3VeLUmUAFoF2DQJTCKQHFQMwRVaHhgmk+2pR+mcYAENqUTm5ZjmB9KDSW8sld+EiAuneWpAmA7AAsisQmEYgPaQYgGnSOjhMIN1bC9Lf3wAYUAvKyBUxAukhpb9i0rt4AYF0f01OkQGYDNjxCEwlkB5QDMBUeR0eJpDur8np720ADKfJ5eP4OIH0gNJj8RIQwGQC6R6bmB4DMBGuoxGYTiA9nBiA6RK7IEwg3WMT09/XABhME8vG0WUIpIeTPitTCgKZSCDdZ5NSYwAmgXUsAksIpAcTA7BEZpeECaT7bFL6exoAQ2lSuTi2HIH0YNJr5UpCQJMIpHttQloMwASojkRgGYH0UGIAlkntojCBdK9NSH8/A2AgTSgTR5YlkB5K+q1saQhsAoF0vw1OiQEYDNRxCCwlkB5IDMBSuV0WJpDut8Hp72UADKPB5eG48gTSA0nPlS8RAQ4mkO65gekwAANhOgqB5QTSw4gBWC65C8ME0j03MP19DIBBNLAsHNWGQHoY6bs2pSLQgQTSfTcoFQZgEEjHIBAhkB5EDEBEdpeGCaT7blD6exgAQ2hQOTimHYH0INJ77UpGwIMIpHtvQBoMwACIjkAgRiA9hBiAmPQuDhNI996A9BmAARAdgUCMQHoIMQAx6V0cJpDuvQHp9zcABtCAMnBEWwLpIaT/2paOwAcQSPffyxQYgJcAvY5AlEB6ADEAUfldHiaQ7r+X6fc2AIbPS/m93p5AegDpwfYlJIGXBNI9+CJ8BuAFPK8iECeQHj4MQLwEBBAmkO7BF+kzAC/geRWBOIH08GEA4iUggDCBdA++SL+vATB4Xsju1W0IpIePPtymlCTygkC6Dx+GzgA8BOc1BEoQSA8eBqBEGQgiTCDdhw/TZwAegvMaAiUIpAcPA1CiDAQRJpDuw4fp9zQAhs5Dub22HYH04NGL25WUhB4SSPfig7AZgAfQvIJAGQLpocMAlCkFgYQJpHvxQfr9DICB80Bmr2xLID109OO2pSWxBwTS/XgzZAbgJjCPI1CKQHrgMAClykEwYQLpfryZPgNwE5jHEShFID1wGIBS5SCYMIF0P95Mv5cBMGxuyuvx7QmkB46e3L7EJHiTQLonb4TLANyA5VEEyhFIDxsGoFxJCChMIN2TN9JnAG7A8igC5Qikhw0DUK4kBBQmkO7JG+n3MQAGzQ1ZPXoMgfSw0ZfHlJpEbxBI9+XFUBmAi6A8hkBJAulBwwCULAtBhQmk+/Ji+gzARVAeQ6AkgfSgYQBKloWgwgTSfXkxfQbgIiiPIVCSQHrQMAAly0JQBQike/MCgh4GwJC5IKVHjiSQHjJ688iyk/QFAunevBAiA3ABkkcQKEsgPWQYgLKlIbAwgXRvXkifAbgAySMIlCWQHjIMQNnSEFiYQLo3L6Rf3wAYMBdk9MixBNJDRn8eW3oSv0Ag3Z8fQmQALmjoEQTKEkgPGAagbGkIrACBdH8yAAWKQAgIzCKQHjAMwCxlnbsDgXR/tjYAhssOLSCHmQTSA0aPzlTX2TsQSPfoHxjW/hOA4bJD+cthJoH0cNGjM9V19g4E0j3KAOxQRXJA4BcE0sOFAVCWCPyZQLpHGQAVisCmBNLDhQHYtLCkNYxAukdbGgCDZVj9OWhjAunhok83Li6pDSOQ7tPfJFL3NwAGy7Dac9DGBNKDRZ9uXFxSG0Yg3acMwDApHYRAHQLpwcIA1KkFkdQlkO5TBqBubYgMgccE0oOFAXgsnRcPIpDu01YGwFA5qDOk+opAerDo1VfyefkgAule/QXqmr8BMFQO6gqpviKQHip69ZV8Xj6IQLpXGYCDik2qZxBIDxUG4Iw6k+V7AuleZQDea+gEBEoRSA8VBqBUOQimMIF0r7YwAAZK4QoWWjkC6aGiX8uVhIAKE0j3609o6v0GwEApXL1CK0cgPVD0a7mSEFBhAul+ZQAKF4fQELhLID1QGIC7inn+ZALpfmUATq4+uW9HID1QGIDtSkpCEwmk+5UBmCiuoxFYTSA9UBiA1Yq7rzOBdL+WNgCGSefSFnuCQHqg6NmE6u7sTCDdsz+wq/UjQMOkc1mLPUEgPUz0bEJ1d3YmkO5ZBqBz9YgdgR8IpIcJA6AcEbhHIN2zDMA9vTyNQFkC6WHCAJQtDYEVJZDuWQagaGEIC4G7BNLDhAG4q5jnTyeQ7lkG4PQKlP82BNLDhAHYppQksohAumdLGgCDZFH1uWYrAulhom+3KifJLCKQ7ttvadb5rwAMkkWV55qtCKQHib7dqpwks4hAum8ZgEVCuwaBmQTSg4QBmKmus3clkO5bBmDXypLXUQTSg4QBOKrcJDuIQLpvGYBBQjoGgSSB9CBhAJLqu7srgXTfMgBdK0fcCPxAID1IGADliMB9Aum+ZQDua+YNBMoRSA8SBqBcSQioAYF035YyAIZIg4oVYkkC6UGid0uWhaAaEEj37hdENf4zQEOkQbUKsSSB9BDRuyXLQlANCKR7lwFoUCRCROBPBNJDhAFQnwg8I5DuXQbgmW7eQqAMgfQQYQDKlIJAmhFI9y4D0KxghIvAzwTSQ4QBUJMIPCOQ7l0G4Jlu3kKgDIH0EGEAypSCQJoRSPcuA9CsYISLgC8AagCBPQgwAN909L9F7FHQslhPID1E9O56zd24B4F07/oCsEcdyeJgAukhwgAcXHxSf0Ug3bslDIAB8qqGvHw4gfQQ0b+HF6D0XxEI92/+/xCQAfKqfrx8OIHwAPlL/x5egNJ/RSDcvwzAK/W8jECYQHiAMABh/V3fm0C4fxmA3uUj+tMJhAcIA3B6Acr/FYFw/zIAr9TzMgJhAuEBwgCE9Xd9bwLh/mUAepfP++jDBfg+AScggMBjAn7D8RjdkBfD85cBGKJi40PCBdiYnNAR6E+AAchqGJ6/DEBW/vzt4QLMAxABAgcTYACy4ofnLwOQlT9/e7gA8wBEgMDBBBiArPjh+csAZOXP3x4uwDwAESBwMAEGICt+eP4yAFn587eHCzAPQAQIHEyAAciKH56/DEBW/vzt4QLMAxABAgcTYACy4ofnLwOQlT9/e7gA8wBEgMDBBBiArPjh+csAZOXP3x4uwDwAESBwMAEGICt+eP4yAFn587eHCzAPQAQIHEyAAciKH56/DEBW/vzt4QLMAxABAgcTYACy4ofnLwOQlT9/e7gA8wBEgMDBBBiArPjh+csAZOXP3x4uwDwAESBwMAEGICt+eP4yAFn587eHCzAPQAQIHEyAAciKH56/DEBW/vzt4QLMAxABAgcTYACy4ofnLwOQlT9/e7gA8wBEgMDBBBiArPjh+csAZOXP3x4uwDwAESBwMAEGICt+eP4yAFn587eHCzAPQAQIHEyAAciKH56/DEBW/vzt4QLMAxABAgcTYACy4ofnLwOQlT9/e7gA8wBEgMDBBBiArPjh+csAZOXP3x4uwDwAESBwMAEGICt+eP4yAFn587eHCzAPQAQIHEyAAciKH56/DEBW/vzt4QLMAxABAgcTYACy4ofnLwOQlT9/e7gA8wBEgMDBBBiArPjh+csAZOXP3x4uwDwAESBwMAEGICt+eP4yAFn587eHCzAPQAQIHEyAAciKH56/DEBW/vzt4QLMAxABAgcTYACy4ofnLwOQlT9/e7gA8wBEgMDBBBiArPjh+csAZOXP3x4uwDwAESBwMAEGICt+eP4yAFn587eHCzAPQAQIHEyAAciKH56/DEBW/vzt4QLMAxABAgcTYACy4ofnLwOQlT9/e7gA8wBEgMDBBBiArPjh+csAZOV3OwLvCIQHyF8WyDv9vH02gXD/MgBnl5/suxMIDxAGoHsBiT9KINy/DEBUfZcj8JJAeIAwAC/18/rZBML9ywCcXX6y704gPEAYgO4FJP4ogXD/MgBR9V2OwEsC4QHCALzUz+tnEwj3b94AfJXfD4nObgLZPycQHiB697l03jycQLp3v+BnAA6vQek3J5AeIsx78wISfoxAuncZgJj0LkZgDIH0EGEAxujolPMIpHuXATiv5mS8GYH0EGEANiso6SwjkO5dBmCZ1C5CYA6B9BBhAObo6tT9CaR7lwHYv8ZkuDmB9BBhADYvMOlNI5DuXQZgmrQORmANgfQQYQDW6OyW/Qike5cB2K+mZHQYgfQQYQAOKzjpDiOQ7l0GYJiUDkIgQyA9RBiAjO5u7U8g3btlDMBXKQ2S/gUtg/UE0kNE367X3I39CaT79hvBGv+HgBiA/gUtgwyB9CBhADK6u7U3gXTfMgC960f0CPwPgfQgYQAUIgL3CaT7lgG4r5k3EChHID1IGIByJSGgBgTSfcsANCgSISLwiUB6kDAAnxTy7wj8k0C6bxkAVYnABgTSg4QB2KCIpLCcQLpvGYDlkrsQgfEE0oOEARivqRP3J5Du23IG4GtAhsn+hS/DsQTSg0TPjtXTafsTSPfsD4Tr/GeADMD+hS/D8QTSw4QBGK+pE/cmkO5ZBmDv+pLdQQTSw4QBOKjYpDqEQLpnGYAhMjoEgTyB9DBhAPI1IIJeBNI9ywD0qhfRIvBbAulhwgAoTgTuEUj3LANwTy9PI1CWQHqYMABlS0NgRQmke7asAfgamIFStGqFVZJAepjo15JlIaiiBNL9+hOWWv8VAANQtGqFVZZAeqAwAGVLQ2AFCaT7lQEoWBRCQuApgfRAYQCeKue9Ewmk+5UBOLHq5LwtgfRAYQC2LS2JTSCQ7lcGYIKojkQgRSA9UBiAlPLu7Ugg3a/lDYDfAXQsazGnCKQHCgOQUt693Qike/UXvOr9CJAB6FbW4k0SSA8VBiCpvrs7EUj3KgPQqVrEisAFAumhwgBcEMkjCHwhkO5VBkAZIrAZgfRQYQA2KyjpTCOQ7tU2BsCfAabVoIM3I5AeKgzAZgUlnSkE0n36m6Rq/gaAAZhSgw7dkEB6sDAAGxaVlIYTSPcpAzBcUgcikCeQHiwMQL4GRFCfQLpPGYD6NSJCBG4TSA8WBuC2ZF44kEC6T9sZAH8GOLBLpHybQHqwMAC3JfPCYQTSPfoH3HV/A8AAHNYl0n1EID1cGIBHsnnpIALpHmUADio2qZ5FID1cGICz6k229wmke5QBuK+ZNxBoQSA9XBiAFmUiyCCBdI+2NQD+DBCsWle3IJAeLgxAizIRZIhAuj8/pF37NwAMQKhqXduGQHrAMABtSkWgAQLp/mQAAqK7EoFVBNIDhgFYpbR7OhJI92d7A+ArQMeyF/MqAukBwwCsUto93Qike/MCr/p/AmAALsjokWMJpIcMA3Bs6Un8A4F0b14QiAG4AMkjCJQlkB4yDEDZ0hBYmEC6Ny+k38MA+ApwQUqPHEkgPWQYgCPLTtIXCKR780KIDMAFSB5BoCyB9JBhAMqWhsCCBNJ9eTF1BuAiKI8hUJJAetAwACXLQlBhAum+vJg+A3ARlMcQKEkgPWgYgJJlIagwgXRfXky/jwHwO4CLknrsKALpQcMAHFVukr1AIN2TF0L8/ggDcAOWRxEoRyA9bBiAciUhoDCBdE/eSJ8BuAHLowiUI5AeNgxAuZIQUJhAuidvpN/LAPgzwA1pPXoEgfSwYQCOKDNJXiSQ7seLYfb8EwADcFNej29PID1wGIDtS0yCNwik+/FGqF8f9QXgJjCPI1CKQHrgMAClykEwYQLpfryZfj8D4CvATYk9vjWB9MBhALYuL8ndIJDuxRuh9v0TAAPwQGavbEsgPXQYgG1LS2I3CaR78Wa4Pf8E8D1Jg+eB3F7ZjkB66OjD7UpKQg8IpPvwQcgMwENoXkOgDIH04GEAypSCQIIE0n34MPWevwHwZ4CHcnttOwLpwcMAbFdSEnpAIN2HD0Lu/QWACXgoude2IpAePAzAVuUkmQcE0j34IOTvr/T9AsAAvJDdq9sQSA8fBmCbUpLIQwLpHnwYti8AL8B5FYESBNLDhwEoUQaCCBJI9+CL1Ht/AfAV4IX0Xt2CQHr4MABblJEkHhJI99/DsPf4EwAD8FJ+r7cnkB5ADED7EpLACwLp/nsRev8/AXxP3hB6WQZeb0sgPYD0XtvSEfhLAuneexk+AzAAoCMQiBJIDyEGICq/y4ME0r03IPX+vwHwZ4ABZeCItgTSQ4gBaFs6An9JIN17L8Pf5wsAEzCgFBzRkkB6CDEALctG0C8JpPvuZfjfX9/jCwADMKgcHNOOQHoQMQDtSkbAAwik+25ACnt9AWACBpWEY1oRSA8iBqBVuQh2AIF0zw1IYb8vAAzAwLJwVBsC6WHEALQpFYEOIpDuuUFp7PcFgAkYWBqOakEgPYwYgBZlIshBBNL9NiiNPb8AMACDy8Nx5QmkBxIDUL5EBDiQQLrfBqay5xcAJmBwiTiuNIH0QGIASpeH4AYSSPfawFT2/QLAAEwoE0eWJZAeSgxA2dIQ2GAC6V4bnM6+XwCYgAml4siSBNJDiQEoWRaCGkwg3WeD09n7CwADMKlcHFuOQHowMQDlSkJAEwik+2xCSnt/AWACJpWMY0sRSA8mBqBUOQhmAoF0j01Iaf8vAAzAxLJxdBkC6eHEAJQpBYFMIpDusUlp7f8FgAmYWDqOLkEgPZwYgBJlIIhJBNL9NSmtM74AMACTy8fxcQLpAcUAxEtAABMJpPtrYmpnfAFgAiaXkOOjBNIDigGIyu/yiQTSvTUxtXO+ADAAC8rIFTEC6SHFAMSkd/FkAunempzeOV8AmIAFpeSKCIH0kGIAIrK7dDKBdF9NTu+sLwAMwKJycs1yAulBxQAsl9yFCwik+2pBimd9AWACFpWUa5YSSA8qBmCp3C5bQCDdUwtSPO8LAAOwsKxctYxAelgxAMukdtEiAumeWpTmeV8AmICFpeWqJQTSw4oBWCKzSxYRSPfTojTP/ALAACwuL9dNJ5AeWAzAdIldsJBAup8WpnrmFwAmYHGJuW4qgfTAYgCmyuvwhQTSvbQw1XO/AHzP3OAKlJsrhxNIDy19NFxSBwYIpPsokPK5XwB8BQiVm2uHE0gPLgZguKQODBBI91Eg5bMNABMQKjnXDiWQHlwMwFA5HSV5ysYAAArLSURBVBYgkO6hQMr+BMAABMvO1cMIpIcXAzBMSgeFCKR7KJS2LwBMQLD0XD2EQHp4MQBDZHRIiEC6f0Jp+wLwnYABFi5B178ikB5g+ueVfF4OE0j3Tzj9f4Xvr3G9IVZDB1HcJ5AeYHrnvmbeqEEg3TsFKDAAvgQUKEMhPCaQHmIMwGPpvBgkkO6bYOo/Xs0AMABFSlEYjwikBxkD8Eg2L4UJpPsmnP736xmAH4UwzIqUpTAuE0gPMj1zWSoPFiGQ7pkiGL6GwQD8LIaBVqg8hfKRQHqY6ZePEnmgEIF0vxRCwQD8SgwDrViJCuePBNIDTb8o0E4E0v1SjJUvAExAsZIUzi0C6YHGANySy8NBAuleCab+u6sZgN+RMdgKlquQ/kEgPdT0iaLsQCDdJ0UZMQAMQNHSFNYlAunBxgBckslDYQLpPgmn7wvAEwEMtyfUvLOSQHqw6ZGVarvrCYF0jzyJedE7vgB8Am3AfSLk3xFAAIGaBCz/P+rCAHwqWwbgEyH/jgACCNQkwAAwAK8rkwl4jdABCCCAwFIClv9H3L4AfET07QEm4CopzyGAAAJZApb/Jf4MwCVMTMAdTJ5FAAEEYgQs/8voGYDLqL486CvAHVqeRQABBNYTYAAuM2cALqPyFeAuKs8jgAACSwlY/rdwMwC3cDEBT3B5BwEEEJhOwPK/jZgBuI2MCXiKzHsIIIDAFAKW/yOsDMAjbF9e8nuAp+S8hwACCIwlwAA84skAPMLmK8AbbN5FAAEEhhGw/B+jZAAeo2MC3qLzPgIIIPCKgOX/Ch8D8AofEzACnzMQQACB2wQs/9vIfn6BAXiNkAkYhdA5CCCAwCUClv8lTJ8eYgA+Ebr6734UeJWU5xBAAIF3BBiAd/y+vc0ADMHoK8BIjM5CAAEEfkvA8h9WHAzAMJRMwGiUzkMAAQT+RsDyH1oQDMBQnEzADJzORAABBP6y/IcXAQMwHCkTMAupcxFA4FAClv8U4RmAKViZgJlYnY0AAgcRsPynic0ATEP75WD/ZcBMus5GAIETCDAA01RmAKah9RVgNlrnI4DA5gQs/6kCMwBT8TIBK/C6AwEENiRg+U8XlQGYjpgJWIXYPQggsAkBy3+JkAzAEsxMwErM7kIAgcYELP9l4jEAy1AzAatRuw8BBJoRsPyXCsYALMXNBCRwuxMBBBoQsPyXi8QALEfOBKSQuxcBBIoSsPwjwjAAEexMQBK7uxFAoBAByz8mBgMQQ88EpNG7HwEEwgQs/6gADEAUPxNQAb8YEEAgQMDyD0D/+5UMQFwCJqCKBOJAAIFFBCz/RaD/fA0DUEIGJqCSDGJBAIGJBCz/iXDvHc0A3OM1/2n/D4TmM3YDAghkCFj+Ge6/uZUBKCWHLwEV5RATAggMIGD5D4A49ggGYCzPcaf5EjCOpZMQQCBLwPLP8vcFoCT/PwfFBDQUTcgIIPA3ApZ/2YLwBaCsNP4cUF0a8SGAwAcCln/pEmEASsvDBHSQR4wIIPALApZ/+bJgAMpLxAR0kUicCCDwjYDl36IUGIAWMjEBnWQSKwJHE7D828jPALSR6odA/Tiwo2piRmBvAhZ/O30ZgHaS+RrQVTJxI7AtAcu/pbQMQEvZmIDOsokdga0IWP5t5WQA2krHBHSXTvwItCdg+beWkAFoLR8TsIN8ckCgJQHLv6VsPwbNALSX8IcE/DhwJzXlgkBNAhZ/TV0eRMUAPIBW+hUmoLQ8gkOgNQHLv7V8PwfPAGwlpz8J7CinnBAoQcDyLyHDyCAYgJE0K53lS0AlNcSCQG8Cln9v/X4TPQOwpax+F7C7rPJDYAkBi38J5tQlDECK/Mp7fQ1YSdtdCOxBwPLfQ8c/ZMEAbC+x3wWcIrE8ERhGwPIfhrLyQQxAZXVmxOZrwAyqzkRgDwIW/x46XsyCAbgIaqvHmICt5JQMAkMIWP5DMHY6hAHopNbIWJmAkTSdhUBvApZ/b/0eRs8APAS3zWuMwDZSSgSB2wQs/tvIdnqBAdhJzae5MAFPyXkPgb4ELP++2g2KnAEYBHKLYxiBLWSUBAJ/JGDxK5BvBBgApfB3AkyAikBgXwKW/77aPsiMAXgA7YhXGIEjZJbkIQQs/kOEvpcmA3CP11lPMwFn6S3bPQlY/nvqOiArBmAAxO2PYAS2l1iCGxKw+DcUdWxKDMBYnnufxgjsra/s9iFg+e+j5cRMGICJcLc8mgnYUlZJbULA4t9EyDVpMABrOO93CyOwn6Yy6kvA4u+rXTByBiAIf4urGYEtZJREUwIWf1PhaoTNANTQoXcUTEBv/UTfk4Dl31O3QlEzAIXEaB8KI9BeQgk0IGDxNxCpR4gMQA+dekXJCPTSS7Q9CFj8PXRqFCUD0EisdqEyAu0kE3BBAhZ/QVH2CIkB2EPH2lkwArX1EV1NAhZ/TV02iooB2EjM8qkwAuUlEmABAhZ/ARHOCIEBOEPnWlkyArX0EE0NAhZ/DR0OioIBOEjscqkyAuUkEVCAgMUfgO7KrwQYAHWQJ8AI5DUQwXoCFv965m78GwEGQEHUIcAI1NFCJPMIWPzz2Dr5FgEG4BYuDy8hwAgsweySxQQs/sXAXfeJAAPwiZB/zxJgBrL83f6egMX/nqETphBgAKZgdehwAozAcKQOnEjA0p8I19GjCDAAo0g6Zw0BRmANZ7c8I2DxP+PmrQgBBiCC3aVDCDADQzA65CUBS/8lQK+nCDAAKfLuHUuAGRjL02l/JmDpq5ANCDAAG4gohR8IMALKYSYBi38mXWcvJsAALAbuuoUEmIGFsDe+ytLfWNyzU2MAztb/nOyZgXO0HpGppT+CojOKE2AAigskvAkEmIEJUDc40tLfQEQp3CHAANyh5dk9CTAEe+r6KSsL/xMh/745AQZgc4Gld5MAM3ATWLPHLf1mggl3JgEGYCZdZ/cnwBD01tDC762f6KcSYACm4nX4dgQYgtqSWvi19RFdKQIMQCk5BNOSAFOQk83Cz7F3c3sCDEB7CSVQjgBDMEcSy34OV6ceS4ABOFZ6iS8nwBhcQ27RX+PkKQReEmAAXgL0OgJDCJxmDiz5IWXjEATeEGAA3tDzLgIrCXQxCZb7yqpwFwKPCTAAj9F5EQEEEEAAgb4EGIC+2okcAQQQQACBxwQYgMfovIgAAggggEBfAgxAX+1EjgACCCCAwGMCDMBjdF5EAAEEEECgLwEGoK92IkcAAQQQQOAxAQbgMTovIoAAAggg0JcAA9BXO5EjgAACCCDwmAAD8BidFxFAAAEEEOhLgAHoq53IEUAAAQQQeEyAAXiMzosIIIAAAgj0JcAA9NVO5AgggAACCDwmwAA8RudFBBBAAAEE+hJgAPpqJ3IEEEAAAQQeE2AAHqPzIgIIIIAAAn0JMAB9tRM5AggggAACjwkwAI/ReREBBBBAAIG+BBiAvtqJHAEEEEAAgccEGIDH6LyIAAIIIIBAXwIMQF/tRI4AAggggMBjAgzAY3ReRAABBBBAoC8BBqCvdiJHAAEEEEDgMQEG4DE6LyKAAAIIINCXAAPQVzuRI4AAAggg8JgAA/AYnRcRQAABBBDoS4AB6KudyBFAAAEEEHhMgAF4jM6LCCCAAAII9CXAAPTVTuQIIIAAAgg8JsAAPEbnRQQQQAABBPoSYAD6aidyBBBAAAEEHhNgAB6j8yICCCCAAAJ9Cfw3HcBCeTvbLxUAAAAASUVORK5CYII=;movable=1;resizable=1;rotatable=1;deletable=1;editable=1;locked=0;connectable=1;container=0;" parent="q1IYWbb1lAscTbEZNHsk-66" vertex="1">
          <mxGeometry x="35" y="17.5" width="50" height="50" as="geometry" />
        </mxCell>
        <mxCell id="q1IYWbb1lAscTbEZNHsk-70" value="" style="endArrow=classic;html=1;rounded=0;endFill=1;" parent="1" target="q1IYWbb1lAscTbEZNHsk-67" edge="1">
          <mxGeometry width="50" height="50" relative="1" as="geometry">
            <mxPoint x="329" y="757" as="sourcePoint" />
            <mxPoint x="411" y="839" as="targetPoint" />
          </mxGeometry>
        </mxCell>
        <mxCell id="q1IYWbb1lAscTbEZNHsk-73" value="" style="endArrow=classic;html=1;rounded=0;endFill=1;" parent="1" target="q1IYWbb1lAscTbEZNHsk-67" edge="1">
          <mxGeometry width="50" height="50" relative="1" as="geometry">
            <mxPoint x="490" y="758" as="sourcePoint" />
            <mxPoint x="411" y="838.999" as="targetPoint" />
          </mxGeometry>
        </mxCell>
      </root>
    </mxGraphModel>
  </diagram>
</mxfile>
